<?xml version="1.0" encoding="utf-8"?>
<!-- Generator: Adobe Illustrator 16.0.0, SVG Export Plug-In . SVG Version: 6.00 Build 0)  -->
<!DOCTYPE svg PUBLIC "-//W3C//DTD SVG 1.1//EN" "http://www.w3.org/Graphics/SVG/1.1/DTD/svg11.dtd">
<svg version="1.1"
	 id="svg3104" xmlns:dc="http://purl.org/dc/elements/1.1/" xmlns:cc="http://creativecommons.org/ns#" xmlns:rdf="http://www.w3.org/1999/02/22-rdf-syntax-ns#" xmlns:svg="http://www.w3.org/2000/svg" xmlns:sodipodi="http://sodipodi.sourceforge.net/DTD/sodipodi-0.dtd" xmlns:inkscape="http://www.inkscape.org/namespaces/inkscape" sodipodi:docname="14194739591511397378.png" inkscape:version="0.48.1 r9760"
	 xmlns="http://www.w3.org/2000/svg" xmlns:xlink="http://www.w3.org/1999/xlink" x="0px" y="0px" width="271px" height="267px"
	 viewBox="-8.5 -5.5 271 267" enable-background="new -8.5 -5.5 271 267" xml:space="preserve">
<sodipodi:namedview  inkscape:cy="230.75632" inkscape:cx="128.25728" inkscape:zoom="1" showgrid="false" guidetolerance="10" gridtolerance="10" objecttolerance="10" borderopacity="1" pagecolor="#ffffff" bordercolor="#666666" id="namedview3106" inkscape:current-layer="svg3104" inkscape:window-maximized="1" inkscape:window-y="26" inkscape:window-x="0" inkscape:window-height="710" inkscape:window-width="1366" inkscape:pageshadow="2" inkscape:pageopacity="0">
	</sodipodi:namedview>
<path id="path3116" inkscape:connector-curvature="0" fill="none" d="M0,0"/>
<path id="path3114" inkscape:connector-curvature="0" fill="#FFFFFF" d="M105.075,254.521
	c-48.444-8.609-89.214-46.517-101.141-94.037c-6.184-24.638-5.037-51.961,3.146-74.967c6.623-18.62,15.841-33.158,30.165-47.567
	C58.997,16.065,84.566,3.877,115.426,0.682c39.088-4.046,77.115,10.037,104.708,38.779c22.474,23.41,33.98,49.954,35.686,82.326
	c1.465,27.796-6.041,54.817-21.876,78.767c-6.671,10.089-22.341,25.97-32.343,32.78c-16.033,10.916-34.149,18.373-51.572,21.229
	C138.238,256.496,116.072,256.475,105.075,254.521L105.075,254.521z M148.035,252.529c20.287-3.295,40.41-11.948,56.683-24.375
	c36.769-28.078,55.411-76.113,47.337-121.967c-6.738-38.272-32.385-72.719-67.416-90.549C144.83-4.624,94.945-1.465,57.548,23.686
	C0.459,62.08-14.959,140.047,23.106,197.841c18.941,28.759,49.733,48.877,83.583,54.61
	C118.155,254.393,136.35,254.428,148.035,252.529L148.035,252.529z M110.635,239.084c-7.989-1.367-22.577-5.961-29.809-9.387
	c-31.5-14.92-53.641-42.387-61.853-76.735c-3.231-13.514-3.587-32.582-0.859-45.99c8.739-42.947,40.171-76.016,83.251-87.586
	c8.615-2.313,11.752-2.625,26.453-2.625c14.661,0,17.849,0.314,26.356,2.6c22.177,5.959,36.923,14.462,52.547,30.304
	c14.941,15.148,23.459,29.243,28.683,47.464c18.129,63.23-22.082,128.748-86.611,141.12
	C141.311,239.684,117.222,240.211,110.635,239.084z M149.393,235.647c43.317-8.873,76.52-41.985,86.217-85.982
	c2.334-10.585,2.332-31.574-0.001-42.692c-8.983-42.789-42.259-76.604-84.479-85.851C121.966,14.735,93,20.229,67.552,36.971
	c-30.337,19.96-49.071,54.718-49.071,91.044c0,46.899,29.817,88.586,74.464,104.107
	C109.848,237.998,131.361,239.342,149.393,235.647L149.393,235.647z M75.003,156.926c-18.208-16.352-33.105-30.104-33.105-30.558
	s14.897-14.188,33.105-30.519l33.104-29.693l20.975-0.026c16.164-0.02,20.956,0.267,20.891,1.251
	c-0.046,0.702-10.407,10.472-23.024,21.711l-22.941,20.434l54.108,0.511l54.107,0.511l0.279,16.083l0.277,16.083l-54.453,0.264
	l-54.454,0.265l22.587,20.224c12.423,11.122,22.587,20.893,22.587,21.711c0,1.254-3.221,1.487-20.47,1.484l-20.47-0.003
	L75.003,156.926L75.003,156.926z M146.014,184.306c0-0.175-10.234-9.482-22.744-20.686c-12.509-11.202-22.744-20.945-22.744-21.649
	c0-1.012,11.592-1.282,55.091-1.282h55.09v-14.304v-14.304h-55.09c-43.402,0-55.089-0.271-55.084-1.277
	c0.004-0.702,10.238-10.415,22.744-21.584s22.737-20.479,22.737-20.689c0-0.21-8.301-0.372-18.448-0.359l-18.448,0.023
	L77.277,96.827c-17.513,15.748-31.841,29.083-31.841,29.634s14.329,13.85,31.841,29.554l31.841,28.552l18.448,0.027
	C137.713,184.609,146.014,184.479,146.014,184.306L146.014,184.306z"/>
<path id="path3886" inkscape:connector-curvature="0" fill="#FFFFFF" d="M110.957,252.072c-1.1-0.246-4.475-0.924-7.5-1.504
	c-41.224-7.918-78.043-39.66-92.504-79.748c-5.482-15.2-6.871-23.542-6.935-41.677c-0.045-12.844,0.385-19.078,1.76-25.5
	c8.873-41.439,36.209-74.81,74.146-90.514c30.07-12.447,64.833-12.643,95.073-0.534c38.816,15.542,69.631,54.393,76.445,96.38
	c1.475,9.087,1.23,30.175-0.461,39.878c-6.772,38.832-31.697,72.752-66.242,90.148c-19.291,9.715-32.225,12.838-54.781,13.227
	C120.607,252.39,112.057,252.32,110.957,252.072L110.957,252.072z M155.069,237.786c16.087-4.192,30.276-11.184,42.624-20.999
	c27.088-21.529,42.812-54.094,42.744-88.524c-0.06-30.313-9.84-54.625-30.935-76.895c-15.446-16.307-29.931-25.339-51.046-31.83
	c-10.326-3.174-10.83-3.228-30.5-3.25c-19.007-0.021-20.446,0.114-29,2.729C57.538,31.68,29.499,60.314,18.242,101.445
	c-1.761,6.435-2.119,10.653-2.18,25.698c-0.064,15.779,0.215,19.11,2.263,27c7.582,29.202,23.948,52.579,47.631,68.034
	c12.915,8.427,22.91,12.658,40,16.931C115.1,241.395,144.236,240.609,155.069,237.786L155.069,237.786L155.069,237.786z"/>
<path id="path3888" inkscape:connector-curvature="0" fill="#FFFFFF" d="M83.831,160.318c-14.23-12.828-28.348-25.654-31.374-28.503
	l-5.5-5.178l8-7.667c4.4-4.217,18.35-17.023,31-28.458l23-20.792l16.75-0.039c9.213-0.021,16.75,0.11,16.75,0.292
	s-8.438,8.017-18.75,17.41c-23.955,21.821-25.155,23.075-23.232,24.291c0.874,0.553,23.544,0.943,55.232,0.953l53.75,0.015v13.438
	v13.438l-54.417,0.313c-29.93,0.171-54.743,0.637-55.141,1.035c-1.115,1.117,5.202,7.597,24.937,25.581
	c9.967,9.083,18.309,16.667,18.538,16.854s-7.253,0.341-16.627,0.341h-17.043L83.831,160.318L83.831,160.318z"/>
</svg>
