<?xml version="1.0" standalone="no"?>
<!DOCTYPE svg PUBLIC "-//W3C//DTD SVG 1.1//EN" "http://www.w3.org/Graphics/SVG/1.1/DTD/svg11.dtd" >
<svg xmlns="http://www.w3.org/2000/svg">
<metadata>
This is a custom SVG webfont generated by Font Squirrel.
Copyright   : Copyright c 2005 by OurType Sansa is a design by Fred Smeijers All rights reserved
Foundry     : OurType
Foundry URL : wwwourtypecom
</metadata>
<defs>
<font id="SansaSoftProSemiBold" horiz-adv-x="1280" >
<font-face units-per-em="2048" ascent="1663" descent="-385" />
<missing-glyph horiz-adv-x="544" />
<glyph unicode=" "  horiz-adv-x="544" />
<glyph unicode="&#x09;" horiz-adv-x="544" />
<glyph unicode="&#xa0;" horiz-adv-x="544" />
<glyph unicode="!" horiz-adv-x="610" d="M176 72v110q0 74 94 74h66q94 0 94 -74v-110q0 -72 -94 -72h-66q-94 0 -94 72zM178 1462q-2 33 18.5 53.5t55.5 20.5h102q35 0 54.5 -18.5t19.5 -51.5l-20 -929q0 -66 -68 -66h-74q-66 0 -65 66z" />
<glyph unicode="&#x22;" horiz-adv-x="980" d="M168 1462q-2 35 17.5 54.5t54.5 19.5h102q35 0 54.5 -19.5t17.5 -54.5l-15 -268q-4 -74 -80 -74h-59q-74 0 -78 74zM567 1462q-2 33 17.5 53.5t54.5 20.5h104q74 0 70 -74l-12 -268q-4 -74 -80 -74h-62q-74 0 -77 74z" />
<glyph unicode="#" horiz-adv-x="1363" d="M63 399v66q0 35 19.5 54.5t54.5 19.5h182v458h-182q-35 0 -54.5 19.5t-19.5 54.5v66q0 35 19.5 54t54.5 19h182v252q0 33 20.5 53.5t53.5 20.5h70q33 0 53.5 -20.5t20.5 -53.5v-252h290v252q0 33 20.5 53.5t53.5 20.5h70q33 0 53 -20.5t20 -53.5v-252h183q35 0 54 -19.5 t19 -53.5v-66q0 -35 -19 -54.5t-54 -19.5h-183v-458h183q35 0 54 -19.5t19 -54.5v-66q0 -35 -19 -54t-54 -19h-183v-252q0 -33 -20 -53.5t-53 -20.5h-70q-33 0 -53.5 20.5t-20.5 53.5v252h-290v-252q0 -33 -20.5 -53.5t-53.5 -20.5h-70q-33 0 -53.5 20.5t-20.5 53.5v252 h-182q-35 0 -54.5 19t-19.5 54zM537 539h290v458h-290v-458z" />
<glyph unicode="$" d="M133 119v76q0 61 53 61q14 0 23 -2q180 -47 340 -47h72q276 0 276 225q0 96 -51 143.5t-152 73.5l-223 60q-328 86 -328 417q0 180 119 290t318 130v156q0 74 73 74h56q74 0 73 -74v-152q141 -8 240 -37q74 -20 74 -86v-73q0 -63 -52 -64q-14 0 -22 2q-143 37 -289 37 h-59q-262 0 -262 -203q0 -90 48 -132t142 -68l217 -60q162 -45 254 -143t92 -291q0 -197 -120.5 -310.5t-333.5 -133.5v-170q0 -35 -19.5 -54.5t-54.5 -19.5h-55q-33 0 -53.5 19.5t-20.5 54.5v166q-162 10 -299 47q-76 20 -76 88z" />
<glyph unicode="%" horiz-adv-x="2004" d="M133 1100q0 233 89 339.5t278 106.5q186 0 275 -106.5t89 -339.5q0 -229 -90 -337t-274 -108q-186 0 -276.5 108t-90.5 337zM334 1100q0 -160 36 -225.5t130 -65.5q92 0 127 63.5t35 227.5q0 168 -34 230.5t-128 62.5t-130 -62.5t-36 -230.5zM567 35q0 4 8 24l703 1418 q33 59 82 59h26q49 0 50 -37q0 -10 -6 -22l-705 -1418q-29 -59 -80 -59h-24q-54 0 -54 35zM1147 436q0 233 88 340t276 107q186 0 275.5 -106.5t89.5 -340.5q0 -229 -90 -336.5t-275 -107.5q-186 0 -275 106.5t-89 337.5zM1346 436q0 -162 35.5 -227.5t129.5 -65.5 q92 0 127 63.5t35 229.5t-33.5 228.5t-128 62.5t-130 -62.5t-35.5 -228.5z" />
<glyph unicode="&#x26;" horiz-adv-x="1386" d="M137 438q0 123 64.5 225.5t179.5 145.5q-88 43 -140.5 129t-52.5 199q0 195 135.5 305t362.5 110h53q158 0 291 -43q59 -20 60 -84v-82q0 -53 -50 -53q-16 0 -24 2q-156 37 -277 37h-53q-233 0 -233 -213q0 -92 54 -150.5t142 -58.5h568q74 0 73 -71v-70 q0 -33 -20.5 -53.5t-52.5 -20.5h-64v-631q-76 -31 -219 -54t-264 -23q-533 -1 -533 454zM399 442q0 -236 271 -235q139 0 221 24v463h-242q-117 0 -183.5 -67.5t-66.5 -184.5z" />
<glyph unicode="'" horiz-adv-x="581" d="M168 1462q-2 35 17.5 54.5t54.5 19.5h102q35 0 54.5 -19.5t17.5 -54.5l-15 -268q-4 -74 -80 -74h-59q-74 0 -78 74z" />
<glyph unicode="(" horiz-adv-x="798" d="M96 608v64q0 244 74 450.5t209 339.5q74 74 125 74h94q51 0 51 -31q0 -14 -24 -43q-274 -276 -275 -790v-64q0 -526 275 -790q25 -27 24 -43q0 -31 -51 -31h-94q-51 0 -125 74q-135 131 -209 337.5t-74 452.5z" />
<glyph unicode=")" horiz-adv-x="798" d="M147 -225q0 16 27 43q274 266 275 790v64q0 510 -275 790q-27 27 -27 43q0 31 54 31h94q51 0 125 -74q135 -133 208.5 -340t73.5 -450v-64q0 -246 -73.5 -452.5t-208.5 -337.5q-74 -74 -125 -74h-94q-54 0 -54 31z" />
<glyph unicode="*" horiz-adv-x="1024" d="M121 954q0 31 33 47l192 111l-192 113q-33 18 -33 47q0 6 8 31l29 43q23 33 49 32q10 0 31 -10l188 -111v222q0 57 59 57h54q59 0 59 -57v-222l188 111q20 10 31 10q27 0 49 -32l29 -43q8 -16 8 -33q0 -31 -33 -47l-192 -113l192 -111q33 -20 33 -47q0 -6 -8 -30l-29 -43 q-23 -33 -49 -33q-10 0 -31 10l-188 111v-222q0 -57 -59 -57h-54q-59 0 -59 57v220l-188 -109q-20 -10 -31 -10q-27 0 -49 33l-29 43q-8 16 -8 32z" />
<glyph unicode="+" d="M193 721v63q0 74 73 74h266v268q0 74 74 74h68q74 0 74 -74v-268h266q74 0 73 -74v-63q0 -76 -73 -76h-266v-266q0 -76 -74 -76h-68q-74 0 -74 76v266h-266q-73 0 -73 76z" />
<glyph unicode="," horiz-adv-x="610" d="M51 -213q0 10 2 16l101 379q20 74 88 74h120q74 0 74 -74q0 -39 -16 -63l-174 -316q-33 -59 -80 -59h-62q-53 0 -53 43z" />
<glyph unicode="-" horiz-adv-x="831" d="M100 721v63q0 74 74 74h483q74 0 74 -74v-63q0 -76 -74 -76h-481q-76 0 -76 76z" />
<glyph unicode="." horiz-adv-x="610" d="M174 74v108q0 74 74 74h114q35 0 54.5 -19.5t19.5 -54.5v-108q0 -33 -19.5 -53.5t-54.5 -20.5h-114q-74 0 -74 74z" />
<glyph unicode="/" horiz-adv-x="1097" d="M76 -211q0 14 6 29l694 1644q33 74 94 74h93q59 0 59 -45q0 -12 -6 -29l-694 -1644q-33 -74 -95 -74h-92q-59 0 -59 45z" />
<glyph unicode="0" d="M100 768q0 412 131 598t410 186q276 0 408.5 -186t132.5 -598q0 -408 -132 -596t-408.5 -188t-409 188t-132.5 596zM362 768q0 -311 60.5 -436t218.5 -125t217 122q60 122 60 439q0 319 -59.5 440t-217.5 121q-160 0 -219.5 -121t-59.5 -440z" />
<glyph unicode="1" d="M178 1174v92q0 61 74 92l397 162q39 16 84 16h53q33 0 53.5 -20.5t20.5 -53.5v-1388q0 -33 -20.5 -53.5t-53.5 -20.5h-114q-33 0 -53.5 20.5t-20.5 53.5v1183l-344 -139q-16 -6 -29 -6q-20 0 -33.5 17.5t-13.5 44.5z" />
<glyph unicode="2" d="M147 74v141q0 313 297 492l191 112q100 61 152.5 123t52.5 160q0 121 -62.5 167t-197.5 46h-318q-76 0 -76 74v73q0 74 76 74h361q236 0 357.5 -108.5t121.5 -319.5q0 -160 -80 -259t-256 -204l-176 -104q-172 -104 -172 -297v-23h633q76 0 75 -74v-73q0 -35 -20.5 -54.5 t-54.5 -19.5h-830q-33 0 -53.5 20.5t-20.5 53.5z" />
<glyph unicode="3" d="M178 74v73q0 74 74 74h348q131 0 209 62.5t78 185.5t-72 173t-207 50h-194q-35 0 -55.5 19.5t-20.5 54.5v55q0 74 74 74h270q172 98 172 236q0 102 -62.5 140t-191.5 38h-340q-76 0 -76 73v80q0 35 20.5 54.5t55.5 19.5h363q496 0 495 -354q0 -201 -200 -336 q117 -49 174 -137t57 -240q0 -221 -148.5 -345t-386.5 -124h-360q-35 0 -55.5 19.5t-20.5 54.5z" />
<glyph unicode="4" d="M96 383v49q0 47 19 80q217 401 311 950q14 74 84 74h127q29 0 48.5 -15.5t19.5 -41.5q0 -8 -8 -42l-9 -44q-92 -446 -326 -865h406v308q0 72 74 71h114q74 0 74 -71v-308h94q35 0 54.5 -20.5t19.5 -52.5v-72q0 -35 -19.5 -54.5t-54.5 -19.5h-94v-235q0 -74 -74 -74h-114 q-35 0 -54.5 20.5t-19.5 53.5v235h-598q-35 0 -54.5 19.5t-19.5 54.5z" />
<glyph unicode="5" d="M164 74v73q0 74 74 74h356q283 0 283 279q0 139 -74 191t-223 52h-310q-74 0 -73 74v645q0 74 73 74h729q76 0 76 -74v-73q0 -74 -76 -74h-557v-348h176q258 0 390.5 -119t132.5 -348q0 -231 -143.5 -365.5t-403.5 -134.5h-356q-33 0 -53.5 20.5t-20.5 53.5z" />
<glyph unicode="6" d="M131 485v463q0 268 171 428t474 160h176q35 0 55.5 -19.5t20.5 -54.5v-73q0 -74 -76 -74h-198q-166 0 -263.5 -88t-97.5 -260v-62q156 76 293 76q463 0 463 -496q0 -229 -133 -365t-381 -136q-242 0 -373 130.5t-131 370.5zM393 485q0 -279 248 -278q246 0 246 278 q0 145 -54.5 212t-175.5 67q-131 0 -264 -59v-220z" />
<glyph unicode="7" d="M127 1393v69q0 35 20.5 54.5t55.5 19.5h874q74 0 74 -74v-51q0 -41 -29 -74q-213 -242 -333.5 -511t-120.5 -613v-139q0 -33 -20.5 -53.5t-53.5 -20.5h-115q-33 0 -53 20.5t-20 53.5v119q0 338 134 627.5t334 498.5h-671q-76 0 -76 74z" />
<glyph unicode="8" d="M117 422q0 111 47 186.5t135 143.5l68 51q-219 115 -220 350q0 205 133.5 302t331.5 97h56q223 0 344 -93t121 -306q0 -162 -162 -309l-49 -43q121 -59 181 -147.5t60 -231.5q0 -207 -142 -322.5t-353 -115.5h-56q-495 0 -495 438zM379 428q0 -121 62.5 -168t179.5 -47 h38q242 0 242 215q0 90 -45 142.5t-133 86.5l-164 68l-63 -57q-37 -33 -58.5 -58.5t-40 -74t-18.5 -107.5zM403 1145q0 -78 39 -122t121 -77l162 -65l43 41q109 102 109 223q0 188 -209 188h-56q-209 0 -209 -188z" />
<glyph unicode="9" d="M129 1042q0 229 136 365.5t382 136.5q240 0 371 -131t131 -371v-454q0 -268 -171 -428t-474 -160h-178q-74 0 -74 72v75q0 74 74 74h200q164 0 261.5 88t97.5 258v58q-147 -74 -293 -74q-463 -1 -463 491zM393 1042q0 -145 54.5 -210.5t175.5 -65.5q133 0 262 57v219 q0 281 -244 281q-123 0 -185.5 -67t-62.5 -214z" />
<glyph unicode=":" horiz-adv-x="610" d="M174 74v108q0 74 74 74h114q35 0 54.5 -19.5t19.5 -54.5v-108q0 -33 -19.5 -53.5t-54.5 -20.5h-114q-74 0 -74 74zM174 938v109q0 74 74 73h114q35 0 54.5 -19.5t19.5 -53.5v-109q0 -33 -19.5 -53.5t-54.5 -20.5h-114q-74 0 -74 74z" />
<glyph unicode=";" horiz-adv-x="610" d="M51 -213q0 10 2 16l101 379q20 74 88 74h120q74 0 74 -74q0 -39 -16 -63l-174 -316q-33 -59 -80 -59h-62q-53 0 -53 43zM174 938v109q0 74 74 73h114q35 0 54.5 -19.5t19.5 -53.5v-109q0 -33 -19.5 -53.5t-54.5 -20.5h-114q-74 0 -74 74z" />
<glyph unicode="&#x3c;" d="M193 715v78q0 59 73 98l748 387q20 10 33 10q41 0 40 -57v-94q0 -61 -73 -97l-574 -288l574 -285q74 -35 73 -96v-95q0 -59 -40 -59q-12 0 -33 10l-748 389q-73 36 -73 99z" />
<glyph unicode="=" d="M193 475v66q0 74 73 73h748q74 0 73 -73v-66q0 -72 -73 -72h-748q-73 0 -73 72zM193 944v64q0 74 73 73h748q74 0 73 -73v-64q0 -74 -73 -74h-748q-73 0 -73 74z" />
<glyph unicode="&#x3e;" d="M193 276v95q0 61 73 96l574 285l-574 288q-74 35 -73 97v94q0 57 40 57q12 0 33 -10l748 -389q74 -39 73 -98v-76q0 -63 -73 -99l-748 -389q-20 -10 -33 -10q-40 0 -40 59z" />
<glyph unicode="?" horiz-adv-x="966" d="M129 1399v57q0 35 21.5 57.5t60.5 22.5h270q420 0 420 -352q0 -162 -182 -379l-203 -238v-51q0 -37 -21.5 -58.5t-60.5 -21.5h-90q-37 0 -58.5 21.5t-21.5 58.5v29q0 27 17 49l223 264q143 170 143 299q0 162 -239 162h-197q-82 0 -82 80zM264 80v96q0 35 21.5 57.5 t58.5 22.5h90q37 0 59.5 -21.5t22.5 -58.5v-96q0 -37 -21.5 -58.5t-60.5 -21.5h-90q-37 0 -58.5 21.5t-21.5 58.5z" />
<glyph unicode="@" horiz-adv-x="1896" d="M117 672q0 410 247.5 645t622.5 235q362 0 579.5 -192.5t217.5 -538.5q0 -221 -142.5 -361.5t-369.5 -140.5h-324q-164 0 -259 91.5t-95 261.5q0 174 105.5 279.5t267.5 105.5h207q74 0 73 -76v-512h39q121 0 200 94t79 258q0 266 -148.5 405.5t-429.5 139.5 q-303 0 -479 -180t-176 -514q0 -328 174 -511.5t467 -183.5q158 0 307 27q6 2 16 2q27 0 43.5 -17.5t16.5 -45.5v-37q0 -70 -74 -86q-131 -29 -309 -29q-180 0 -334 55.5t-271.5 162t-184 277.5t-66.5 386zM793 672q0 -96 40.5 -149.5t114.5 -53.5h103v438h-84 q-78 0 -126 -65.5t-48 -169.5z" />
<glyph unicode="A" horiz-adv-x="1445" d="M66 51q0 12 2 21q53 217 161 583q68 229 172.5 505t157.5 376h334q53 -100 157.5 -375.5t172.5 -505.5q109 -369 159 -583q2 -8 2 -21q0 -51 -65 -51h-133q-66 0 -82 72q-20 90 -72 288h-629l-69 -288q-20 -72 -84 -72h-119q-65 0 -65 51zM465 582h508q-2 6 -5 20t-5 21 q-133 485 -240 704q-104 -213 -246 -704q-8 -29 -12 -41z" />
<glyph unicode="B" horiz-adv-x="1355" d="M178 74v1388q0 33 19.5 53.5t54.5 20.5h496q455 0 454 -395q0 -119 -54 -209t-149 -137q236 -84 236 -346q0 -449 -477 -449h-506q-35 0 -54.5 20.5t-19.5 53.5zM440 221h295q119 0 174.5 55.5t55.5 176.5q0 115 -58.5 166t-179.5 51h-287v-449zM440 879h287 q96 0 150.5 67.5t54.5 167.5q0 201 -205 201h-287v-436z" />
<glyph unicode="C" horiz-adv-x="1339" d="M98 678v180q0 330 204 512t546 182q215 0 389 -67v-314q0 -74 -78 -73h-90q-74 0 -74 73v138q-63 20 -180 20q-207 0 -326.5 -115.5t-119.5 -349.5v-186q0 -221 113.5 -346t316.5 -125h96q121 0 264 43q10 4 31 4q47 0 47 -53v-80q0 -72 -63 -86q-172 -51 -279 -51h-96 q-340 0 -520.5 185t-180.5 509z" />
<glyph unicode="D" horiz-adv-x="1497" d="M178 74v1388q0 33 19.5 53.5t54.5 20.5h434q352 0 529.5 -167t177.5 -478v-213q0 -315 -169 -496.5t-519 -181.5h-453q-35 0 -54.5 20.5t-19.5 53.5zM440 221h265q418 0 417 471v187q0 436 -436 436h-246v-1094z" />
<glyph unicode="E" horiz-adv-x="1239" d="M178 416v1046q0 33 19.5 53.5t54.5 20.5h772q33 0 53.5 -20.5t20.5 -53.5v-73q0 -74 -74 -74h-584v-408h521q74 0 73 -71v-76q0 -35 -19.5 -54.5t-53.5 -19.5h-521v-254q0 -111 45 -161t144 -50h409q74 0 74 -74v-73q0 -33 -19.5 -53.5t-54.5 -20.5h-458q-402 0 -402 416 z" />
<glyph unicode="F" horiz-adv-x="1134" d="M178 74v1007q0 455 471 455h330q33 0 53.5 -20.5t20.5 -53.5v-73q0 -74 -74 -74h-338q-96 0 -148.5 -57.5t-52.5 -165.5v-207h506q33 0 53.5 -20.5t20.5 -53.5v-78q0 -33 -20.5 -53.5t-53.5 -20.5h-506v-585q0 -33 -19.5 -53.5t-53.5 -20.5h-115q-35 0 -54.5 20.5 t-19.5 53.5z" />
<glyph unicode="G" horiz-adv-x="1466" d="M109 678v190q0 334 215 509t555 175q156 0 372 -55q63 -16 64 -86v-86q0 -51 -49 -51q-8 0 -29 4q-180 51 -365 51q-227 0 -361 -112.5t-134 -348.5v-190q0 -221 122 -346t332 -125h72q98 0 170 20v340h-203q-74 0 -73 74v76q0 74 73 74h373q72 0 72 -74v-649 q-66 -29 -185.5 -56.5t-226.5 -27.5h-72q-340 0 -531 187.5t-191 506.5z" />
<glyph unicode="H" horiz-adv-x="1542" d="M178 74v1388q0 33 19.5 53.5t54.5 20.5h115q35 0 54 -20.5t19 -53.5v-547h660v547q0 35 20.5 54.5t55.5 19.5h112q35 0 55.5 -19.5t20.5 -54.5v-1388q0 -35 -20.5 -54.5t-55.5 -19.5h-112q-35 0 -55.5 19.5t-20.5 54.5v618h-660v-618q0 -33 -19.5 -53.5t-53.5 -20.5h-115 q-35 0 -54.5 20.5t-19.5 53.5z" />
<glyph unicode="I" horiz-adv-x="618" d="M178 74v1388q0 33 19.5 53.5t54.5 20.5h115q35 0 54 -20.5t19 -53.5v-1388q0 -33 -19.5 -53.5t-53.5 -20.5h-115q-35 0 -54.5 20.5t-19.5 53.5z" />
<glyph unicode="J" horiz-adv-x="956" d="M82 74v73q0 74 74 74h133q227 0 227 252v842h-295q-74 0 -74 74v73q0 33 20.5 53.5t53.5 20.5h484q33 0 53 -20.5t20 -53.5v-989q0 -223 -126 -348t-351 -125h-145q-33 0 -53.5 20.5t-20.5 53.5z" />
<glyph unicode="K" horiz-adv-x="1409" d="M178 74v1388q0 33 19.5 53.5t54.5 20.5h115q35 0 54 -20.5t19 -53.5v-555h92l467 555q63 74 113 74h156q55 0 55 -35q0 -16 -20 -39l-562 -651l590 -737q18 -25 19 -39q0 -35 -52 -35h-170q-53 0 -112 74l-494 618h-82v-618q0 -33 -19.5 -53.5t-53.5 -20.5h-115 q-35 0 -54.5 20.5t-19.5 53.5z" />
<glyph unicode="L" horiz-adv-x="1099" d="M178 416v1046q0 33 19.5 53.5t54.5 20.5h115q35 0 54 -20.5t19 -53.5v-1030q0 -111 45 -161t144 -50h350q74 0 74 -74v-73q0 -33 -20.5 -53.5t-53.5 -20.5h-399q-195 0 -298.5 106.5t-103.5 309.5z" />
<glyph unicode="M" horiz-adv-x="1783" d="M176 72v1390q0 35 20.5 54.5t55.5 19.5h119q51 0 82 -43l436 -629l440 629q31 43 82 43h119q76 0 76 -74v-1390q0 -72 -76 -72h-113q-74 0 -74 72v1036l-393 -537q-31 -35 -57 -34h-29q-37 0 -57 34l-367 527v-1026q0 -72 -75 -72h-113q-76 0 -76 72z" />
<glyph unicode="N" horiz-adv-x="1550" d="M176 72v1390q0 35 20.5 54.5t55.5 19.5h86q49 0 82 -43l688 -1004v973q0 35 20.5 54.5t55.5 19.5h112q35 0 55.5 -19.5t20.5 -54.5v-1390q0 -72 -76 -72h-86q-55 0 -82 43l-688 1008v-979q0 -72 -75 -72h-113q-76 0 -76 72z" />
<glyph unicode="O" horiz-adv-x="1531" d="M98 721v100q0 348 171 539.5t497 191.5q328 0 498 -188t170 -543v-100q0 -350 -171 -543.5t-497 -193.5q-328 0 -498 191.5t-170 545.5zM369 721q0 -258 94 -386t303 -128t303 128t94 386v100q0 256 -94 382t-303 126t-303 -126t-94 -382v-100z" />
<glyph unicode="P" horiz-adv-x="1304" d="M178 74v1388q0 33 19.5 53.5t54.5 20.5h450q514 0 515 -522q0 -268 -145.5 -409.5t-401.5 -141.5h-230v-389q0 -33 -19.5 -53.5t-53.5 -20.5h-115q-35 0 -54.5 20.5t-19.5 53.5zM440 684h215q164 0 227.5 80t63.5 250q0 166 -62.5 233.5t-219.5 67.5h-224v-631z" />
<glyph unicode="Q" horiz-adv-x="1531" d="M98 721v100q0 348 171 539.5t497 191.5q328 0 498 -188t170 -543v-100q0 -322 -146.5 -513.5t-425.5 -217.5v-58q0 -68 30 -95t109 -27q84 0 168 18q8 2 25 2q49 0 49 -53v-51q0 -68 -59 -84q-98 -27 -197 -27q-147 0 -231 78t-84 219v76q-283 27 -428.5 216t-145.5 517z M369 721q0 -258 94 -386t303 -128t303 128t94 386v100q0 256 -94 382t-303 126t-303 -126t-94 -382v-100z" />
<glyph unicode="R" horiz-adv-x="1374" d="M178 74v1388q0 33 19.5 53.5t54.5 20.5h450q258 0 386.5 -112.5t128.5 -370.5q0 -311 -267 -443q90 -78 184.5 -228.5t145.5 -277.5q16 -37 16 -55q0 -49 -63 -49h-141q-55 0 -86 74q-47 121 -136.5 259t-162.5 195h-267v-454q0 -33 -19.5 -53.5t-53.5 -20.5h-115 q-35 0 -54.5 20.5t-19.5 53.5zM440 748h207q160 0 229.5 74.5t69.5 224.5q0 154 -63.5 211t-218.5 57h-224v-567z" />
<glyph unicode="S" horiz-adv-x="1249" d="M113 119v86q0 55 47 55q6 0 26 -4q203 -49 340 -49h72q279 0 279 225q0 96 -52.5 143.5t-152.5 73.5l-221 60q-328 84 -328 417q0 201 144.5 313.5t379.5 112.5h64q129 0 301 -43q61 -14 61 -84v-82q0 -53 -51 -53q-16 0 -25 2q-168 37 -286 37h-60q-262 0 -262 -203 q0 -90 48 -132t143 -68l217 -60q164 -45 256 -143t92 -291q0 -217 -146.5 -332.5t-400.5 -115.5h-72q-141 0 -352 51q-61 16 -61 84z" />
<glyph unicode="T" horiz-adv-x="1230" d="M33 1389v73q0 74 73 74h1018q35 0 54.5 -20.5t19.5 -53.5v-73q0 -74 -74 -74h-379v-1241q0 -74 -73 -74h-115q-33 0 -53.5 20.5t-20.5 53.5v1241h-377q-73 0 -73 74z" />
<glyph unicode="U" horiz-adv-x="1513" d="M168 541v921q0 35 20.5 54.5t55.5 19.5h112q35 0 55.5 -19.5t20.5 -54.5v-923q0 -332 326 -332q324 0 323 332v923q0 35 20.5 54.5t55.5 19.5h113q76 0 76 -74v-921q0 -268 -161 -412.5t-427 -144.5q-279 0 -434.5 143.5t-155.5 413.5z" />
<glyph unicode="V" horiz-adv-x="1417" d="M63 1481q0 55 68 55h133q66 0 82 -74q168 -801 371 -1243q201 436 377 1243q16 74 82 74h110q68 0 68 -57q0 -8 -19 -95q-84 -412 -219 -800.5t-237 -583.5h-338q-98 184 -233.5 577.5t-227.5 815.5q-17 53 -17 88z" />
<glyph unicode="W" horiz-adv-x="2158" d="M63 1462v13q0 61 66 61h135q63 0 78 -74q139 -840 305 -1243q94 211 179 550t137 693q10 74 77 74h95q70 0 79 -74q104 -733 312 -1243q178 416 307 1243q6 74 78 74h125q66 0 65 -57l-2 -17q-66 -432 -179.5 -837.5t-213.5 -624.5h-340q-160 344 -279 909 q-57 -270 -135 -521t-141 -388h-350q-106 223 -221.5 633.5t-176.5 828.5z" />
<glyph unicode="X" horiz-adv-x="1343" d="M61 39q0 14 13 35l444 702l-434 686q-12 20 -12 33q0 41 57 41h156q55 0 102 -74l283 -446l284 446q47 74 105 74h129q53 0 53 -39q0 -10 -10 -35l-422 -665l461 -723q12 -20 12 -33q0 -18 -16.5 -29.5t-38.5 -11.5h-166q-33 0 -50.5 16.5t-43.5 57.5l-310 485l-307 -485 q-47 -74 -104 -74h-127q-58 0 -58 39z" />
<glyph unicode="Y" horiz-adv-x="1320" d="M57 1493q0 43 60 43h135q55 0 96 -74l322 -631l329 631q41 74 97 74h116q57 0 58 -41q0 -12 -10 -33l-469 -850v-538q0 -33 -20.5 -53.5t-53.5 -20.5h-115q-74 0 -74 74v530l-460 858q-11 21 -11 31z" />
<glyph unicode="Z" horiz-adv-x="1269" d="M88 74v30q0 31 25 62q188 242 413.5 593t311.5 556h-643q-74 0 -74 74v73q0 74 74 74h909q74 0 74 -74v-22q0 -23 -13 -51q-96 -219 -321.5 -584t-390.5 -584h661q74 0 74 -74v-73q0 -33 -20.5 -53.5t-53.5 -20.5h-952q-35 0 -54.5 20.5t-19.5 53.5z" />
<glyph unicode="[" horiz-adv-x="843" d="M193 -178v1642q0 72 73 72h363q47 0 67.5 -12.5t20.5 -50.5v-52q0 -63 -88 -63h-185v-1432h185q47 0 67.5 -13t20.5 -50v-53q0 -63 -88 -64h-363q-73 0 -73 76z" />
<glyph unicode="\" horiz-adv-x="1097" d="M76 1491q0 45 59 45h92q61 0 95 -74l694 -1644q6 -14 6 -29q0 -45 -59 -45h-93q-61 0 -94 74l-694 1644q-6 17 -6 29z" />
<glyph unicode="]" horiz-adv-x="843" d="M127 -137q0 63 88 63h184v1432h-184q-47 0 -67.5 13t-20.5 50v54q0 63 88 63h363q74 0 73 -76v-1642q0 -72 -73 -72h-363q-47 0 -67.5 12.5t-20.5 51.5v51z" />
<glyph unicode="^" d="M106 266q0 12 11 33l387 748q41 74 98 73h78q55 0 98 -73l387 -748q10 -20 11 -33q0 -43 -58 -43h-94q-59 0 -96 76l-287 582l-287 -582q-37 -76 -96 -76h-94q-58 0 -58 43z" />
<glyph unicode="_" d="M63 -74q0 33 19.5 53.5t54.5 20.5h1006q33 0 53.5 -20.5t20.5 -53.5v-63q0 -35 -19.5 -55.5t-54.5 -20.5h-1004q-76 0 -76 76v63z" />
<glyph unicode="`" horiz-adv-x="446" d="M0 1571q0 29 51 28h156q55 0 104 -73l121 -172q14 -20 14 -35q0 -39 -57 -39h-51q-12 0 -23 3l-17 5q-7 2 -20 12l-18 14q-4 3 -21.5 19.5t-23.5 20.5l-186 172q-29 27 -29 45z" />
<glyph unicode="a" horiz-adv-x="1282" d="M115 362v193q0 254 172 409.5t420 155.5h321q33 0 53.5 -19.5t20.5 -53.5v-973q0 -33 -20.5 -53.5t-53.5 -20.5h-106q-33 0 -53.5 20.5t-20.5 53.5v112l-80 -69q-152 -133 -315 -133q-156 0 -247 96t-91 282zM369 387q0 -184 153 -184q104 0 262 137l64 53v514h-127 q-162 0 -257 -93t-95 -259v-168z" />
<glyph unicode="b" horiz-adv-x="1282" d="M176 74v1388q0 33 20.5 53.5t53.5 20.5h104q35 0 55.5 -19.5t20.5 -54.5v-528l80 70q154 133 315 133q156 0 247 -96.5t91 -282.5v-195q0 -252 -172 -407.5t-420 -155.5h-321q-33 0 -53.5 20.5t-20.5 53.5zM430 213h127q160 0 256 92t96 258v168q0 102 -40 144t-115 42 q-102 0 -260 -137l-64 -55v-512z" />
<glyph unicode="c" horiz-adv-x="1073" d="M100 444v211q0 221 149.5 351.5t358.5 130.5q199 0 348 -80v-252q0 -76 -73 -76h-70q-74 0 -74 76v88q-45 25 -131 25q-113 0 -183.5 -68t-70.5 -201v-174q0 -133 70 -202.5t199 -69.5q115 0 249 41q16 6 27 6q49 0 49 -55v-76q0 -66 -61 -86q-141 -49 -269 -49 q-238 0 -378 114.5t-140 345.5z" />
<glyph unicode="d" horiz-adv-x="1282" d="M115 362v193q0 254 172 409.5t420 155.5h141v342q0 33 20.5 53.5t53.5 20.5h106q33 0 53.5 -20.5t20.5 -53.5v-1388q0 -33 -20.5 -53.5t-53.5 -20.5h-106q-33 0 -53.5 20.5t-20.5 53.5v112l-80 -69q-152 -133 -315 -133q-156 0 -246 96t-92 282zM369 387q0 -184 153 -184 q104 0 262 137l64 53v514h-127q-162 0 -257 -93t-95 -259v-168z" />
<glyph unicode="e" horiz-adv-x="1165" d="M102 436v219q0 227 145.5 354.5t375.5 127.5q199 0 317.5 -82t118.5 -258q0 -160 -102.5 -242t-278.5 -82h-322v-41q0 -229 277 -229q135 0 272 41q16 4 23 4q25 0 39 -17.5t14 -46.5v-67q0 -66 -76 -88q-154 -45 -287 -45q-238 0 -377 110.5t-139 341.5zM356 659v-16 h283q96 0 137 36t41 109q0 76 -50 106t-144 30q-267 -1 -267 -265z" />
<glyph unicode="f" horiz-adv-x="724" d="M41 981v66q0 74 76 73h98v41q0 180 102.5 277.5t280.5 97.5h96q74 0 74 -74v-51q0 -74 -74 -74h-47q-94 0 -136 -43t-42 -139v-35h193q74 0 73 -73v-66q0 -74 -73 -74h-193v-833q0 -74 -74 -74h-102q-78 0 -78 74v833h-98q-76 0 -76 74z" />
<glyph unicode="g" horiz-adv-x="1282" d="M115 457v98q0 260 163.5 412.5t409.5 152.5h340q33 0 53.5 -19.5t20.5 -53.5v-897q0 -268 -155.5 -401.5t-438.5 -133.5h-203q-74 0 -74 76v63q0 74 74 74h148q211 0 303 70.5t92 253.5v30l-43 -20q-2 0 -63.5 -29t-84 -37t-77 -20.5t-105.5 -12.5q-164 0 -262 100.5 t-98 293.5zM369 481q0 -199 172 -198q119 0 266 69l41 21v534h-146q-160 0 -246.5 -92t-86.5 -260v-74z" />
<glyph unicode="h" horiz-adv-x="1323" d="M176 74v1388q0 33 20.5 53.5t53.5 20.5h104q35 0 55.5 -19.5t20.5 -54.5v-534l66 59q166 150 340 150q313 0 313 -373v-690q0 -74 -78 -74h-102q-74 0 -74 74v651q0 104 -37 148t-108 44q-18 0 -38 -4t-42 -15l-37 -18q-14 -7 -41 -27l-34 -25q-7 -5 -36 -29l-28 -25 l-64 -53v-647q0 -35 -20.5 -54.5t-55.5 -19.5h-104q-33 0 -53.5 20.5t-20.5 53.5z" />
<glyph unicode="i" horiz-adv-x="641" d="M31 981v66q0 74 73 73h281q35 0 55.5 -19.5t20.5 -53.5v-975q0 -72 -76 -72h-102q-76 0 -76 72v835h-103q-73 0 -73 74zM207 1378v84q0 74 74 74h104q35 0 55.5 -19.5t20.5 -54.5v-84q0 -74 -76 -73h-104q-74 -1 -74 73z" />
<glyph unicode="j" horiz-adv-x="649" d="M-100 -246q0 35 20.5 54.5t54.5 19.5h17q127 0 178 63.5t51 204.5v811h-100q-35 0 -55.5 19.5t-20.5 54.5v66q0 35 20.5 54t55.5 19h280q74 0 74 -73v-945q0 -487 -500 -487q-76 0 -75 76v63zM221 1378v84q0 74 76 74h104q74 0 74 -74v-84q0 -74 -74 -73h-104 q-76 -1 -76 73z" />
<glyph unicode="k" horiz-adv-x="1196" d="M176 74v1388q0 33 20.5 53.5t53.5 20.5h104q35 0 55.5 -19.5t20.5 -54.5v-753h98l283 338q61 74 115 73h149q47 0 47 -37q0 -14 -18 -36l-371 -431l389 -542q14 -20 15 -35q0 -39 -50 -39h-155q-53 0 -107 74l-297 422h-98v-422q0 -35 -20.5 -54.5t-55.5 -19.5h-104 q-33 0 -53.5 20.5t-20.5 53.5z" />
<glyph unicode="l" horiz-adv-x="624" d="M14 1399v63q0 74 74 74h281q35 0 55 -19.5t20 -54.5v-1388q0 -35 -20.5 -54.5t-54.5 -19.5h-105q-74 0 -74 74v1249h-102q-74 0 -74 76z" />
<glyph unicode="m" horiz-adv-x="2025" d="M176 74v973q0 35 20.5 54t53.5 19h104q35 0 55.5 -19.5t20.5 -53.5v-119l62 59q154 150 337 150q225 0 289 -203h25l57 53q160 150 340 150q311 0 311 -373v-690q0 -74 -75 -74h-105q-33 0 -53.5 20.5t-20.5 53.5v651q0 104 -35.5 148.5t-107.5 44.5q-96 0 -254 -144 l-59 -53v-647q0 -33 -19.5 -53.5t-54.5 -20.5h-104q-76 0 -76 74v651q0 104 -37 148.5t-109 44.5q-94 0 -252 -144l-59 -53v-647q0 -35 -20.5 -54.5t-55.5 -19.5h-104q-33 0 -53.5 20.5t-20.5 53.5z" />
<glyph unicode="n" horiz-adv-x="1323" d="M176 74v973q0 35 20.5 54t53.5 19h104q35 0 55.5 -19.5t20.5 -53.5v-119l66 59q166 150 340 150q313 0 313 -373v-690q0 -74 -78 -74h-102q-74 0 -74 74v651q0 104 -37 148t-108 44q-18 0 -38 -4t-42 -15l-37 -18q-14 -7 -41 -27l-34 -25q-7 -5 -36 -29l-28 -25l-64 -53 v-647q0 -35 -20.5 -54.5t-55.5 -19.5h-104q-33 0 -53.5 20.5t-20.5 53.5z" />
<glyph unicode="o" horiz-adv-x="1249" d="M96 569q0 274 134.5 421t392.5 147q528 0 528 -568q0 -586 -528 -585q-527 -1 -527 585zM350 569q0 -182 62.5 -274t210 -92t210 92t62.5 274q0 178 -61.5 263.5t-211 85.5t-211 -85.5t-61.5 -263.5z" />
<glyph unicode="p" horiz-adv-x="1282" d="M176 -309v1356q0 35 20.5 54t53.5 19h104q35 0 55.5 -19.5t20.5 -53.5v-113l80 70q154 133 315 133q156 0 247 -96.5t91 -282.5v-195q0 -252 -172 -407.5t-420 -155.5h-141v-309q0 -76 -76 -76h-104q-35 0 -54.5 20.5t-19.5 55.5zM430 213h127q160 0 256 92t96 258v168 q0 102 -40 144.5t-115 42.5q-96 0 -260 -138l-64 -55v-512z" />
<glyph unicode="q" horiz-adv-x="1282" d="M117 354v201q0 145 55 256t150.5 177.5t216 99t260.5 32.5h227q74 0 74 -73v-1356q0 -76 -74 -76h-104q-74 0 -74 76v493l-27 -22l-113.5 -92t-110.5 -58.5t-146 -27.5q-154 0 -244 93t-90 277zM369 381q0 -180 153 -180q98 0 262 137l64 55v514h-127q-162 0 -257 -93 t-95 -259v-174z" />
<glyph unicode="r" horiz-adv-x="851" d="M174 111v897q0 113 76 112h104q74 0 74 -112v-93q78 106 148.5 158.5t171.5 52.5h8q74 0 73 -94v-69q0 -74 -73 -74h-25q-25 0 -46 -2t-42.5 -9.5t-36 -11.5t-35 -18l-28.5 -19.5t-29.5 -25t-27.5 -24.5l-29 -29l-29 -29v-612q0 -109 -74 -109h-104q-76 0 -76 111z" />
<glyph unicode="s" horiz-adv-x="1077" d="M115 801q0 162 133 249t354 87q117 0 240 -21q66 -10 65 -76v-82q0 -59 -59 -59q-18 0 -103.5 11.5t-146.5 11.5q-223 0 -223 -117q0 -39 21.5 -62.5t45 -32t70.5 -18.5l143 -33q145 -33 229.5 -105.5t84.5 -221.5q0 -184 -140.5 -266t-359.5 -82q-131 0 -285 26 q-37 8 -51 24.5t-14 51.5v82q0 59 57 59q14 0 23 -2q106 -27 270 -26q240 0 240 131q0 90 -140 125l-172 39q-282 67 -282 307z" />
<glyph unicode="t" horiz-adv-x="845" d="M43 981v66q0 74 74 73h98v197q0 72 78 72h102q74 0 74 -72v-197h233q35 0 54.5 -19.5t19.5 -53.5v-66q0 -35 -19.5 -54.5t-54.5 -19.5h-233v-481q0 -213 201 -213h63q76 0 76 -76v-63q0 -35 -20.5 -54.5t-55.5 -19.5h-106q-193 0 -302.5 101.5t-109.5 291.5v514h-98 q-74 0 -74 74z" />
<glyph unicode="u" horiz-adv-x="1323" d="M172 356v691q0 74 74 73h104q74 0 74 -73v-654q0 -102 36 -146t107 -44q43 0 96.5 27.5t81.5 50.5l80 65l66 53v648q0 74 74 73h102q76 0 76 -73v-973q0 -74 -76 -74h-102q-74 0 -74 74v119l-68 -62q-164 -147 -342 -147q-309 -1 -309 372z" />
<glyph unicode="v" horiz-adv-x="1122" d="M88 831v216q0 35 20.5 54t55.5 19h104q35 0 54.5 -19.5t19.5 -53.5v-216q0 -205 64.5 -383t154.5 -274q90 94 151.5 271.5t61.5 385.5v216q0 35 20.5 54t55.5 19h104q33 0 53.5 -19.5t20.5 -53.5v-216q0 -258 -113.5 -498.5t-222.5 -332.5h-282q-104 90 -213 331.5 t-109 499.5z" />
<glyph unicode="w" horiz-adv-x="1658" d="M88 831v216q0 35 20.5 54t55.5 19h104q35 0 54.5 -19.5t19.5 -53.5v-216q0 -211 51 -388t127 -269q76 92 128 270.5t52 386.5v216q0 74 74 73h105q35 0 55 -19.5t20 -53.5v-216q0 -211 51.5 -388t127.5 -269q76 92 128 270.5t52 386.5v216q0 74 73 73h105 q33 0 53.5 -19.5t20.5 -53.5v-216q0 -260 -95.5 -497.5t-197.5 -333.5h-271q-39 41 -99 151.5t-79 188.5q-18 -78 -80.5 -186.5t-103.5 -153.5h-270q-98 94 -189.5 331.5t-91.5 499.5z" />
<glyph unicode="x" horiz-adv-x="1052" d="M51 39q0 14 15 35l329 487l-315 486q-12 23 -12 34q0 39 47 39h133q53 0 104 -73l180 -281l189 281q47 74 102 73h119q47 0 47 -39q0 -12 -12 -34l-320 -474l326 -499q12 -16 12 -35q0 -39 -47 -39h-131q-57 0 -104 74l-193 295l-198 -295q-51 -74 -107 -74h-115 q-49 0 -49 39z" />
<glyph unicode="y" horiz-adv-x="1316" d="M166 432v615q0 35 19.5 54t54.5 19h106q35 0 54.5 -19.5t19.5 -53.5v-586q0 -180 151 -180q106 0 254 127l58 49v590q0 74 73 73h107q35 0 54.5 -19.5t19.5 -53.5v-897q0 -268 -157 -401.5t-437 -133.5h-189q-82 0 -82 82v51q0 35 21.5 57.5t60.5 22.5h131 q213 0 305.5 72.5t92.5 257.5v90l-76 -64q-147 -121 -307 -121q-334 0 -334 369z" />
<glyph unicode="z" horiz-adv-x="1046" d="M88 74v32q0 61 41 105q145 147 297 339.5t246 356.5h-482q-76 0 -75 74v66q0 74 73 73h707q35 0 55.5 -19.5t20.5 -53.5v-33q0 -66 -27 -113q-82 -154 -243.5 -369t-274.5 -319h485q74 0 74 -76v-63q0 -74 -74 -74h-747q-35 0 -55.5 20.5t-20.5 53.5z" />
<glyph unicode="{" horiz-adv-x="1009" d="M127 612v56q0 51 57 57q127 18 180.5 72.5t53.5 154.5v193q0 213 92 302t315 89h54q66 0 65 -63v-54q0 -63 -65 -63h-31q-106 0 -141 -43t-35 -164v-205q0 -139 -71 -207.5t-193 -95.5q125 -29 194.5 -97.5t69.5 -207.5v-207q0 -121 34.5 -163t141.5 -42h31q66 0 65 -63 v-54q0 -63 -65 -63h-54q-221 0 -314 89t-93 300v193q0 102 -52.5 155.5t-181.5 71.5q-57 6 -57 59z" />
<glyph unicode="|" horiz-adv-x="638" d="M211 -309v1898q0 74 76 74h65q74 0 74 -72v-1900q0 -76 -74 -76h-65q-76 0 -76 76z" />
<glyph unicode="}" horiz-adv-x="1009" d="M63 -139q0 63 66 63h31q106 0 141 42t35 163v207q0 139 70.5 207.5t193.5 97.5q-123 27 -193.5 95.5t-70.5 207.5v205q0 121 -35 164t-141 43h-31q-66 0 -66 63v54q0 63 66 63h53q223 0 315.5 -89t92.5 -302v-193q0 -100 53 -154.5t180 -72.5q57 -6 58 -57v-56 q0 -53 -58 -59q-129 -18 -181 -71.5t-52 -155.5v-193q0 -211 -93.5 -300t-314.5 -89h-53q-66 0 -66 63v54z" />
<glyph unicode="~" d="M193 604v78q0 63 73 119q78 57 166 57q76 0 223.5 -67.5t200.5 -67.5q106 0 158 55q27 27 47 27q27 0 26 -47v-72q0 -59 -73 -119q-72 -57 -166 -57q-76 0 -223.5 67.5t-200.5 67.5q-96 0 -158 -61q-29 -27 -49 -27q-24 0 -24 47z" />
<glyph unicode="&#xa1;" horiz-adv-x="610" d="M176 1354v110q0 72 94 72h66q94 0 94 -72v-110q0 -74 -94 -74h-66q-94 0 -94 74zM178 70l21 929q0 66 67 66h74q66 0 66 -66l22 -925q2 -33 -18.5 -53.5t-55.5 -20.5h-102q-35 0 -54.5 18.5t-19.5 51.5z" />
<glyph unicode="&#xa2;" d="M90 678v180q0 291 159 469t437 215v160q0 74 74 74h53q76 0 76 -74v-150q117 -6 237 -39q74 -20 74 -86v-73q0 -63 -51 -64q-14 0 -23 2q-152 37 -323 37q-207 0 -325 -115.5t-118 -349.5v-186q0 -223 106.5 -347t309.5 -124h96q113 0 254 43q20 4 25 4q49 0 49 -59v-76 q0 -68 -74 -90q-127 -43 -231 -45v-166q0 -74 -74 -74h-51q-35 0 -55.5 19.5t-20.5 54.5v170q-297 20 -450.5 203.5t-153.5 486.5z" />
<glyph unicode="&#xa3;" d="M121 74v73q0 74 76 74h26q127 98 127 318v147h-104q-35 0 -55.5 19.5t-20.5 54.5v76q0 72 76 71h104v111q0 246 145.5 382t399.5 136h172q35 0 55.5 -19.5t20.5 -54.5v-73q0 -74 -76 -74h-172q-283 0 -283 -297v-111h344q76 0 76 -71v-76q0 -35 -20.5 -54.5t-55.5 -19.5 h-344v-147q0 -223 -127 -318h582q76 0 76 -74v-73q0 -35 -20.5 -54.5t-55.5 -19.5h-870q-76 0 -76 74z" />
<glyph unicode="&#xa4;" horiz-adv-x="1024" d="M57 1071l93 94l139 -155q98 84 235 84h2q143 0 236 -82l145 153l92 -94l-161 -145q72 -96 71 -242q0 -156 -71 -250l153 -151l-90 -90l-141 155q-92 -86 -240 -86q-145 0 -233 82l-137 -151l-89 90l148 143q-76 102 -76 248q0 150 80 252zM279 676q0 -137 74.5 -211 t166.5 -74q98 0 171 73t73 218q0 115 -64.5 199t-177.5 84h-2q-109 0 -175 -83t-66 -206z" />
<glyph unicode="&#xa5;" d="M53 1495q0 41 60 41h133q57 0 100 -74l305 -567l305 567q41 74 99 74h112q59 0 60 -43q0 -10 -10 -31l-449 -780v-127h305q76 0 76 -74v-75q0 -35 -20.5 -54.5t-55.5 -19.5h-305v-258q0 -33 -19.5 -53.5t-54.5 -20.5h-114q-74 0 -74 74v258h-305q-76 0 -76 74v75 q0 74 76 74h305v127l-443 780q-10 17 -10 33z" />
<glyph unicode="&#xa6;" horiz-adv-x="638" d="M211 -309v684q0 74 76 74h65q74 0 74 -74v-684q0 -76 -74 -76h-65q-76 0 -76 76zM211 905v684q0 74 76 74h65q74 0 74 -74v-684q0 -74 -74 -74h-65q-76 0 -76 74z" />
<glyph unicode="&#xa7;" horiz-adv-x="1097" d="M82 -236q0 74 74 74h325q182 0 183 142q0 117 -123 188l-353 213q-76 47 -75 98v109q0 59 41 59q10 0 34 -10l478 -277q266 -154 266 -389q0 -166 -132 -261t-323 -95h-321q-35 0 -54.5 20.5t-19.5 55.5v73zM201 1180q0 166 133 261t321 95h324q33 0 53.5 -20.5 t20.5 -53.5v-73q0 -74 -74 -74h-328q-182 0 -182 -144q0 -63 29.5 -105t95.5 -83l352 -211q74 -47 74 -100v-109q0 -59 -39 -59q-14 0 -35 12l-477 277q-125 72 -196.5 163t-71.5 224z" />
<glyph unicode="&#xa8;" horiz-adv-x="784" d="M0 1317v82q0 74 74 74h106q33 0 53.5 -19.5t20.5 -54.5v-82q0 -35 -19.5 -55.5t-54.5 -20.5h-106q-74 0 -74 76zM530 1317v82q0 74 74 74h107q35 0 54 -19.5t19 -54.5v-82q0 -35 -19.5 -55.5t-53.5 -20.5h-107q-74 0 -74 76z" />
<glyph unicode="&#xa9;" horiz-adv-x="1777" d="M96 784.5q0 331.5 227.5 541.5t567.5 210t565 -210t225 -541.5t-225 -541.5t-565 -210t-567.5 210t-227.5 541.5zM248 784.5q0 -276.5 175 -452.5t468 -176q291 0 464 175t173 453q0 276 -173 451.5t-464 175.5q-293 0 -468 -175t-175 -451.5zM487 784q0 145 71 241.5 t175.5 135.5t235.5 39q70 0 155 -22q39 -12 39 -45v-25q0 -35 -22 -35q-10 0 -17 2q-86 23 -155 23q-135 0 -219 -79t-84 -234.5t85 -235.5t220 -80q72 0 153 20q6 2 17 3q23 0 22 -33v-25q0 -35 -39 -47q-88 -18 -153 -18q-207 0 -345.5 101t-138.5 314z" />
<glyph unicode="&#xaa;" horiz-adv-x="1054" d="M90 952v150q0 195 148.5 314.5t361.5 119.5h277q29 0 46 -15.5t17 -39.5v-752q0 -25 -17.5 -40t-45.5 -15h-93q-61 0 -61 55v88l-72 -53q-131 -102 -270 -102q-133 0 -212 73.5t-79 216.5zM307 973q0 -143 133 -144q82 0 226 107l57 43v395h-111q-139 0 -222 -72.5 t-83 -199.5v-129z" />
<glyph unicode="&#xab;" horiz-adv-x="1200" d="M127 657v64q0 49 76 108l299 246q25 18 41 19q33 0 32 -52v-86q0 -33 -16 -55t-57 -55l-193 -158l193 -156q74 -57 73 -110v-86q0 -53 -34 -53q-12 0 -39 16l-299 248q-76 59 -76 110zM639 657v64q0 49 76 108l299 246q25 18 41 19q33 0 32 -52v-86q0 -33 -16 -55 t-57 -55l-193 -158l193 -156q74 -57 73 -110v-86q0 -53 -34 -53q-12 0 -39 16l-299 248q-76 59 -76 110z" />
<glyph unicode="&#xac;" d="M193 721v63q0 74 73 74h748q74 0 73 -74v-405q0 -76 -73 -76h-68q-74 0 -74 76v266h-606q-73 0 -73 76z" />
<glyph unicode="&#xad;" horiz-adv-x="831" d="M100 721v63q0 74 74 74h483q74 0 74 -74v-63q0 -76 -74 -76h-481q-76 0 -76 76z" />
<glyph unicode="&#xae;" horiz-adv-x="1777" d="M96 784.5q0 331.5 227.5 541.5t567.5 210t565 -210t225 -541.5t-225 -541.5t-565 -210t-567.5 210t-227.5 541.5zM248 784.5q0 -276.5 175 -452.5t468 -176q291 0 464 175t173 453q0 276 -173 451.5t-464 175.5q-293 0 -468 -175t-175 -451.5zM575 422v725q0 53 58 53 h229q340 0 340 -256q0 -84 -45 -146.5t-123 -84.5l170 -291q8 -14 8 -25q0 -29 -43 -28h-84q-45 0 -75 53l-127 229h-129v-229q0 -53 -56 -53h-65q-58 0 -58 53zM754 758h98q74 0 123 47t49 139q0 78 -48 116t-124 38h-98v-340z" />
<glyph unicode="&#xaf;" horiz-adv-x="620" d="M0 1354v24q0 74 74 74h473q35 0 54.5 -19.5t19.5 -54.5v-24q0 -35 -19.5 -54.5t-54.5 -19.5h-473q-74 0 -74 74z" />
<glyph unicode="&#x2c9;" horiz-adv-x="620" d="M0 1354v24q0 74 74 74h473q35 0 54.5 -19.5t19.5 -54.5v-24q0 -35 -19.5 -54.5t-54.5 -19.5h-473q-74 0 -74 74z" />
<glyph unicode="&#xb0;" horiz-adv-x="1001" d="M137 1100q0 233 89 339.5t278 106.5q186 0 275 -106.5t89 -339.5q0 -229 -90 -337t-274 -108q-186 0 -276.5 108t-90.5 337zM338 1100q0 -160 36 -225.5t130 -65.5q92 0 127 63.5t35 227.5q0 168 -34 230.5t-128 62.5t-130 -62.5t-36 -230.5z" />
<glyph unicode="&#xb1;" d="M193 -74q0 74 73 74h748q74 0 73 -74v-63q0 -76 -73 -76h-748q-74 0 -73 76v63zM193 721v63q0 74 73 74h266v268q0 74 74 74h68q74 0 74 -74v-268h266q74 0 73 -74v-63q0 -76 -73 -76h-266v-266q0 -76 -74 -76h-68q-74 0 -74 76v266h-266q-73 0 -73 76z" />
<glyph unicode="&#xb2;" horiz-adv-x="843" d="M90 721v78q0 178 199 280l121 66q41 20 64.5 35.5t43 43t19.5 60.5q0 57 -38 78.5t-116 21.5h-205q-66 0 -65 56v41q0 55 65 55h232q326 0 325 -250q0 -92 -56 -151.5t-167 -114.5l-115 -57q-102 -53 -102 -148h391q66 0 66 -55v-39q0 -57 -66 -57h-534q-62 0 -62 57z " />
<glyph unicode="&#xb3;" horiz-adv-x="843" d="M115 721v39q0 55 61 55h223q78 0 124 31t46 92q0 106 -163 106h-123q-66 0 -66 54v32q0 55 64 56h174q96 51 96 112q0 47 -38 64.5t-114 17.5h-217q-63 0 -63 56v45q0 55 63 55h232q338 0 338 -209q0 -109 -109 -178q127 -66 127 -211q0 -131 -99.5 -202.5t-260.5 -71.5 h-232q-63 0 -63 57z" />
<glyph unicode="&#xb4;" horiz-adv-x="446" d="M0 1319q0 14 14 35l119 172q51 74 107 73h153q53 0 53 -28q0 -18 -28 -45l-189 -172l-18 -17.5t-18.5 -17.5l-15.5 -13.5t-17 -11.5t-15.5 -7t-17.5 -6t-18 -1h-54q-55 0 -55 39z" />
<glyph unicode="&#xb5;" horiz-adv-x="1323" d="M170 -309v1356q0 35 19.5 54t54.5 19h106q35 0 54.5 -19.5t19.5 -53.5v-664q0 -182 182 -182q90 0 221 121l66 61v664q0 74 74 73h102q35 0 55.5 -19.5t20.5 -53.5v-744q0 -135 29 -229q4 -16 4 -23q0 -23 -17.5 -37t-46.5 -14h-106q-66 0 -88 74q-14 43 -21 102l-74 -74 q-102 -102 -262 -102q-90 0 -139 29v-338q0 -35 -19.5 -55.5t-54.5 -20.5h-106q-35 0 -54.5 20.5t-19.5 55.5z" />
<glyph unicode="&#x3bc;" horiz-adv-x="1323" d="M170 -309v1356q0 35 19.5 54t54.5 19h106q35 0 54.5 -19.5t19.5 -53.5v-664q0 -182 182 -182q90 0 221 121l66 61v664q0 74 74 73h102q35 0 55.5 -19.5t20.5 -53.5v-744q0 -135 29 -229q4 -16 4 -23q0 -23 -17.5 -37t-46.5 -14h-106q-66 0 -88 74q-14 43 -21 102l-74 -74 q-102 -102 -262 -102q-90 0 -139 29v-338q0 -35 -19.5 -55.5t-54.5 -20.5h-106q-35 0 -54.5 20.5t-19.5 55.5z" />
<glyph unicode="&#xb6;" horiz-adv-x="1607" d="M63 960.5q0 276.5 163 426t415 149.5h305q35 0 55.5 -19.5t20.5 -54.5v-1771q0 -76 -76 -76h-104q-35 0 -54.5 20.5t-19.5 55.5v692h-127q-252 0 -415 150.5t-163 427zM1176 1462q0 33 20.5 53.5t52.5 20.5h107q74 0 74 -74v-1771q0 -76 -74 -76h-107q-35 0 -54 20.5 t-19 55.5v1771z" />
<glyph unicode="&#xb7;" horiz-adv-x="610" d="M174 682v109q0 74 74 73h114q35 0 54.5 -20.5t19.5 -52.5v-109q0 -35 -19.5 -54.5t-54.5 -19.5h-114q-74 0 -74 74z" />
<glyph unicode="&#x2219;" horiz-adv-x="610" d="M174 682v109q0 74 74 73h114q35 0 54.5 -20.5t19.5 -52.5v-109q0 -35 -19.5 -54.5t-54.5 -19.5h-114q-74 0 -74 74z" />
<glyph unicode="&#xb8;" horiz-adv-x="462" d="M0 -313q0 53 57 53h136q111 0 110 70q0 66 -102 118v25h133q55 -25 92 -73t37 -95q0 -86 -63.5 -128t-161.5 -42h-181q-57 0 -57 53v19z" />
<glyph unicode="&#xb9;" horiz-adv-x="843" d="M109 1323v49q0 45 55 66l250 88q35 10 65 10h35q63 0 64 -55v-760q0 -57 -64 -57h-72q-63 0 -63 57v622l-203 -67q-16 -4 -24 -4q-43 0 -43 51z" />
<glyph unicode="&#xba;" horiz-adv-x="1024" d="M61 1112q0 211 116 323.5t337 112.5q455 0 455 -436q0 -451 -455 -450q-453 -1 -453 450zM281 1112q0 -139 54 -211t179 -72q127 0 181.5 72t54.5 211q0 137 -53.5 202.5t-182.5 65.5q-127 0 -180 -65.5t-53 -202.5z" />
<glyph unicode="&#xbb;" horiz-adv-x="1200" d="M113 336v86q0 53 73 110l193 156l-193 158q-41 33 -57 55.5t-16 54.5v86q0 51 32 52q16 0 41 -19l299 -246q74 -57 74 -108v-64q0 -53 -74 -110l-299 -248q-27 -16 -39 -16q-34 0 -34 53zM625 336v86q0 53 73 110l193 156l-193 158q-41 33 -57 55.5t-16 54.5v86 q0 51 32 52q16 0 41 -19l299 -246q74 -57 74 -108v-64q0 -53 -74 -110l-299 -248q-27 -16 -39 -16q-34 0 -34 53z" />
<glyph unicode="&#xbc;" horiz-adv-x="2004" d="M162 1323v49q0 45 55 66l252 88q31 10 66 10h32q66 0 66 -55v-760q0 -57 -66 -57h-71q-63 0 -64 57v622l-203 -67q-16 -4 -22 -4q-45 0 -45 51zM567 35q0 4 8 24l703 1418q33 59 82 59h26q49 0 50 -37q0 -10 -6 -22l-705 -1418q-29 -59 -80 -59h-24q-54 0 -54 35z M1155 225v27q0 37 14 51q133 184 201 516q10 53 68 53h82q59 0 59 -47q0 -18 -10 -63q-61 -231 -195 -443h213v154q0 55 68 55h71q63 0 64 -55v-154h45q63 0 63 -55v-39q0 -25 -17 -40t-46 -15h-45v-115q0 -25 -17.5 -40t-46.5 -15h-71q-31 0 -49.5 15.5t-18.5 39.5v115 h-368q-29 0 -46.5 15t-17.5 40z" />
<glyph unicode="&#xbd;" horiz-adv-x="2004" d="M162 1323v49q0 45 55 66l252 88q31 10 66 10h32q66 0 66 -55v-760q0 -57 -66 -57h-71q-63 0 -64 57v622l-203 -67q-16 -4 -22 -4q-45 0 -45 51zM567 35q0 4 8 24l703 1418q33 59 82 59h26q49 0 50 -37q0 -10 -6 -22l-705 -1418q-29 -59 -80 -59h-24q-54 0 -54 35z M1212 55v78q0 178 197 283l123 63q43 23 65.5 38t42 43t19.5 61q0 57 -38 78.5t-118 21.5h-203q-66 0 -65 55v39q0 57 65 57h232q326 0 326 -249q0 -92 -56.5 -151.5t-167.5 -115.5l-114 -57q-45 -25 -84 -67t-39 -64q0 -16 18 -16h393q66 0 66 -56v-41q0 -55 -66 -55h-534 q-62 0 -62 55z" />
<glyph unicode="&#xbe;" horiz-adv-x="2004" d="M115 721v39q0 55 61 55h223q78 0 124 31t46 92q0 106 -163 106h-123q-66 0 -66 54v32q0 55 64 56h174q96 51 96 112q0 47 -38 64.5t-114 17.5h-217q-63 0 -63 56v45q0 55 63 55h232q338 0 338 -209q0 -109 -109 -178q127 -66 127 -211q0 -131 -99.5 -202.5t-260.5 -71.5 h-232q-63 0 -63 57zM567 35q0 4 8 24l703 1418q33 59 82 59h26q49 0 50 -37q0 -10 -6 -22l-705 -1418q-29 -59 -80 -59h-24q-54 0 -54 35zM1147 225v27q0 35 12 51q133 184 201 516q10 53 67 53h82q61 0 62 -47q0 -33 -27 -112q-63 -203 -180 -394h215v154q0 55 66 55h71 q63 0 64 -55v-154h47q61 0 61 -55v-39q0 -25 -17.5 -40t-43.5 -15h-47v-115q0 -25 -17.5 -40t-46.5 -15h-71q-66 0 -66 55v115h-371q-61 0 -61 55z" />
<glyph unicode="&#xbf;" horiz-adv-x="966" d="M61 352q0 160 185 379l203 238v51q0 80 81 80h91q37 0 58 -21.5t21 -58.5v-29q0 -27 -16 -49l-223 -264q-145 -172 -146 -299q0 -162 240 -162h199q80 0 80 -80v-57q0 -37 -21.5 -58.5t-58.5 -21.5h-273q-420 0 -420 352zM449 1360v96q0 80 81 80h91q37 0 58 -21.5 t21 -58.5v-96q0 -35 -21.5 -57.5t-57.5 -22.5h-91q-39 0 -60 21.5t-21 58.5z" />
<glyph unicode="&#xc0;" horiz-adv-x="1445" d="M66 51q0 12 2 21q53 217 161 583q68 229 172.5 505t157.5 376h334q53 -100 157.5 -375.5t172.5 -505.5q109 -369 159 -583q2 -8 2 -21q0 -51 -65 -51h-133q-66 0 -82 72q-20 90 -72 288h-629l-69 -288q-20 -72 -84 -72h-119q-65 0 -65 51zM465 582h508q-2 6 -5 20t-5 21 q-133 485 -240 704q-104 -213 -246 -704q-8 -29 -12 -41zM469 1987q0 29 51 28h156q55 0 104 -73l121 -173q14 -20 14 -34q0 -39 -57 -39h-51q-12 0 -23 3l-17 5q-7 2 -21 12l-17 14q-4 3 -21.5 19t-23.5 20l-186 173q-29 27 -29 45z" />
<glyph unicode="&#xc1;" horiz-adv-x="1445" d="M66 51q0 12 2 21q53 217 161 583q68 229 172.5 505t157.5 376h334q53 -100 157.5 -375.5t172.5 -505.5q109 -369 159 -583q2 -8 2 -21q0 -51 -65 -51h-133q-66 0 -82 72q-20 90 -72 288h-629l-69 -288q-20 -72 -84 -72h-119q-65 0 -65 51zM465 582h508q-2 6 -5 20t-5 21 q-133 485 -240 704q-104 -213 -246 -704q-8 -29 -12 -41zM532 1735q0 14 15 34l119 173q51 74 106 73h154q53 0 53 -28q0 -18 -29 -45l-188 -173q-4 -4 -18.5 -17t-18.5 -17t-15.5 -13.5t-17.5 -11.5t-15 -7t-17.5 -6t-18.5 -1h-53q-56 0 -56 39z" />
<glyph unicode="&#xc2;" horiz-adv-x="1445" d="M66 51q0 12 2 21q53 217 161 583q68 229 172.5 505t157.5 376h334q53 -100 157.5 -375.5t172.5 -505.5q109 -369 159 -583q2 -8 2 -21q0 -51 -65 -51h-133q-66 0 -82 72q-20 90 -72 288h-629l-69 -288q-20 -72 -84 -72h-119q-65 0 -65 51zM346 1729q0 14 23 40l168 191 q63 74 112 74h152q49 0 112 -74l166 -191q20 -23 21 -38q0 -35 -53 -35h-56q-43 0 -121 73l-147 142l-148 -142l-44 -40q-13 -12 -34.5 -22.5t-41.5 -10.5h-56q-53 0 -53 33zM465 582h508q-2 6 -5 20t-5 21q-133 485 -240 704q-104 -213 -246 -704q-8 -29 -12 -41z" />
<glyph unicode="&#xc3;" horiz-adv-x="1445" d="M66 51q0 12 2 21q53 217 161 583q68 229 172.5 505t157.5 376h334q53 -100 157.5 -375.5t172.5 -505.5q109 -369 159 -583q2 -8 2 -21q0 -51 -65 -51h-133q-66 0 -82 72q-20 90 -72 288h-629l-69 -288q-20 -72 -84 -72h-119q-65 0 -65 51zM371 1784v35q0 53 73 123 q57 53 127 53q59 0 161 -73t134 -73q72 0 135 72q29 37 50 37q25 0 24 -47v-31q0 -57 -74 -125q-72 -59 -135 -59q-57 0 -158.5 73.5t-136.5 73.5q-72 0 -127 -69q-29 -35 -49 -35q-24 0 -24 45zM465 582h508q-2 6 -5 20t-5 21q-133 485 -240 704q-104 -213 -246 -704 q-8 -29 -12 -41z" />
<glyph unicode="&#xc4;" horiz-adv-x="1445" d="M66 51q0 12 2 21q53 217 161 583q68 229 172.5 505t157.5 376h334q53 -100 157.5 -375.5t172.5 -505.5q109 -369 159 -583q2 -8 2 -21q0 -51 -65 -51h-133q-66 0 -82 72q-20 90 -72 288h-629l-69 -288q-20 -72 -84 -72h-119q-65 0 -65 51zM330 1733v82q0 74 73 73h107 q35 0 54.5 -20.5t19.5 -52.5v-82q0 -35 -19.5 -55.5t-54.5 -20.5h-107q-73 0 -73 76zM465 582h508q-2 6 -5 20t-5 21q-133 485 -240 704q-104 -213 -246 -704q-8 -29 -12 -41zM860 1733v82q0 74 74 73h106q33 0 53.5 -20.5t20.5 -52.5v-82q0 -35 -19.5 -55.5t-54.5 -20.5 h-106q-74 0 -74 76z" />
<glyph unicode="&#xc5;" horiz-adv-x="1445" d="M66 51q0 12 2 21q53 217 161 583q68 229 172.5 505t157.5 376h334q53 -100 157.5 -375.5t172.5 -505.5q109 -369 159 -583q2 -8 2 -21q0 -51 -65 -51h-133q-66 0 -82 72q-20 90 -72 288h-629l-69 -288q-20 -72 -84 -72h-119q-65 0 -65 51zM465 582h508q-2 6 -5 20t-5 21 q-133 485 -240 704q-104 -213 -246 -704q-8 -29 -12 -41zM469 1905q0 92 67.5 149t186.5 57t185.5 -56t66.5 -150.5t-67.5 -151.5t-184.5 -57q-119 0 -186.5 56.5t-67.5 152.5zM588 1904.5q0 -53.5 33.5 -91t101.5 -37.5t101.5 37.5t33.5 91t-33.5 90.5t-101.5 37 t-101.5 -37t-33.5 -90.5z" />
<glyph unicode="&#xc6;" horiz-adv-x="1914" d="M68 51q0 12 2 21q55 229 161 583q68 231 172.5 507t155.5 374h1139q74 0 74 -74v-73q0 -76 -74 -76h-584v-402h520q35 0 54.5 -20.5t19.5 -54.5v-74q0 -74 -74 -74h-520v-256q0 -111 45 -160t144 -49h409q74 0 74 -73v-74q0 -35 -19.5 -55.5t-54.5 -20.5h-459 q-371 0 -399 360h-448q-66 -260 -72 -288q-20 -72 -84 -72h-119q-63 0 -63 51zM469 584h383v735h-131q-109 -227 -252 -735z" />
<glyph unicode="&#xc7;" horiz-adv-x="1339" d="M98 678v180q0 330 204 512t546 182q215 0 389 -67v-314q0 -74 -78 -73h-90q-74 0 -74 73v138q-63 20 -180 20q-207 0 -326.5 -115.5t-119.5 -349.5v-186q0 -221 113.5 -346t316.5 -125h96q121 0 264 43q10 4 31 4q47 0 47 -53v-80q0 -72 -63 -86q-172 -51 -279 -51h-96 q-340 0 -520.5 185t-180.5 509zM551 -313q0 53 57 53h135q111 0 111 70q0 66 -102 118v25h133q55 -25 92 -73t37 -95q0 -86 -63.5 -128t-162.5 -42h-180q-57 0 -57 53v19z" />
<glyph unicode="&#xc8;" horiz-adv-x="1239" d="M178 416v1046q0 33 19.5 53.5t54.5 20.5h772q33 0 53.5 -20.5t20.5 -53.5v-73q0 -74 -74 -74h-584v-408h521q74 0 73 -71v-76q0 -35 -19.5 -54.5t-53.5 -19.5h-521v-254q0 -111 45 -161t144 -50h409q74 0 74 -74v-73q0 -33 -19.5 -53.5t-54.5 -20.5h-458q-402 0 -402 416 zM365 1987q0 29 51 28h155q55 0 105 -73l121 -173q14 -20 14 -34q0 -39 -57 -39h-52q-12 0 -22 3l-17 5q-7 2 -21 12l-17 14q-4 3 -21.5 19t-23.5 20l-187 173q-28 27 -28 45z" />
<glyph unicode="&#xc9;" horiz-adv-x="1239" d="M178 416v1046q0 33 19.5 53.5t54.5 20.5h772q33 0 53.5 -20.5t20.5 -53.5v-73q0 -74 -74 -74h-584v-408h521q74 0 73 -71v-76q0 -35 -19.5 -54.5t-53.5 -19.5h-521v-254q0 -111 45 -161t144 -50h409q74 0 74 -74v-73q0 -33 -19.5 -53.5t-54.5 -20.5h-458q-402 0 -402 416 zM444 1735q0 14 15 34l119 173q53 74 106 73h154q53 0 53 -28q0 -18 -29 -45l-188 -173q-4 -4 -18.5 -17t-18.5 -17t-15.5 -13.5t-17.5 -11.5t-15 -7t-17.5 -6t-18.5 -1h-53q-56 0 -56 39z" />
<glyph unicode="&#xca;" horiz-adv-x="1239" d="M178 416v1046q0 33 19.5 53.5t54.5 20.5h772q33 0 53.5 -20.5t20.5 -53.5v-73q0 -74 -74 -74h-584v-408h521q74 0 73 -71v-76q0 -35 -19.5 -54.5t-53.5 -19.5h-521v-254q0 -111 45 -161t144 -50h409q74 0 74 -74v-73q0 -33 -19.5 -53.5t-54.5 -20.5h-458q-402 0 -402 416 zM258 1729q0 14 23 40l168 191q63 74 112 74h152q49 0 112 -74l166 -191q20 -23 21 -38q0 -35 -54 -35h-55q-43 0 -121 73l-147 142l-148 -142l-44 -40q-13 -12 -34.5 -22.5t-41.5 -10.5h-56q-53 0 -53 33z" />
<glyph unicode="&#xcb;" horiz-adv-x="1239" d="M178 416v1046q0 33 19.5 53.5t54.5 20.5h772q33 0 53.5 -20.5t20.5 -53.5v-73q0 -74 -74 -74h-584v-408h521q74 0 73 -71v-76q0 -35 -19.5 -54.5t-53.5 -19.5h-521v-254q0 -111 45 -161t144 -50h409q74 0 74 -74v-73q0 -33 -19.5 -53.5t-54.5 -20.5h-458q-402 0 -402 416 zM236 1733v82q0 74 73 73h107q35 0 54 -20.5t19 -52.5v-82q0 -35 -19 -55.5t-54 -20.5h-107q-73 0 -73 76zM766 1733v82q0 74 74 73h106q33 0 53.5 -20.5t20.5 -52.5v-82q0 -35 -19.5 -55.5t-54.5 -20.5h-106q-74 0 -74 76z" />
<glyph unicode="&#xcc;" horiz-adv-x="618" d="M53 1987q0 29 51 28h156q55 0 105 -73l120 -173q14 -20 15 -34q0 -39 -58 -39h-51q-12 0 -22 3l-18 5q-7 2 -20 12l-18 14q-4 3 -21.5 19t-23.5 20l-186 173q-29 27 -29 45zM178 74v1388q0 33 19.5 53.5t54.5 20.5h115q35 0 54 -20.5t19 -53.5v-1388q0 -33 -19.5 -53.5 t-53.5 -20.5h-115q-35 0 -54.5 20.5t-19.5 53.5z" />
<glyph unicode="&#xcd;" horiz-adv-x="618" d="M119 1735q0 14 14 34l119 173q51 74 106 73h154q53 0 53 -28q0 -18 -28 -45l-189 -173q-4 -4 -18.5 -17t-18.5 -17t-15 -13.5t-17.5 -11.5t-15.5 -7t-17 -6t-19 -1h-53q-55 0 -55 39zM178 74v1388q0 33 19.5 53.5t54.5 20.5h115q35 0 54 -20.5t19 -53.5v-1388 q0 -33 -19.5 -53.5t-53.5 -20.5h-115q-35 0 -54.5 20.5t-19.5 53.5z" />
<glyph unicode="&#xce;" horiz-adv-x="618" d="M-68 1729q0 14 23 40l168 191q63 74 113 74h151q49 0 113 -74l166 -191q20 -23 20 -38q0 -35 -53 -35h-55q-43 0 -121 73l-148 142l-147 -142l-44 -40q-13 -12 -35 -22.5t-42 -10.5h-55q-54 0 -54 33zM178 74v1388q0 33 19.5 53.5t54.5 20.5h115q35 0 54 -20.5t19 -53.5 v-1388q0 -33 -19.5 -53.5t-53.5 -20.5h-115q-35 0 -54.5 20.5t-19.5 53.5z" />
<glyph unicode="&#xcf;" horiz-adv-x="618" d="M-82 1733v82q0 74 74 73h106q33 0 53.5 -20.5t20.5 -52.5v-82q0 -35 -19.5 -55.5t-54.5 -20.5h-106q-74 0 -74 76zM178 74v1388q0 33 19.5 53.5t54.5 20.5h115q35 0 54 -20.5t19 -53.5v-1388q0 -33 -19.5 -53.5t-53.5 -20.5h-115q-35 0 -54.5 20.5t-19.5 53.5zM449 1733 v82q0 74 73 73h107q35 0 54 -20.5t19 -52.5v-82q0 -35 -19 -55.5t-54 -20.5h-107q-73 0 -73 76z" />
<glyph unicode="&#xd0;" horiz-adv-x="1497" d="M63 770v53q0 74 74 74h41v565q0 33 19.5 53.5t54.5 20.5h434q352 0 529.5 -167t177.5 -478v-213q0 -315 -169 -496.5t-519 -181.5h-453q-35 0 -54.5 20.5t-19.5 53.5v622h-41q-35 0 -54.5 20.5t-19.5 53.5zM440 221h265q418 0 417 471v187q0 436 -436 436h-246v-418h160 q74 0 74 -74v-53q0 -33 -19.5 -53.5t-54.5 -20.5h-160v-475z" />
<glyph unicode="&#xd1;" horiz-adv-x="1550" d="M176 72v1390q0 35 20.5 54.5t55.5 19.5h86q49 0 82 -43l688 -1004v973q0 35 20.5 54.5t55.5 19.5h112q35 0 55.5 -19.5t20.5 -54.5v-1390q0 -72 -76 -72h-86q-55 0 -82 43l-688 1008v-979q0 -72 -75 -72h-113q-76 0 -76 72zM422 1784v35q0 53 74 123q57 53 127 53 q59 0 160.5 -73t134.5 -73q72 0 135 72q29 37 49 37q25 0 24 -47v-31q0 -57 -73 -125q-72 -59 -135 -59q-57 0 -159 73.5t-136 73.5q-72 0 -127 -69q-29 -35 -50 -35q-24 0 -24 45z" />
<glyph unicode="&#xd2;" horiz-adv-x="1531" d="M98 721v100q0 348 171 539.5t497 191.5q328 0 498 -188t170 -543v-100q0 -350 -171 -543.5t-497 -193.5q-328 0 -498 191.5t-170 545.5zM369 721q0 -258 94 -386t303 -128t303 128t94 386v100q0 256 -94 382t-303 126t-303 -126t-94 -382v-100zM510 1987q0 29 51 28h156 q55 0 104 -73l121 -173q14 -20 14 -34q0 -39 -57 -39h-51q-12 0 -23 3l-17 5q-7 2 -21 12l-17 14q-4 3 -21.5 19t-23.5 20l-186 173q-29 27 -29 45z" />
<glyph unicode="&#xd3;" horiz-adv-x="1531" d="M98 721v100q0 348 171 539.5t497 191.5q328 0 498 -188t170 -543v-100q0 -350 -171 -543.5t-497 -193.5q-328 0 -498 191.5t-170 545.5zM369 721q0 -258 94 -386t303 -128t303 128t94 386v100q0 256 -94 382t-303 126t-303 -126t-94 -382v-100zM573 1735q0 14 15 34 l119 173q51 74 106 73h154q53 0 53 -28q0 -18 -29 -45l-188 -173q-4 -4 -18.5 -17t-18.5 -17t-15.5 -13.5t-17.5 -11.5t-15 -7t-17.5 -6t-18.5 -1h-53q-56 0 -56 39z" />
<glyph unicode="&#xd4;" horiz-adv-x="1531" d="M98 721v100q0 348 171 539.5t497 191.5q328 0 498 -188t170 -543v-100q0 -350 -171 -543.5t-497 -193.5q-328 0 -498 191.5t-170 545.5zM369 721q0 -258 94 -386t303 -128t303 128t94 386v100q0 256 -94 382t-303 126t-303 -126t-94 -382v-100zM387 1729q0 14 23 40 l168 191q63 74 112 74h152q49 0 112 -74l166 -191q20 -23 21 -38q0 -35 -54 -35h-55q-43 0 -121 73l-147 142l-148 -142l-44 -40q-13 -12 -34.5 -22.5t-41.5 -10.5h-56q-53 0 -53 33z" />
<glyph unicode="&#xd5;" horiz-adv-x="1531" d="M98 721v100q0 348 171 539.5t497 191.5q328 0 498 -188t170 -543v-100q0 -350 -171 -543.5t-497 -193.5q-328 0 -498 191.5t-170 545.5zM369 721q0 -258 94 -386t303 -128t303 128t94 386v100q0 256 -94 382t-303 126t-303 -126t-94 -382v-100zM414 1784v35q0 53 73 123 q57 53 127 53q59 0 161 -73t134 -73q72 0 135 72q29 37 50 37q25 0 24 -47v-31q0 -57 -74 -125q-72 -59 -135 -59q-57 0 -158.5 73.5t-136.5 73.5q-72 0 -127 -69q-29 -35 -49 -35q-24 0 -24 45z" />
<glyph unicode="&#xd6;" horiz-adv-x="1531" d="M98 721v100q0 348 171 539.5t497 191.5q328 0 498 -188t170 -543v-100q0 -350 -171 -543.5t-497 -193.5q-328 0 -498 191.5t-170 545.5zM369 721q0 -258 94 -386t303 -128t303 128t94 386v100q0 256 -94 382t-303 126t-303 -126t-94 -382v-100zM375 1733v82q0 74 74 73 h106q35 0 54.5 -20.5t19.5 -52.5v-82q0 -35 -19.5 -55.5t-54.5 -20.5h-106q-74 0 -74 76zM905 1733v82q0 74 74 73h106q33 0 53.5 -20.5t20.5 -52.5v-82q0 -35 -19.5 -55.5t-54.5 -20.5h-106q-74 0 -74 76z" />
<glyph unicode="&#xd7;" d="M274 510q0 27 25 51l188 191l-188 190q-25 25 -25 51.5t25 53.5l47 45q27 27 53 26q25 0 56 -26l184 -189l186 189q27 27 56 26q23 0 53 -26l47 -45q25 -31 25 -53.5t-25 -51.5l-190 -190l190 -191q25 -29 25 -51q0 -27 -25 -51l-47 -47q-27 -27 -53 -27q-31 0 -56 27 l-186 186l-184 -186q-27 -27 -55.5 -27t-53.5 27l-47 47q-25 20 -25 51z" />
<glyph unicode="&#xd8;" horiz-adv-x="1531" d="M98 721v100q0 348 171 539.5t497 191.5q266 0 436 -135l43 56q49 63 96 63h27q47 0 47 -33q0 -12 -12 -30l-113 -142q143 -182 144 -510v-100q0 -350 -171 -543.5t-497 -193.5q-270 0 -436 135l-41 -56q-49 -63 -96 -63h-29q-47 0 -47 33q0 12 12 30l113 144 q-144 182 -144 514zM369 721q0 -190 47 -303l631 811q-98 100 -281 100q-209 0 -303 -126t-94 -382v-100zM485 307q98 -100 281 -100q209 0 303 128t94 386v100q0 188 -47 297z" />
<glyph unicode="&#xd9;" horiz-adv-x="1513" d="M168 541v921q0 35 20.5 54.5t55.5 19.5h112q35 0 55.5 -19.5t20.5 -54.5v-923q0 -332 326 -332q324 0 323 332v923q0 35 20.5 54.5t55.5 19.5h113q76 0 76 -74v-921q0 -268 -161 -412.5t-427 -144.5q-279 0 -434.5 143.5t-155.5 413.5zM502 1987q0 29 51 28h156 q55 0 104 -73l121 -173q14 -20 14 -34q0 -39 -57 -39h-51q-12 0 -23 3l-17 5q-7 2 -21 12l-17 14q-4 3 -21.5 19t-23.5 20l-187 173q-28 27 -28 45z" />
<glyph unicode="&#xda;" horiz-adv-x="1513" d="M168 541v921q0 35 20.5 54.5t55.5 19.5h112q35 0 55.5 -19.5t20.5 -54.5v-923q0 -332 326 -332q324 0 323 332v923q0 35 20.5 54.5t55.5 19.5h113q76 0 76 -74v-921q0 -268 -161 -412.5t-427 -144.5q-279 0 -434.5 143.5t-155.5 413.5zM565 1735q0 14 15 34l118 173 q51 74 107 73h153q53 0 54 -28q0 -18 -29 -45l-188 -173q-4 -4 -18.5 -17t-18.5 -17t-15.5 -13.5t-17.5 -11.5t-15.5 -7t-17.5 -6t-18 -1h-53q-56 0 -56 39z" />
<glyph unicode="&#xdb;" horiz-adv-x="1513" d="M168 541v921q0 35 20.5 54.5t55.5 19.5h112q35 0 55.5 -19.5t20.5 -54.5v-923q0 -332 326 -332q324 0 323 332v923q0 35 20.5 54.5t55.5 19.5h113q76 0 76 -74v-921q0 -268 -161 -412.5t-427 -144.5q-279 0 -434.5 143.5t-155.5 413.5zM381 1729q0 14 22 40l168 191 q63 74 113 74h152q49 0 112 -74l166 -191q20 -23 21 -38q0 -35 -54 -35h-55q-43 0 -121 73l-147 142l-148 -142l-44 -40q-13 -12 -34.5 -22.5t-42.5 -10.5h-55q-53 0 -53 33z" />
<glyph unicode="&#xdc;" horiz-adv-x="1513" d="M168 541v921q0 35 20.5 54.5t55.5 19.5h112q35 0 55.5 -19.5t20.5 -54.5v-923q0 -332 326 -332q324 0 323 332v923q0 35 20.5 54.5t55.5 19.5h113q76 0 76 -74v-921q0 -268 -161 -412.5t-427 -144.5q-279 0 -434.5 143.5t-155.5 413.5zM365 1733v82q0 74 73 73h107 q33 0 53 -20.5t20 -52.5v-82q0 -35 -19 -55.5t-54 -20.5h-107q-73 0 -73 76zM895 1733v82q0 74 74 73h106q35 0 54.5 -20.5t19.5 -52.5v-82q0 -35 -19.5 -55.5t-54.5 -20.5h-106q-74 0 -74 76z" />
<glyph unicode="&#xdd;" horiz-adv-x="1320" d="M57 1493q0 43 60 43h135q55 0 96 -74l322 -631l329 631q41 74 97 74h116q57 0 58 -41q0 -12 -10 -33l-469 -850v-538q0 -33 -20.5 -53.5t-53.5 -20.5h-115q-74 0 -74 74v530l-460 858q-11 21 -11 31zM475 1735q0 14 14 34l119 173q51 74 107 73h153q53 0 54 -28 q0 -18 -29 -45l-188 -173q-4 -4 -18.5 -17t-18.5 -17t-15.5 -13.5t-17.5 -11.5t-15.5 -7t-17.5 -6t-18 -1h-54q-55 0 -55 39z" />
<glyph unicode="&#xde;" horiz-adv-x="1304" d="M178 74v1388q0 33 19.5 53.5t54.5 20.5h115q35 0 54 -20.5t19 -53.5v-143h262q514 0 515 -508q0 -264 -145.5 -403.5t-401.5 -139.5h-230v-194q0 -33 -19.5 -53.5t-53.5 -20.5h-115q-35 0 -54.5 20.5t-19.5 53.5zM440 492h215q164 0 227.5 76.5t63.5 242.5 q0 158 -62.5 221.5t-219.5 63.5h-224v-604z" />
<glyph unicode="&#xdf;" horiz-adv-x="1474" d="M43 981v66q0 74 76 73h98v31q0 133 75 222t187.5 126t255.5 37q76 0 148.5 -14.5t142.5 -44t112 -88t42 -136.5q0 -20 -3 -39.5l-5.5 -35t-11.5 -32t-13 -26.5t-17.5 -26.5t-17.5 -22.5t-20 -22l-20 -20q-3 -3 -22.5 -19.5t-21.5 -18.5q-4 -4 -21 -18l-26 -22 q-8 -7 -22.5 -22.5t-21.5 -27.5t-13 -29.5t-6 -35.5q0 -49 27.5 -77t80.5 -54l84 -41q70 -33 104.5 -53.5t75.5 -58.5t58.5 -89t17.5 -123q0 -168 -115.5 -262t-316.5 -94q-141 0 -236 18q-37 8 -51 24.5t-14 51.5v90q0 53 47 53q12 0 18 -2q100 -20 199 -20q209 0 209 139 q0 51 -33 78.5t-106 58.5l-101 45q-209 88 -209 287q0 125 170 254q98 74 99 158q0 119 -195 118q-57 0 -96 -7t-80 -29.5t-62.5 -71.5t-21.5 -127v-1028q0 -74 -74 -74h-102q-78 0 -78 74v833h-98q-76 0 -76 74z" />
<glyph unicode="&#xe0;" horiz-adv-x="1282" d="M115 362v193q0 254 172 409.5t420 155.5h321q33 0 53.5 -19.5t20.5 -53.5v-973q0 -33 -20.5 -53.5t-53.5 -20.5h-106q-33 0 -53.5 20.5t-20.5 53.5v112l-80 -69q-152 -133 -315 -133q-156 0 -247 96t-91 282zM369 387q0 -184 153 -184q104 0 262 137l64 53v514h-127 q-162 0 -257 -93t-95 -259v-168zM426 1571q0 29 51 28h156q55 0 104 -73l121 -172q14 -20 14 -35q0 -39 -57 -39h-51q-12 0 -23 3l-17 5q-7 2 -21 12l-17 14q-4 3 -21.5 19.5t-23.5 20.5l-186 172q-29 27 -29 45z" />
<glyph unicode="&#xe1;" horiz-adv-x="1282" d="M115 362v193q0 254 172 409.5t420 155.5h321q33 0 53.5 -19.5t20.5 -53.5v-973q0 -33 -20.5 -53.5t-53.5 -20.5h-106q-33 0 -53.5 20.5t-20.5 53.5v112l-80 -69q-152 -133 -315 -133q-156 0 -247 96t-91 282zM369 387q0 -184 153 -184q104 0 262 137l64 53v514h-127 q-162 0 -257 -93t-95 -259v-168zM514 1319q0 14 14 35l119 172q53 74 107 73h153q53 0 54 -28q0 -18 -29 -45l-189 -172l-18 -17.5t-18.5 -17.5l-15.5 -13.5t-17 -11.5t-15.5 -7t-17.5 -6t-18 -1h-54q-55 0 -55 39z" />
<glyph unicode="&#xe2;" horiz-adv-x="1282" d="M115 362v193q0 254 172 409.5t420 155.5h321q33 0 53.5 -19.5t20.5 -53.5v-973q0 -33 -20.5 -53.5t-53.5 -20.5h-106q-33 0 -53.5 20.5t-20.5 53.5v112l-80 -69q-152 -133 -315 -133q-156 0 -247 96t-91 282zM289 1313q0 14 22 41l168 190q63 74 113 74h151q49 0 113 -74 l166 -190q20 -23 20 -39q0 -35 -53 -35h-55q-43 0 -121 74l-147 141l-148 -141l-44 -41q-13 -12 -34.5 -22.5t-42.5 -10.5h-55q-53 0 -53 33zM369 387q0 -184 153 -184q104 0 262 137l64 53v514h-127q-162 0 -257 -93t-95 -259v-168z" />
<glyph unicode="&#xe3;" horiz-adv-x="1282" d="M115 362v193q0 254 172 409.5t420 155.5h321q33 0 53.5 -19.5t20.5 -53.5v-973q0 -33 -20.5 -53.5t-53.5 -20.5h-106q-33 0 -53.5 20.5t-20.5 53.5v112l-80 -69q-152 -133 -315 -133q-156 0 -247 96t-91 282zM303 1368v35q0 51 74 123q57 53 127 53q59 0 160.5 -72.5 t134.5 -72.5q72 0 135 71q29 37 49 37q25 0 25 -47v-31q0 -57 -74 -125q-72 -59 -135 -59q-57 0 -158.5 73.5t-136.5 73.5q-72 0 -127 -69q-29 -35 -49 -35q-25 0 -25 45zM369 387q0 -184 153 -184q104 0 262 137l64 53v514h-127q-162 0 -257 -93t-95 -259v-168z" />
<glyph unicode="&#xe4;" horiz-adv-x="1282" d="M115 362v193q0 254 172 409.5t420 155.5h321q33 0 53.5 -19.5t20.5 -53.5v-973q0 -33 -20.5 -53.5t-53.5 -20.5h-106q-33 0 -53.5 20.5t-20.5 53.5v112l-80 -69q-152 -133 -315 -133q-156 0 -247 96t-91 282zM272 1317v82q0 74 74 74h107q35 0 54 -19.5t19 -54.5v-82 q0 -35 -19.5 -55.5t-53.5 -20.5h-107q-74 0 -74 76zM369 387q0 -184 153 -184q104 0 262 137l64 53v514h-127q-162 0 -257 -93t-95 -259v-168zM803 1317v82q0 74 74 74h106q33 0 53.5 -19.5t20.5 -54.5v-82q0 -35 -19.5 -55.5t-54.5 -20.5h-106q-74 0 -74 76z" />
<glyph unicode="&#xe5;" horiz-adv-x="1282" d="M115 362v193q0 254 172 409.5t420 155.5h321q33 0 53.5 -19.5t20.5 -53.5v-973q0 -33 -20.5 -53.5t-53.5 -20.5h-106q-33 0 -53.5 20.5t-20.5 53.5v112l-80 -69q-152 -133 -315 -133q-156 0 -247 96t-91 282zM369 387q0 -184 153 -184q104 0 262 137l64 53v514h-127 q-162 0 -257 -93t-95 -259v-168zM412 1489q0 92 67.5 149.5t186 57.5t185.5 -56.5t67 -150.5t-68 -151.5t-184 -57.5q-119 0 -186.5 56.5t-67.5 152.5zM530 1489q0 -53 34 -91t101.5 -38t101.5 38t34 91t-34 90t-101.5 37t-101.5 -37t-34 -90z" />
<glyph unicode="&#xe6;" horiz-adv-x="1914" d="M115 362v193q0 254 172 409.5t420 155.5h663q199 0 317.5 -82t118.5 -258q0 -160 -101 -240.5t-280 -80.5h-321v-27q0 -229 276 -229q137 0 275 41q16 4 20 4q25 0 39.5 -17.5t14.5 -46.5v-67q0 -66 -74 -88q-154 -45 -289 -45q-362 0 -473 235l-119 -104 q-147 -131 -321 -131q-156 0 -247 96t-91 282zM369 387q0 -184 153 -184q106 0 262 135l66 55v246q0 147 86 268h-215q-162 0 -257 -93t-95 -259v-168zM1104 629h285q94 0 136 34.5t42 108.5q0 78 -50.5 106.5t-146.5 28.5q-266 0 -266 -264v-14z" />
<glyph unicode="&#xe7;" horiz-adv-x="1073" d="M100 444v211q0 221 149.5 351.5t358.5 130.5q199 0 348 -80v-252q0 -76 -73 -76h-70q-74 0 -74 76v88q-45 25 -131 25q-113 0 -183.5 -68t-70.5 -201v-174q0 -133 70 -202.5t199 -69.5q115 0 249 41q16 6 27 6q49 0 49 -55v-76q0 -66 -61 -86q-141 -49 -269 -49 q-238 0 -378 114.5t-140 345.5zM330 -313q0 53 57 53h135q111 0 111 70q0 66 -103 118v25h134q55 -25 92 -73t37 -95q0 -86 -63.5 -128t-162.5 -42h-180q-57 0 -57 53v19z" />
<glyph unicode="&#xe8;" horiz-adv-x="1165" d="M102 436v219q0 227 145.5 354.5t375.5 127.5q199 0 317.5 -82t118.5 -258q0 -160 -102.5 -242t-278.5 -82h-322v-41q0 -229 277 -229q135 0 272 41q16 4 23 4q25 0 39 -17.5t14 -46.5v-67q0 -66 -76 -88q-154 -45 -287 -45q-238 0 -377 110.5t-139 341.5zM336 1571 q0 29 51 28h156q55 0 104 -73l121 -172q14 -20 14 -35q0 -39 -57 -39h-51q-12 0 -23 3l-17 5q-7 2 -21 12l-17 14q-4 3 -21.5 19.5t-23.5 20.5l-186 172q-29 27 -29 45zM356 659v-16h283q96 0 137 36t41 109q0 76 -50 106t-144 30q-267 -1 -267 -265z" />
<glyph unicode="&#xe9;" horiz-adv-x="1165" d="M102 436v219q0 227 145.5 354.5t375.5 127.5q199 0 317.5 -82t118.5 -258q0 -160 -102.5 -242t-278.5 -82h-322v-41q0 -229 277 -229q135 0 272 41q16 4 23 4q25 0 39 -17.5t14 -46.5v-67q0 -66 -76 -88q-154 -45 -287 -45q-238 0 -377 110.5t-139 341.5zM356 659v-16 h283q96 0 137 36t41 109q0 76 -50 106t-144 30q-267 -1 -267 -265zM408 1319q0 14 14 35l119 172q53 74 106 73h154q53 0 53 -28q0 -18 -29 -45l-188 -172q-4 -4 -18.5 -17.5t-18.5 -17.5t-15.5 -13.5t-17.5 -11.5t-15 -7t-17.5 -6t-18.5 -1h-53q-55 0 -55 39z" />
<glyph unicode="&#xea;" horiz-adv-x="1165" d="M102 436v219q0 227 145.5 354.5t375.5 127.5q199 0 317.5 -82t118.5 -258q0 -160 -102.5 -242t-278.5 -82h-322v-41q0 -229 277 -229q135 0 272 41q16 4 23 4q25 0 39 -17.5t14 -46.5v-67q0 -66 -76 -88q-154 -45 -287 -45q-238 0 -377 110.5t-139 341.5zM213 1313 q0 14 23 41l167 190q63 74 113 74h152q49 0 112 -74l166 -190q20 -23 21 -39q0 -35 -54 -35h-55q-43 0 -121 74l-147 141l-148 -141l-44 -41q-13 -12 -34.5 -22.5t-41.5 -10.5h-56q-53 0 -53 33zM356 659v-16h283q96 0 137 36t41 109q0 76 -50 106t-144 30 q-267 -1 -267 -265z" />
<glyph unicode="&#xeb;" horiz-adv-x="1165" d="M102 436v219q0 227 145.5 354.5t375.5 127.5q199 0 317.5 -82t118.5 -258q0 -160 -102.5 -242t-278.5 -82h-322v-41q0 -229 277 -229q135 0 272 41q16 4 23 4q25 0 39 -17.5t14 -46.5v-67q0 -66 -76 -88q-154 -45 -287 -45q-238 0 -377 110.5t-139 341.5zM199 1317v82 q0 74 73 74h107q35 0 54.5 -19.5t19.5 -54.5v-82q0 -35 -19.5 -55.5t-54.5 -20.5h-107q-73 0 -73 76zM356 659v-16h283q96 0 137 36t41 109q0 76 -50 106t-144 30q-267 -1 -267 -265zM729 1317v82q0 74 74 74h106q33 0 53.5 -19.5t20.5 -54.5v-82q0 -35 -19.5 -55.5 t-54.5 -20.5h-106q-74 0 -74 76z" />
<glyph unicode="&#xec;" horiz-adv-x="641" d="M31 981v66q0 74 75 73h279q78 0 78 -73v-973q0 -74 -78 -74h-102q-74 0 -74 74v833h-103q-75 0 -75 74zM57 1571q0 29 52 28h155q55 0 105 -73l120 -172q14 -20 15 -35q0 -39 -58 -39h-51q-12 0 -22 3l-18 5q-7 2 -20 12l-18 14q-4 3 -21 19.5t-24 20.5l-186 172 q-29 27 -29 45z" />
<glyph unicode="&#xed;" horiz-adv-x="641" d="M31 981v66q0 74 75 73h279q78 0 78 -73v-973q0 -74 -78 -74h-102q-74 0 -74 74v833h-103q-75 0 -75 74zM145 1319q0 14 15 35l119 172q53 74 106 73h154q53 0 53 -28q0 -18 -29 -45l-188 -172q-4 -4 -18.5 -17.5t-18.5 -17.5t-15.5 -13.5t-17.5 -11.5t-15 -7t-17.5 -6 t-18.5 -1h-53q-56 0 -56 39z" />
<glyph unicode="&#xee;" horiz-adv-x="641" d="M-88 1313q0 14 22 41l168 190q63 74 113 74h152q49 0 112 -74l166 -190q20 -23 21 -39q0 -35 -54 -35h-55q-43 0 -121 74l-147 141l-148 -141l-44 -41q-13 -12 -34.5 -22.5t-42.5 -10.5h-55q-53 0 -53 33zM31 981v66q0 74 75 73h279q78 0 78 -73v-973q0 -74 -78 -74h-102 q-74 0 -74 74v833h-103q-75 0 -75 74z" />
<glyph unicode="&#xef;" horiz-adv-x="641" d="M-94 1317v82q0 74 74 74h106q33 0 53.5 -19.5t20.5 -54.5v-82q0 -35 -19.5 -55.5t-54.5 -20.5h-106q-74 0 -74 76zM31 981v66q0 74 75 73h279q78 0 78 -73v-973q0 -74 -78 -74h-102q-74 0 -74 74v833h-103q-75 0 -75 74zM436 1317v82q0 74 74 74h106q35 0 54.5 -19.5 t19.5 -54.5v-82q0 -35 -19.5 -55.5t-54.5 -20.5h-106q-74 0 -74 76z" />
<glyph unicode="&#xf0;" horiz-adv-x="1282" d="M115 362v193q0 254 172 409.5t420 155.5h141v119h-191q-35 0 -54 20.5t-19 55.5v35q0 74 73 73h191v39q0 33 20.5 53.5t53.5 20.5h106q33 0 53.5 -20.5t20.5 -53.5v-39h72q74 0 73 -73v-35q0 -76 -73 -76h-72v-1165q0 -33 -20.5 -53.5t-53.5 -20.5h-106q-33 0 -53.5 20.5 t-20.5 53.5v112l-80 -69q-158 -133 -315 -133q-156 0 -246 96t-92 282zM369 387q0 -184 153 -184q104 0 262 137l64 53v514h-127q-162 0 -257 -93t-95 -259v-168z" />
<glyph unicode="&#xf1;" horiz-adv-x="1323" d="M176 74v973q0 35 20.5 54t53.5 19h104q35 0 55.5 -19.5t20.5 -53.5v-119l66 59q166 150 340 150q313 0 313 -373v-690q0 -74 -78 -74h-102q-74 0 -74 74v651q0 104 -37 148t-108 44q-18 0 -38 -4t-42 -15l-37 -18q-14 -7 -41 -27l-34 -25q-7 -5 -36 -29l-28 -25l-64 -53 v-647q0 -35 -20.5 -54.5t-55.5 -19.5h-104q-33 0 -53.5 20.5t-20.5 53.5zM309 1368v35q0 51 74 123q57 53 127 53q59 0 160.5 -72.5t134.5 -72.5q72 0 135 71q29 37 49 37q25 0 25 -47v-31q0 -57 -74 -125q-72 -59 -135 -59q-57 0 -158.5 73.5t-136.5 73.5q-72 0 -127 -69 q-29 -35 -49 -35q-25 0 -25 45z" />
<glyph unicode="&#xf2;" horiz-adv-x="1249" d="M96 569q0 274 134.5 421t392.5 147q528 0 528 -568q0 -586 -528 -585q-527 -1 -527 585zM350 569q0 -182 62.5 -274t210 -92t210 92t62.5 274q0 178 -61.5 263.5t-211 85.5t-211 -85.5t-61.5 -263.5zM385 1571q0 29 51 28h156q55 0 104 -73l121 -172q14 -20 14 -35 q0 -39 -57 -39h-51q-12 0 -23 3l-17 5q-7 2 -20 12l-18 14q-4 3 -21.5 19.5t-23.5 20.5l-186 172q-29 27 -29 45z" />
<glyph unicode="&#xf3;" horiz-adv-x="1249" d="M96 569q0 274 134.5 421t392.5 147q528 0 528 -568q0 -586 -528 -585q-527 -1 -527 585zM350 569q0 -182 62.5 -274t210 -92t210 92t62.5 274q0 178 -61.5 263.5t-211 85.5t-211 -85.5t-61.5 -263.5zM434 1319q0 14 15 35l118 172q51 74 107 73h153q53 0 54 -28 q0 -18 -29 -45l-188 -172q-4 -4 -18.5 -17.5t-18.5 -17.5t-15.5 -13.5t-17.5 -11.5t-15.5 -7t-17.5 -6t-18 -1h-54q-55 0 -55 39z" />
<glyph unicode="&#xf4;" horiz-adv-x="1249" d="M96 569q0 274 134.5 421t392.5 147q528 0 528 -568q0 -586 -528 -585q-527 -1 -527 585zM248 1313q0 14 22 41l168 190q63 74 113 74h151q49 0 113 -74l166 -190q20 -23 20 -39q0 -35 -53 -35h-55q-43 0 -121 74l-147 141l-148 -141l-44 -41q-13 -12 -34.5 -22.5 t-42.5 -10.5h-55q-53 0 -53 33zM350 569q0 -182 62.5 -274t210 -92t210 92t62.5 274q0 178 -61.5 263.5t-211 85.5t-211 -85.5t-61.5 -263.5z" />
<glyph unicode="&#xf5;" horiz-adv-x="1249" d="M96 569q0 274 134.5 421t392.5 147q528 0 528 -568q0 -586 -528 -585q-527 -1 -527 585zM272 1368v35q0 51 74 123q57 53 127 53q59 0 160.5 -72.5t134.5 -72.5q72 0 135 71q29 37 49 37q25 0 25 -47v-31q0 -57 -74 -125q-72 -59 -135 -59q-57 0 -158.5 73.5t-136.5 73.5 q-72 0 -127 -69q-29 -35 -49 -35q-25 0 -25 45zM350 569q0 -182 62.5 -274t210 -92t210 92t62.5 274q0 178 -61.5 263.5t-211 85.5t-211 -85.5t-61.5 -263.5z" />
<glyph unicode="&#xf6;" horiz-adv-x="1249" d="M96 569q0 274 134.5 421t392.5 147q528 0 528 -568q0 -586 -528 -585q-527 -1 -527 585zM231 1317v82q0 74 74 74h107q35 0 54 -19.5t19 -54.5v-82q0 -35 -19.5 -55.5t-53.5 -20.5h-107q-74 0 -74 76zM350 569q0 -182 62.5 -274t210 -92t210 92t62.5 274 q0 178 -61.5 263.5t-211 85.5t-211 -85.5t-61.5 -263.5zM762 1317v82q0 74 74 74h106q33 0 53.5 -19.5t20.5 -54.5v-82q0 -35 -19.5 -55.5t-54.5 -20.5h-106q-74 0 -74 76z" />
<glyph unicode="&#xf7;" d="M193 721v63q0 72 73 72h746q76 0 75 -72v-63q0 -76 -75 -76h-746q-73 0 -73 76zM530 381v47q0 90 76 90h49q92 0 93 -74v-49q0 -90 -76 -90h-49q-93 0 -93 76zM530 1059v49q0 88 76 88h49q92 0 93 -74v-49q0 -90 -76 -90h-49q-93 0 -93 76z" />
<glyph unicode="&#xf8;" horiz-adv-x="1249" d="M96 569q0 274 134.5 421t392.5 147q201 0 327 -86l4 6q53 63 101 63h26q49 0 49 -33q0 -16 -14 -30l-76 -92q111 -141 111 -396q0 -586 -528 -585q-207 0 -328 84l-4 -5q-57 -63 -101 -63h-26q-47 0 -47 33q0 12 12 30l76 93q-109 141 -109 413zM350 569q0 -125 27 -207 l420 506q-61 49 -174 50q-150 0 -211.5 -85.5t-61.5 -263.5zM449 254q63 -51 174 -51q147 0 209.5 92t62.5 274q0 115 -25 191z" />
<glyph unicode="&#xf9;" horiz-adv-x="1323" d="M172 356v691q0 74 74 73h104q74 0 74 -73v-654q0 -102 36 -146t107 -44q43 0 96.5 27.5t81.5 50.5l80 65l66 53v648q0 74 74 73h102q76 0 76 -73v-973q0 -74 -76 -74h-102q-74 0 -74 74v119l-68 -62q-164 -147 -342 -147q-309 -1 -309 372zM406 1571q0 29 51 28h155 q55 0 105 -73l121 -172q14 -20 14 -35q0 -39 -57 -39h-52q-12 0 -22 3l-18 5q-7 2 -20 12l-17 14q-4 3 -21.5 19.5t-23.5 20.5l-187 172q-28 27 -28 45z" />
<glyph unicode="&#xfa;" horiz-adv-x="1323" d="M172 356v691q0 74 74 73h104q74 0 74 -73v-654q0 -102 36 -146t107 -44q43 0 96.5 27.5t81.5 50.5l80 65l66 53v648q0 74 74 73h102q76 0 76 -73v-973q0 -74 -76 -74h-102q-74 0 -74 74v119l-68 -62q-164 -147 -342 -147q-309 -1 -309 372zM469 1319q0 14 14 35l119 172 q53 74 107 73h153q53 0 53 -28q0 -18 -28 -45l-189 -172l-18 -17.5t-18.5 -17.5l-15.5 -13.5t-17 -11.5t-15.5 -7t-17.5 -6t-18 -1h-54q-55 0 -55 39z" />
<glyph unicode="&#xfb;" horiz-adv-x="1323" d="M172 356v691q0 74 74 73h104q74 0 74 -73v-654q0 -102 36 -146t107 -44q43 0 96.5 27.5t81.5 50.5l80 65l66 53v648q0 74 74 73h102q76 0 76 -73v-973q0 -74 -76 -74h-102q-74 0 -74 74v119l-68 -62q-164 -147 -342 -147q-309 -1 -309 372zM285 1313q0 14 22 41l168 190 q63 74 113 74h151q49 0 113 -74l166 -190q20 -23 20 -39q0 -35 -53 -35h-55q-43 0 -121 74l-147 141l-148 -141l-44 -41q-13 -12 -34.5 -22.5t-42.5 -10.5h-55q-53 0 -53 33z" />
<glyph unicode="&#xfc;" horiz-adv-x="1323" d="M172 356v691q0 74 74 73h104q74 0 74 -73v-654q0 -102 36 -146t107 -44q43 0 96.5 27.5t81.5 50.5l80 65l66 53v648q0 74 74 73h102q76 0 76 -73v-973q0 -74 -76 -74h-102q-74 0 -74 74v119l-68 -62q-164 -147 -342 -147q-309 -1 -309 372zM270 1317v82q0 74 74 74h107 q33 0 53 -19.5t20 -54.5v-82q0 -35 -19.5 -55.5t-53.5 -20.5h-107q-74 0 -74 76zM801 1317v82q0 74 73 74h107q35 0 54.5 -19.5t19.5 -54.5v-82q0 -35 -19.5 -55.5t-54.5 -20.5h-107q-73 0 -73 76z" />
<glyph unicode="&#xfd;" horiz-adv-x="1316" d="M166 432v615q0 35 19.5 54t54.5 19h106q35 0 54.5 -19.5t19.5 -53.5v-586q0 -180 151 -180q106 0 254 127l58 49v590q0 74 73 73h107q35 0 54.5 -19.5t19.5 -53.5v-897q0 -268 -157 -401.5t-437 -133.5h-189q-82 0 -82 82v51q0 35 21.5 57.5t60.5 22.5h131 q213 0 305.5 72.5t92.5 257.5v90l-76 -64q-147 -121 -307 -121q-334 0 -334 369zM473 1319q0 14 14 35l119 172q53 74 107 73h153q53 0 54 -28q0 -18 -29 -45l-189 -172l-18 -17.5l-18 -17.5t-15.5 -13.5t-17.5 -11.5t-15.5 -7t-17.5 -6t-18 -1h-54q-55 0 -55 39z" />
<glyph unicode="&#xfe;" horiz-adv-x="1282" d="M176 -309v1771q0 33 20.5 53.5t53.5 20.5h104q35 0 55.5 -19.5t20.5 -54.5v-528l80 70q154 133 315 133q156 0 247 -96.5t91 -282.5v-195q0 -252 -172 -407.5t-420 -155.5h-141v-309q0 -76 -76 -76h-104q-35 0 -54.5 20.5t-19.5 55.5zM430 213h127q160 0 255 92t97 258 v168q0 102 -40 144.5t-115 42.5q-102 0 -260 -138l-64 -55v-512z" />
<glyph unicode="&#xff;" horiz-adv-x="1316" d="M166 432v615q0 35 19.5 54t54.5 19h106q35 0 54.5 -19.5t19.5 -53.5v-586q0 -180 151 -180q106 0 254 127l58 49v590q0 74 73 73h107q35 0 54.5 -19.5t19.5 -53.5v-897q0 -268 -157 -401.5t-437 -133.5h-189q-82 0 -82 82v51q0 35 21.5 57.5t60.5 22.5h131 q213 0 305.5 72.5t92.5 257.5v90l-76 -64q-147 -121 -307 -121q-334 0 -334 369zM266 1317v82q0 74 74 74h106q33 0 53.5 -19.5t20.5 -54.5v-82q0 -35 -19.5 -55.5t-54.5 -20.5h-106q-74 0 -74 76zM797 1317v82q0 74 73 74h107q35 0 54.5 -19.5t19.5 -54.5v-82 q0 -35 -19.5 -55.5t-54.5 -20.5h-107q-73 0 -73 76z" />
<glyph unicode="&#x152;" horiz-adv-x="2052" d="M96 735v72q0 344 169 536.5t491 192.5h1079q33 0 53.5 -20.5t20.5 -53.5v-73q0 -76 -74 -76h-586v-402h520q74 0 74 -75v-74q0 -74 -74 -74h-520v-465h598q74 0 74 -73v-74q0 -76 -74 -76h-1081q-328 0 -499 190.5t-171 544.5zM367 735q0 -258 95 -386t304 -128h221v1092 h-221q-209 0 -304 -125t-95 -381v-72z" />
<glyph unicode="&#x153;" horiz-adv-x="1959" d="M98 569q0 274 135.5 421t391.5 147q266 0 397 -148q143 147 395 148q199 0 317.5 -82t118.5 -258q0 -160 -101 -242t-277 -82h-324v-41q0 -229 276 -229q123 0 275 41q16 4 22 4q23 0 37.5 -17.5t14.5 -46.5v-67q0 -66 -74 -88q-154 -45 -289 -45q-270 0 -403 133 q-127 -133 -385 -133q-527 -1 -527 585zM352 569q0 -182 62.5 -274t210.5 -92q143 0 205.5 88t66.5 260v35q-4 170 -65.5 251t-206.5 81q-150 0 -211.5 -85.5t-61.5 -263.5zM1151 659v-16h285q96 0 137 36t41 109q0 76 -51.5 106t-145.5 30q-266 -1 -266 -265z" />
<glyph unicode="&#x178;" horiz-adv-x="1320" d="M57 1493q0 43 60 43h135q55 0 96 -74l322 -631l329 631q41 74 97 74h116q57 0 58 -41q0 -12 -10 -33l-469 -850v-538q0 -33 -20.5 -53.5t-53.5 -20.5h-115q-74 0 -74 74v530l-460 858q-11 21 -11 31zM268 1733v82q0 74 74 73h107q35 0 54 -20.5t19 -52.5v-82 q0 -35 -19.5 -55.5t-53.5 -20.5h-107q-74 0 -74 76zM799 1733v82q0 74 73 73h107q33 0 53.5 -20.5t20.5 -52.5v-82q0 -35 -19.5 -55.5t-54.5 -20.5h-107q-73 0 -73 76z" />
<glyph unicode="&#x2c6;" horiz-adv-x="753" d="M0 1313q0 14 23 41l167 190q63 74 113 74h152q49 0 112 -74l166 -190q20 -23 21 -39q0 -35 -54 -35h-55q-43 0 -121 74l-147 141l-148 -141l-44 -41q-13 -12 -34.5 -22.5t-41.5 -10.5h-56q-53 0 -53 33z" />
<glyph unicode="&#x2dc;" horiz-adv-x="704" d="M0 1368v35q0 51 74 123q57 53 127 53q59 0 160.5 -72.5t134.5 -72.5q72 0 135 71q29 37 49 37q25 0 25 -47v-31q0 -57 -74 -125q-72 -59 -135 -59q-57 0 -158.5 73.5t-136.5 73.5q-72 0 -127 -69q-29 -35 -49 -35q-25 0 -25 45z" />
<glyph unicode="&#x2013;" horiz-adv-x="1024" d="M63 721v63q0 35 19.5 54.5t54.5 19.5h750q35 0 54.5 -19.5t19.5 -54.5v-63q0 -35 -19.5 -55.5t-54.5 -20.5h-748q-76 0 -76 76z" />
<glyph unicode="&#x2014;" horiz-adv-x="2048" d="M63 721v63q0 35 19.5 54.5t54.5 19.5h1774q35 0 54.5 -19.5t19.5 -54.5v-63q0 -35 -19.5 -55.5t-54.5 -20.5h-1772q-76 0 -76 76z" />
<glyph unicode="&#x2018;" horiz-adv-x="581" d="M102 1098q0 41 15 63l174 316q33 59 82 59h59q51 0 51 -43q0 -10 -2 -16l-98 -379q-20 -74 -88 -74h-121q-72 0 -72 74z" />
<glyph unicode="&#x2019;" horiz-adv-x="581" d="M96 1067q0 10 2 16l101 379q20 74 88 74h119q74 0 73 -74q0 -37 -14 -63l-174 -316q-33 -59 -80 -59h-61q-54 0 -54 43z" />
<glyph unicode="&#x201a;" horiz-adv-x="610" d="M92 -213q0 10 2 16l101 379q20 74 88 74h118q72 0 72 -74q0 -35 -12 -63l-174 -316q-37 -59 -82 -59h-62q-51 0 -51 43z" />
<glyph unicode="&#x201c;" horiz-adv-x="1028" d="M102 1098q0 41 15 63l174 316q33 59 82 59h59q51 0 51 -43q0 -10 -2 -16l-98 -379q-20 -74 -88 -74h-121q-72 0 -72 74zM549 1098q0 37 14 63l174 316q33 59 80 59h64q51 0 51 -43q0 -10 -2 -16l-101 -379q-20 -74 -88 -74h-118q-74 0 -74 74z" />
<glyph unicode="&#x201d;" horiz-adv-x="1028" d="M96 1067q0 10 2 16l101 379q20 74 88 74h119q74 0 73 -74q0 -37 -14 -63l-174 -316q-33 -59 -80 -59h-61q-54 0 -54 43zM545 1067q0 10 2 16l98 379q20 74 88 74h121q35 0 54.5 -20.5t19.5 -53.5q0 -39 -17 -63l-174 -316q-29 -59 -80 -59h-61q-51 0 -51 43z" />
<glyph unicode="&#x201e;" horiz-adv-x="1028" d="M92 -213q0 10 2 16l101 379q20 74 88 74h118q74 0 74 -74q0 -37 -14 -63l-174 -316q-33 -59 -80 -59h-64q-51 0 -51 43zM541 -213q0 10 2 16l98 379q20 74 88 74h121q35 0 54.5 -19.5t19.5 -54.5q0 -39 -17 -63l-174 -316q-29 -59 -80 -59h-61q-51 0 -51 43z" />
<glyph unicode="&#x2022;" horiz-adv-x="1024" d="M129 641q0 182 113.5 282.5t269.5 100.5t270.5 -100.5t114.5 -282.5t-114.5 -283.5t-270.5 -101.5t-269.5 101.5t-113.5 283.5z" />
<glyph unicode="&#x2026;" horiz-adv-x="1783" d="M174 74v108q0 74 74 74h114q35 0 54.5 -19.5t19.5 -54.5v-108q0 -33 -19.5 -53.5t-54.5 -20.5h-114q-74 0 -74 74zM760 74v108q0 74 74 74h112q35 0 55.5 -19.5t20.5 -54.5v-108q0 -35 -20.5 -54.5t-55.5 -19.5h-112q-74 0 -74 74zM1350 74v108q0 74 73 74h113 q35 0 55.5 -19.5t20.5 -54.5v-108q0 -35 -20.5 -54.5t-55.5 -19.5h-113q-73 0 -73 74z" />
<glyph unicode="&#x2039;" horiz-adv-x="688" d="M127 657v64q0 49 76 108l299 246q25 18 41 19q33 0 32 -52v-86q0 -33 -16 -55t-57 -55l-193 -158l193 -156q74 -57 73 -110v-86q0 -53 -34 -53q-12 0 -39 16l-299 248q-76 59 -76 110z" />
<glyph unicode="&#x203a;" horiz-adv-x="688" d="M113 336v86q0 53 73 110l193 156l-193 158q-41 33 -57 55.5t-16 54.5v86q0 51 32 52q16 0 41 -19l299 -246q74 -57 74 -108v-64q0 -53 -74 -110l-299 -248q-27 -16 -39 -16q-34 0 -34 53z" />
<glyph unicode="&#x20ac;" d="M63 580v47q0 63 64 63h113v154h-113q-63 0 -64 63v47q0 63 64 64h113q0 240 169 387t404 147h49q117 0 210 -28.5t93 -96.5v-73q0 -63 -51 -64q-33 0 -121 18.5t-131 18.5h-49q-133 0 -218 -76.5t-85 -232.5h475q66 0 66 -64v-47q0 -63 -66 -63h-475v-154h475 q66 0 66 -63v-47q0 -63 -66 -64h-475v-2q0 -147 88 -227t215 -80h66q53 0 137 22.5t102 22.5q47 0 47 -62v-73q0 -66 -85 -99.5t-201 -33.5h-66q-242 0 -407.5 135t-165.5 397h-113q-64 1 -64 64z" />
<glyph unicode="&#x2122;" horiz-adv-x="1644" d="M55 1444v39q0 53 56 53h469q55 0 55 -53v-39q0 -53 -55 -53h-146v-623q0 -53 -53 -53h-72q-53 0 -53 53v623h-145q-56 0 -56 53zM737 768v715q0 53 56 53h67q35 0 58 -37l206 -311l195 311q20 37 57 37h68q53 0 53 -53v-715q0 -53 -53 -53h-70q-53 0 -53 53v432 l-154 -231q-18 -25 -39 -25h-24q-25 0 -37 25l-152 215v-416q0 -53 -53 -53h-69q-56 0 -56 53z" />
<glyph unicode="&#xe000;" horiz-adv-x="1120" d="M0 1120h1120v-1120h-1120v1120z" />
<glyph unicode="&#xfb01;" horiz-adv-x="1351" d="M41 981v66q0 74 74 73h100v39q0 188 110.5 282.5t297.5 94.5h61q33 0 53.5 -20.5t20.5 -53.5v-53q0 -33 -20.5 -53.5t-53.5 -20.5h-37q-94 0 -136 -43t-42 -139v-33h627q76 0 75 -73v-975q0 -72 -75 -72h-105q-74 0 -73 72v835h-449v-835q0 -72 -76 -72h-102 q-76 0 -76 72v835h-98q-76 0 -76 74zM918 1378v84q0 74 73 74h107q74 0 73 -74v-84q0 -74 -73 -73h-107q-73 -1 -73 73z" />
<glyph unicode="&#xfb02;" horiz-adv-x="1351" d="M41 981v66q0 35 20.5 54t55.5 19h98v41q0 180 102.5 277.5t280.5 97.5h500q74 0 73 -74v-1388q0 -74 -73 -74h-105q-35 0 -55 19.5t-20 54.5v1263h-279q-90 0 -130 -44t-40 -138v-35h178q76 0 76 -73v-66q0 -74 -76 -74h-178v-833q0 -74 -74 -74h-102q-78 0 -78 74v833 h-98q-76 0 -76 74z" />
<glyph unicode="&#xfb03;" horiz-adv-x="2091" d="M41 981v66q0 74 76 73h98v41q0 180 102.5 277.5t280.5 97.5h96q74 0 74 -74v-51q0 -74 -74 -74h-47q-94 0 -136 -43t-42 -139v-35h193q74 0 73 -73v-66q0 -74 -73 -74h-193v-833q0 -74 -74 -74h-102q-78 0 -78 74v833h-98q-76 0 -76 74zM766 981v66q0 74 76 73h98v41 q0 180 102.5 277.5t280.5 97.5h96q74 0 74 -74v-51q0 -74 -74 -74h-47q-94 0 -136 -43t-42 -139v-35h192q74 0 74 -73v-66q0 -74 -74 -74h-192v-833q0 -74 -74 -74h-102q-78 0 -78 74v833h-98q-76 0 -76 74zM1481 981v66q0 74 73 73h281q35 0 55.5 -19.5t20.5 -53.5v-975 q0 -72 -76 -72h-102q-76 0 -76 72v835h-103q-73 0 -73 74zM1657 1378v84q0 74 74 74h104q35 0 55.5 -19.5t20.5 -54.5v-84q0 -74 -76 -73h-104q-74 -1 -74 73z" />
<glyph unicode="&#xfb04;" horiz-adv-x="2074" d="M41 981v66q0 74 76 73h98v41q0 180 102.5 277.5t280.5 97.5h96q74 0 74 -74v-51q0 -74 -74 -74h-47q-94 0 -136 -43t-42 -139v-35h193q74 0 73 -73v-66q0 -74 -73 -74h-193v-833q0 -74 -74 -74h-102q-78 0 -78 74v833h-98q-76 0 -76 74zM766 981v66q0 74 76 73h98v41 q0 180 102.5 277.5t280.5 97.5h96q74 0 74 -74v-51q0 -74 -74 -74h-47q-94 0 -136 -43t-42 -139v-35h192q74 0 74 -73v-66q0 -74 -74 -74h-192v-833q0 -74 -74 -74h-102q-78 0 -78 74v833h-98q-76 0 -76 74zM1464 1399v63q0 74 74 74h281q35 0 55 -19.5t20 -54.5v-1388 q0 -35 -20.5 -54.5t-54.5 -19.5h-105q-74 0 -74 74v1249h-102q-74 0 -74 76z" />
<glyph horiz-adv-x="409" />
</font>
</defs>
</svg>
