<?xml version="1.0" standalone="no"?>
<!DOCTYPE svg PUBLIC "-//W3C//DTD SVG 1.1//EN" "http://www.w3.org/Graphics/SVG/1.1/DTD/svg11.dtd" >
<svg xmlns="http://www.w3.org/2000/svg">
<metadata>
This is a custom SVG webfont generated by Font Squirrel.
Copyright   : Copyright c 2005 by OurType Sansa is a design by Fred Smeijers All rights reserved
Foundry     : OurType
Foundry URL : wwwourtypecom
</metadata>
<defs>
<font id="SansaSoftProNormal" horiz-adv-x="1280" >
<font-face units-per-em="2048" ascent="1663" descent="-385" />
<missing-glyph horiz-adv-x="544" />
<glyph unicode=" "  horiz-adv-x="544" />
<glyph unicode="&#x09;" horiz-adv-x="544" />
<glyph unicode="&#xa0;" horiz-adv-x="544" />
<glyph unicode="!" horiz-adv-x="559" d="M193 63v64q0 66 63 66h47q66 0 66 -66v-64q0 -63 -66 -63h-47q-63 0 -63 63zM195 1473q0 63 63 63h43q66 0 66 -63l-23 -977q0 -47 -47 -47h-33q-49 0 -49 47z" />
<glyph unicode="&#x22;" horiz-adv-x="911" d="M195 1473q-4 63 59 63h51q66 0 62 -63l-11 -289q-4 -63 -67 -64h-17q-63 0 -67 64zM545 1473q-4 63 59 63h51q66 0 62 -63l-10 -289q-4 -63 -68 -64h-16q-31 0 -49.5 17.5t-18.5 46.5z" />
<glyph unicode="#" d="M63 416v33q0 63 64 63h192v512h-192q-63 0 -64 63v33q0 63 64 64h192v289q0 63 64 63h33q63 0 63 -63v-289h322v289q0 63 63 63h31q66 0 66 -63v-289h190q66 0 66 -64v-33q0 -63 -66 -63h-190v-512h190q66 0 66 -63v-33q0 -63 -66 -64h-190v-289q0 -63 -66 -63h-31 q-63 0 -63 63v289h-322v-289q0 -63 -63 -63h-33q-63 0 -64 63v289h-192q-64 1 -64 64zM479 512h322v512h-322v-512z" />
<glyph unicode="$" d="M152 106v44q0 55 47 55q12 0 16 -2q209 -51 338 -51h63q319 0 320 264q0 119 -54.5 173t-168.5 83l-209 55q-336 90 -336 410q0 168 109.5 278.5t297.5 130.5v166q0 63 64 64h33q63 0 63 -64v-160q135 -4 264 -43q66 -20 66 -75v-39q0 -55 -47 -56q-12 0 -19 2 q-156 43 -286 43h-49q-303 0 -304 -247q0 -109 56.5 -159t167.5 -81l200 -57q70 -18 122 -44t107.5 -72t85 -124t29.5 -184q0 -182 -113.5 -295t-318.5 -133v-181q0 -63 -63 -63h-33q-63 0 -63 63v177q-154 4 -322 47q-63 16 -63 75z" />
<glyph unicode="%" horiz-adv-x="1921" d="M141 1100q0 227 84 336.5t262.5 109.5t262.5 -109.5t84 -336.5q0 -225 -84 -335t-262.5 -110t-262.5 110t-84 335zM299 1100q0 -172 42 -246t146 -74q106 0 148.5 72t42.5 248t-42 249.5t-148.5 73.5t-147.5 -72.5t-41 -250.5zM526 27q0 10 6 20l732 1442q25 47 63 47h29 q39 0 39 -27q0 -10 -6 -20l-734 -1442q-25 -47 -63 -47h-29q-37 0 -37 27zM1085 436q0 225 84 336t263 111q346 0 346 -447q0 -225 -85 -334.5t-261 -109.5q-178 0 -262.5 108.5t-84.5 335.5zM1241 436q0 -170 42 -244.5t148.5 -74.5t148.5 71.5t42 247.5t-42 250t-148.5 74 t-148.5 -74t-42 -250z" />
<glyph unicode="&#x26;" horiz-adv-x="1343" d="M143 432q0 127 58.5 228.5t175.5 148.5q-84 41 -134 132t-50 196q0 188 113.5 301.5t334.5 113.5h64q80 0 168 -15t126 -34q27 -10 34 -24.5t7 -46.5v-54q0 -41 -36 -41q-10 0 -27 4q-182 43 -272 43h-64q-127 0 -191.5 -57t-64.5 -190q0 -102 63.5 -172t159.5 -70h576 q63 0 63 -64v-38q0 -66 -63 -66h-80v-672q-72 -29 -208 -50t-255 -21q-498 -1 -498 448zM336 432q0 -143 73.5 -211.5t231.5 -68.5q176 0 270 32v543h-303q-129 0 -200.5 -82t-71.5 -213z" />
<glyph unicode="'" horiz-adv-x="559" d="M195 1473q-4 63 59 63h51q66 0 62 -63l-11 -289q-4 -63 -67 -64h-17q-63 0 -67 64z" />
<glyph unicode="(" horiz-adv-x="720" d="M96 608v64q0 250 76 458.5t215 342.5q66 57 92 61q8 2 17 2h43q41 0 41 -27q0 -16 -23 -36q-285 -279 -285 -801v-64q0 -537 285 -801q23 -20 23 -36q0 -27 -41 -27h-43q-18 0 -38 10t-29 17.5l-42 35.5q-139 133 -215 342t-76 459z" />
<glyph unicode=")" horiz-adv-x="720" d="M139 -229q0 16 23 36q287 266 287 801v64q0 520 -287 801q-23 20 -23 36q0 27 43 27h41q39 0 109 -63q139 -133 216 -342t77 -459v-64q0 -250 -77 -458.5t-216 -342.5q-70 -63 -109 -63h-41q-43 0 -43 27z" />
<glyph unicode="*" horiz-adv-x="1024" d="M127 942q0 25 27 39l227 131l-227 131q-27 14 -27 39q0 14 8 29l17 26q14 27 38 27q16 0 27 -8l232 -133v266q0 47 47 47h32q47 0 47 -47v-266l232 133q10 8 27 8q25 0 38 -27l17 -26q6 -10 6 -29q0 -25 -25 -39l-229 -131l229 -131q25 -14 25 -39q0 -18 -6 -29l-17 -26 q-14 -27 -38 -27q-16 0 -27 8l-232 131v-264q0 -47 -47 -47h-32q-47 0 -47 47v264l-232 -131q-10 -8 -27 -8q-25 0 -38 27l-17 26q-8 15 -8 29z" />
<glyph unicode="+" d="M193 735v33q0 63 63 63h303v306q0 63 66 63h30q66 0 66 -63v-306h303q63 0 63 -63v-33q0 -63 -63 -63h-303v-303q0 -66 -66 -66h-30q-66 0 -66 66v303h-303q-63 0 -63 63z" />
<glyph unicode="," horiz-adv-x="559" d="M76 -225q0 8 2 12l90 340q16 66 76 66h69q63 0 64 -66q0 -35 -12 -57l-156 -285q-20 -41 -51 -41h-45q-37 0 -37 31z" />
<glyph unicode="-" horiz-adv-x="831" d="M127 735v33q0 63 66 63h446q66 0 66 -63v-33q0 -63 -66 -63h-444q-68 0 -68 63z" />
<glyph unicode="." horiz-adv-x="559" d="M184 63v64q0 66 64 66h63q66 0 66 -66v-64q0 -63 -66 -63h-63q-64 0 -64 63z" />
<glyph unicode="/" horiz-adv-x="1024" d="M72 -217q0 8 6 24l704 1666q31 63 78 63h39q53 0 53 -39q0 -10 -6 -24l-704 -1666q-27 -63 -80 -63h-37q-53 0 -53 39z" />
<glyph unicode="0" d="M129 768q0 399 125 591.5t387 192.5t387 -193.5t125 -590.5t-125 -590.5t-387 -193.5t-387 192.5t-125 591.5zM319 768q0 -330 72 -473t250 -143t249 138t71 478t-71 478t-249 138q-180 0 -251 -138t-71 -478z" />
<glyph unicode="1" d="M193 1223v51q0 55 63 80l408 166q39 16 79 16h25q63 0 63 -63v-1410q0 -63 -63 -63h-63q-66 0 -66 63v1264l-381 -153q-18 -6 -25 -7q-40 1 -40 56z" />
<glyph unicode="2" d="M176 63v138q0 330 303 495l176 97q129 70 185.5 136t56.5 183q0 147 -71.5 201.5t-217.5 54.5h-334q-66 0 -65 64v41q0 63 63 63h336q479 0 479 -424q0 -158 -81.5 -260t-253.5 -197l-177 -96q-86 -45 -133 -107.5t-60 -120t-13 -138.5v-25h671q63 0 64 -64v-41 q0 -63 -64 -63h-800q-64 0 -64 63z" />
<glyph unicode="3" d="M193 1423v50q0 63 63 63h352q479 0 479 -344q0 -111 -44 -189.5t-154 -154.5q123 -55 177 -143.5t54 -239.5q0 -223 -145.5 -344t-382.5 -121h-334q-66 0 -65 63v41q0 63 63 64h336q156 0 246 75.5t90 221.5q0 143 -80 202.5t-240 59.5h-190q-66 0 -66 66v38q0 63 64 64 h289q193 109 192 258q0 121 -72.5 164t-232.5 43h-334q-65 0 -65 63z" />
<glyph unicode="4" d="M96 416v16q0 51 19 80q250 426 354 961q10 63 72 63h63q57 0 58 -49q0 -12 -13 -62q-106 -469 -352 -913h504v383q0 66 63 66h64q63 0 63 -66v-383h129q63 0 64 -63v-33q0 -63 -64 -64h-129v-289q0 -63 -63 -63h-64q-63 0 -63 63v289h-641q-64 1 -64 64z" />
<glyph unicode="5" d="M193 63v41q0 63 63 64h352q303 0 303 336q0 160 -71.5 224.5t-231.5 64.5h-319q-66 0 -66 63v617q0 63 66 63h688q63 0 63 -63v-41q0 -63 -63 -64h-578v-407h209q496 0 496 -457q0 -221 -123 -362.5t-373 -141.5h-352q-63 0 -63 63z" />
<glyph unicode="6" d="M160 479v482q0 254 154.5 414.5t453.5 160.5h160q63 0 63 -63v-41q0 -63 -63 -64h-160q-416 0 -416 -407v-89q190 88 320 89q236 0 342 -118t106 -364q0 -225 -115.5 -360t-363.5 -135q-240 0 -360.5 126.5t-120.5 368.5zM352 479q0 -328 289 -327q139 0 213 75.5 t74 251.5q0 172 -60.5 243t-195.5 71q-168 0 -320 -78v-236z" />
<glyph unicode="7" d="M127 1440v33q0 63 66 63h894q63 0 64 -63v-25q0 -39 -29 -72q-227 -262 -355 -535.5t-128 -617.5v-160q0 -63 -64 -63h-63q-63 0 -63 63v130q0 635 495 1183h-751q-66 1 -66 64z" />
<glyph unicode="8" d="M143 416q0 84 28 147.5t62.5 99t102.5 89.5l72 57q-231 111 -232 350q0 207 122 300t310 93h64q207 0 319.5 -91t112.5 -302q0 -102 -42 -168.5t-134 -150.5l-49 -43q129 -57 193.5 -144.5t64.5 -236.5q0 -207 -131.5 -319.5t-333.5 -112.5h-64q-215 0 -340 106.5 t-125 325.5zM336 416q0 -150 75.5 -203t213.5 -53h30q135 0 212 56t77 200q0 180 -176 248l-209 81l-63 -49q-2 -2 -20.5 -16t-22.5 -18.5t-21.5 -18.5t-23 -21.5t-18.5 -23.5t-18 -27.5t-14.5 -30t-12.5 -37t-6 -40.5t-3 -47zM369 1159q0 -160 159 -223l197 -78l43 39 q51 49 76.5 76.5t46 77t20.5 108.5q0 131 -61.5 182.5t-177.5 51.5h-64q-117 0 -178 -51.5t-61 -182.5z" />
<glyph unicode="9" d="M160 1057q0 223 119.5 359t361.5 136q238 0 358.5 -127t120.5 -368v-482q0 -254 -154.5 -414.5t-453.5 -160.5h-160q-63 0 -63 63v41q0 63 63 64h160q416 0 416 407v89q-190 -88 -320 -89q-448 1 -448 482zM352 1057q0 -172 60.5 -243t195.5 -71q168 0 320 78v236 q0 328 -287 327q-141 0 -215 -74.5t-74 -252.5z" />
<glyph unicode=":" horiz-adv-x="559" d="M184 63v64q0 66 64 66h63q66 0 66 -66v-64q0 -63 -66 -63h-63q-64 0 -64 63zM184 991v66q0 63 64 63h63q66 0 66 -63v-66q0 -63 -66 -63h-63q-64 0 -64 63z" />
<glyph unicode=";" horiz-adv-x="559" d="M76 -225q0 8 2 12l90 340q16 66 76 66h69q63 0 64 -66q0 -35 -12 -57l-156 -285q-20 -41 -51 -41h-45q-37 0 -37 31zM184 991v66q0 63 64 63h63q66 0 66 -63v-66q0 -63 -66 -63h-63q-64 0 -64 63z" />
<glyph unicode="&#x3c;" d="M193 725v55q0 51 63 86l768 398q14 8 29 8q35 0 34 -49v-52q0 -53 -63 -84l-672 -335l672 -334q63 -33 63 -84v-49q0 -53 -36 -54q-6 0 -27 9l-768 399q-63 35 -63 86z" />
<glyph unicode="=" d="M193 512v33q0 63 63 63h768q63 0 63 -63v-33q0 -63 -63 -63h-768q-63 0 -63 63zM193 961v30q0 66 63 66h768q63 0 63 -66v-30q0 -66 -63 -66h-768q-63 0 -63 66z" />
<glyph unicode="&#x3e;" d="M193 285v49q0 51 63 84l672 334l-672 335q-63 31 -63 84v52q0 49 34 49q14 0 29 -8l768 -400q63 -35 63 -86v-53q0 -51 -63 -86l-768 -399q-20 -8 -27 -9q-36 1 -36 54z" />
<glyph unicode="?" horiz-adv-x="888" d="M129 1440v33q0 63 66 63h213q215 0 315 -86t100 -266q0 -162 -182 -375l-201 -242v-118q0 -66 -63 -66h-49q-63 0 -64 66v79q0 49 29 80l186 223q168 201 168 353q0 193 -239 192h-213q-66 1 -66 64zM264 63v64q0 66 64 66h49q63 0 63 -66v-64q0 -63 -63 -63h-49 q-64 0 -64 63z" />
<glyph unicode="@" horiz-adv-x="1904" d="M133 680q0 170 47 314.5t127 245.5t189.5 173t234.5 105.5t260 33.5q354 0 569.5 -196.5t215.5 -540.5q0 -207 -134.5 -351.5t-345.5 -144.5h-352q-152 0 -242 95.5t-90 265.5q0 168 107.5 272.5t257.5 104.5h207q63 0 63 -66v-542h49q121 0 212 94t91 272 q0 279 -154.5 428.5t-453.5 149.5q-319 0 -501.5 -183.5t-182.5 -547.5q0 -342 185.5 -525.5t484.5 -183.5q123 0 198.5 7t103.5 14.5t34 7.5q47 0 47 -45v-52q0 -16 -3 -25.5t-23.5 -23.5t-58.5 -23.5t-114 -15.5t-184 -6q-164 0 -310.5 51.5t-268.5 154.5t-193.5 279.5 t-71.5 403.5zM788 659q0 -100 42 -155t114 -55h127v479h-94q-82 0 -135.5 -73t-53.5 -196z" />
<glyph unicode="A" horiz-adv-x="1376" d="M57 47q0 10 2 16q55 227 164 592q66 225 173.5 501t162.5 380h256q55 -102 162.5 -377.5t175.5 -503.5q129 -451 164 -592q2 -6 2 -16q0 -47 -59 -47h-72q-51 0 -68 63q-35 150 -80 314h-706q-45 -164 -80 -314q-16 -63 -68 -63h-69q-60 0 -60 47zM383 545h610 q-2 4 -14 46l-18 64q-133 455 -273 721q-139 -266 -272 -721q-4 -10 -33 -110z" />
<glyph unicode="B" horiz-adv-x="1327" d="M193 63v1410q0 63 63 63h465q432 0 432 -383q0 -131 -62.5 -227.5t-154.5 -141.5q248 -84 248 -352q0 -215 -115 -323.5t-334 -108.5h-479q-63 0 -63 63zM383 856h338q113 0 176.5 84t63.5 197q0 123 -58.5 177t-181.5 54h-338v-512zM383 168h352q256 0 256 264 q0 256 -270 256h-338v-520z" />
<glyph unicode="C" horiz-adv-x="1312" d="M113 672v192q0 332 196.5 510t538.5 178q205 0 352 -71v-281q0 -63 -63 -63h-50q-63 0 -63 63v160q-94 25 -209 24q-231 0 -371.5 -127t-140.5 -393v-192q0 -250 126 -385t355 -135h97q115 0 256 47q18 6 28 6q35 0 35 -41v-51q0 -25 -2 -36t-11 -21.5t-28 -16.5 q-141 -55 -278 -55h-97q-336 0 -503.5 187.5t-167.5 500.5z" />
<glyph unicode="D" horiz-adv-x="1456" d="M193 63v1410q0 63 63 63h391q346 0 513 -159.5t167 -479.5v-225q0 -315 -156.5 -493.5t-490.5 -178.5h-424q-63 0 -63 63zM383 168h297q242 0 349.5 124t107.5 380v225q0 248 -122 359.5t-368 111.5h-264v-1200z" />
<glyph unicode="E" horiz-adv-x="1183" d="M193 416v1057q0 63 63 63h735q66 0 66 -63v-41q0 -63 -66 -64h-608v-473h545q63 0 63 -64v-38q0 -66 -63 -66h-545v-328q0 -117 55.5 -174t153.5 -57h399q66 0 66 -64v-41q0 -63 -66 -63h-383q-415 0 -415 416z" />
<glyph unicode="F" horiz-adv-x="1120" d="M193 63v1057q0 416 415 416h353q63 0 63 -63v-41q0 -63 -63 -64h-369q-98 0 -153.5 -57.5t-55.5 -173.5v-242h545q63 0 63 -64v-38q0 -66 -63 -66h-545v-664q0 -63 -64 -63h-63q-63 0 -63 63z" />
<glyph unicode="G" horiz-adv-x="1423" d="M129 672v209q0 324 203 497.5t532 173.5q172 0 361 -57q39 -8 39 -72v-53q0 -41 -35 -41q-8 0 -29 4q-188 51 -336 51q-248 0 -396.5 -119.5t-148.5 -383.5v-209q0 -250 135.5 -385t376.5 -135h66q92 0 190 26v406h-256q-63 0 -63 63v41q0 63 63 64h377q25 0 40.5 -17.5 t15.5 -46.5v-625q-47 -27 -163 -53t-204 -26h-66q-338 0 -520 189.5t-182 498.5z" />
<glyph unicode="H" horiz-adv-x="1519" d="M193 63v1410q0 63 63 63h63q63 0 64 -63v-576h754v576q0 63 63 63h64q63 0 63 -63v-1410q0 -63 -63 -63h-64q-63 0 -63 63v664h-754v-664q0 -63 -64 -63h-63q-63 0 -63 63z" />
<glyph unicode="I" horiz-adv-x="575" d="M193 63v1410q0 63 63 63h63q63 0 64 -63v-1410q0 -63 -64 -63h-63q-63 0 -63 63z" />
<glyph unicode="J" horiz-adv-x="927" d="M96 63v41q0 63 64 64h129q121 0 188.5 74.5t67.5 206.5v919h-322q-63 0 -63 64v41q0 63 63 63h449q63 0 63 -63v-1024q0 -205 -121.5 -327t-324.5 -122h-129q-64 0 -64 63z" />
<glyph unicode="K" horiz-adv-x="1312" d="M193 63v1410q0 63 63 63h63q63 0 64 -63v-592h96l527 592q57 63 96 63h90q45 0 45 -31q0 -16 -14 -32l-590 -664l606 -746q18 -23 18 -34q0 -29 -43 -29h-106q-43 0 -96 63l-541 658h-88v-658q0 -63 -64 -63h-63q-63 0 -63 63z" />
<glyph unicode="L" horiz-adv-x="1056" d="M193 416v1057q0 63 63 63h63q63 0 64 -63v-1074q0 -117 55.5 -174t153.5 -57h369q63 0 63 -64v-41q0 -63 -63 -63h-353q-201 0 -308 104.5t-107 311.5z" />
<glyph unicode="M" horiz-adv-x="1728" d="M193 63v1410q0 63 63 63h55q41 0 70 -41l483 -686l484 686q29 41 67 41h58q63 0 63 -63v-1410q0 -63 -63 -63h-66q-63 0 -64 63v1129l-419 -580q-27 -37 -52 -37h-36q-25 0 -52 37l-401 564v-1113q0 -63 -64 -63h-63q-63 0 -63 63z" />
<glyph unicode="N" horiz-adv-x="1536" d="M193 63v1410q0 63 63 63h25q39 0 69 -41l801 -1094v1072q0 63 66 63h63q63 0 63 -63v-1410q0 -63 -63 -63h-25q-39 0 -69 41l-801 1096l-2 8v-1082q0 -63 -64 -63h-63q-63 0 -63 63z" />
<glyph unicode="O" horiz-adv-x="1503" d="M113 705v126q0 340 164.5 530.5t474.5 190.5q311 0 476 -186t165 -535v-126q0 -340 -166 -530.5t-475 -190.5q-311 0 -475 185.5t-164 535.5zM303 705q0 -285 111.5 -419t337 -134t337 134t111.5 419v126q0 285 -111.5 419t-337 134t-337 -134t-111.5 -419v-126z" />
<glyph unicode="P" horiz-adv-x="1247" d="M193 63v1410q0 63 63 63h432q465 0 465 -496q0 -246 -126 -387t-372 -141h-272v-449q0 -63 -64 -63h-63q-63 0 -63 63zM383 680h272q178 0 242 92t64 268q0 174 -62.5 251t-226.5 77h-289v-688z" />
<glyph unicode="Q" horiz-adv-x="1503" d="M113 705v126q0 340 164.5 530.5t474.5 190.5q311 0 476 -186t165 -535v-126q0 -317 -145.5 -506t-416.5 -211v-76q0 -68 33 -97.5t119 -29.5q96 0 168 14q20 4 29 4q37 0 37 -39v-49q0 -23 -2.5 -34t-11.5 -22t-27 -15q-109 -29 -215 -29q-141 0 -215 80t-74 217v76 q-272 23 -415.5 207t-143.5 510zM303 705q0 -285 111.5 -419t337 -134t337 134t111.5 419v126q0 285 -111.5 419t-337 134t-337 -134t-111.5 -419v-126z" />
<glyph unicode="R" horiz-adv-x="1343" d="M193 63v1410q0 63 63 63h432q240 0 352.5 -111.5t112.5 -353.5q0 -176 -71.5 -278.5t-209.5 -159.5q100 -92 205 -263t154 -307q4 -16 4 -20q0 -43 -57 -43h-82q-27 0 -40.5 14.5t-27.5 48.5q-55 133 -156.5 289t-183.5 223h-305v-512q0 -63 -64 -63h-63q-63 0 -63 63z M383 743h258q319 0 320 328q0 166 -65 231.5t-224 65.5h-289v-625z" />
<glyph unicode="S" horiz-adv-x="1200" d="M113 109v59q0 41 34 41q8 0 29 -4q180 -53 336 -53h63q322 0 322 264q0 117 -54.5 171t-170.5 85l-207 55q-336 94 -336 410q0 186 134 300.5t362 114.5h47q150 0 311 -49q27 -8 34 -23.5t7 -47.5v-54q0 -41 -37 -41q-6 0 -26 4q-182 43 -289 43h-47q-305 0 -306 -247 q0 -109 56.5 -158t169.5 -82l198 -57q72 -20 123.5 -45t106.5 -71t84.5 -124t29.5 -184q0 -199 -136 -315.5t-376 -116.5h-63q-86 0 -196.5 18t-163.5 35q-39 9 -39 72z" />
<glyph unicode="T" horiz-adv-x="1216" d="M33 1432v41q0 63 63 63h1024q63 0 64 -63v-41q0 -63 -64 -64h-415v-1305q0 -63 -66 -63h-64q-63 0 -63 63v1305h-416q-63 1 -63 64z" />
<glyph unicode="U" horiz-adv-x="1472" d="M176 528v945q0 63 64 63h63q66 0 66 -63v-945q0 -195 100 -285.5t266 -90.5q168 0 268.5 91t100.5 285v945q0 63 63 63h66q63 0 63 -63v-945q0 -260 -152.5 -402t-408.5 -142q-264 0 -411.5 142t-147.5 402z" />
<glyph unicode="V" horiz-adv-x="1312" d="M53 1487q0 49 60 49h71q53 0 68 -63q160 -801 412 -1313q262 532 411 1313q14 63 70 63h55q55 0 55 -51q0 -16 -16 -92q-86 -432 -223 -824.5t-240 -568.5h-239q-102 174 -238.5 566t-226.5 827q-19 80 -19 94z" />
<glyph unicode="W" horiz-adv-x="2031" d="M55 1485q0 51 58 51h71q55 0 66 -63q121 -807 342 -1313q211 455 342 1313q10 63 65 63h50q55 0 65 -63q121 -801 342 -1313q211 446 342 1313q10 63 66 63h55q57 0 57 -51q0 -25 -8 -70q-70 -436 -185.5 -831.5t-205.5 -583.5h-234q-66 131 -153.5 407.5t-165.5 608.5 q-170 -719 -319 -1016h-248q-92 188 -208 583.5t-186 831.5q-8 45 -8 70z" />
<glyph unicode="X" d="M59 33q0 12 13 30l452 707l-452 703q-12 18 -13 30q0 33 50 33h102q45 0 88 -63l338 -527l338 527q41 63 88 63h80q47 0 47 -33q0 -12 -12 -30l-439 -685l469 -725q12 -18 13 -30q0 -33 -50 -33h-102q-45 0 -88 63l-356 549l-351 -549q-43 -63 -88 -63h-77q-50 0 -50 33z " />
<glyph unicode="Y" horiz-adv-x="1232" d="M57 1499q0 37 52 37h86q43 0 79 -63l359 -672l356 672q37 63 82 63h72q47 0 47 -37q0 -12 -8 -26l-461 -840v-570q0 -63 -66 -63h-63q-63 0 -64 63v553l-462 857q-9 14 -9 26z" />
<glyph unicode="Z" horiz-adv-x="1247" d="M96 55q0 12 1 21.5t7.5 20t8.5 14.5t13 17t13 17q207 276 433.5 634t316.5 589h-696q-66 0 -66 64v41q0 63 66 63h878q25 0 42 -17.5t17 -41.5q0 -12 -8 -37q-102 -252 -336.5 -640t-416.5 -632h718q63 0 64 -64v-41q0 -63 -64 -63h-923q-31 0 -49.5 15t-18.5 40z" />
<glyph unicode="[" horiz-adv-x="768" d="M193 -193v1663q0 66 63 66h336q47 0 47 -47v-33q0 -29 -10.5 -39t-36.5 -10h-223v-1536h223q47 0 47 -47v-33q0 -29 -10.5 -38t-36.5 -9h-336q-63 0 -63 63z" />
<glyph unicode="\" horiz-adv-x="1024" d="M72 1497q0 39 53 39h37q53 0 80 -63l704 -1666q6 -16 6 -24q0 -39 -53 -39h-39q-47 0 -78 63l-704 1666q-6 14 -6 24z" />
<glyph unicode="]" horiz-adv-x="768" d="M127 1460v33q0 47 49 47h336q63 0 63 -65v-1663q0 -63 -63 -64h-336q-27 0 -38 9.5t-11 37.5v33q0 47 49 47h223v1536h-223q-27 0 -38 10t-11 39z" />
<glyph unicode="^" d="M123 262q0 4 3 13.5t3 13.5l401 768q37 63 86 63h54q49 0 86 -63l397 -768q8 -14 8 -29q0 -37 -49 -37h-49q-55 0 -84 66l-338 672l-334 -672q-29 -66 -84 -66h-49q-51 0 -51 39z" />
<glyph unicode="_" d="M63 -63q0 63 64 63h1024q66 0 66 -63v-33q0 -63 -66 -64h-1022q-66 0 -66 64v33z" />
<glyph unicode="`" horiz-adv-x="389" d="M0 1569q0 31 41 30h98q45 0 86 -63l158 -223q0 -4 3 -10.5t3 -8.5q0 -14 -22 -14h-68q-33 0 -61 33l-224 223q-14 15 -14 33z" />
<glyph unicode="a" horiz-adv-x="1208" d="M121 369v176q0 254 176 414.5t416 160.5h239q63 0 64 -63v-994q0 -63 -64 -63h-49q-63 0 -63 63v146l-80 -80q-150 -145 -320 -145q-141 0 -230 95t-89 290zM297 369q0 -225 174 -226q129 0 305 176l64 66v576h-127q-184 0 -300 -113t-116 -303v-176z" />
<glyph unicode="b" horiz-adv-x="1208" d="M193 63v1410q0 63 63 63h47q66 0 66 -63v-562l80 80q145 145 319 146q141 0 230 -95.5t89 -289.5v-177q0 -254 -176 -414.5t-415 -160.5h-240q-63 0 -63 63zM369 160h127q182 0 298.5 113.5t116.5 301.5v177q0 225 -176 225q-127 0 -303 -176l-63 -66v-575z" />
<glyph unicode="c" horiz-adv-x="1024" d="M121 465v190q0 223 143.5 352.5t335.5 129.5q188 0 320 -80v-226q0 -63 -64 -63h-33q-63 0 -63 63v113q-66 33 -160 33q-131 0 -217 -79t-86 -243v-190q0 -156 79 -239t224 -83q129 0 240 50q16 6 28 6q35 0 35 -43v-45q0 -33 -7 -46.5t-32 -25.5q-111 -55 -264 -55 q-223 0 -351 122.5t-128 358.5z" />
<glyph unicode="d" horiz-adv-x="1208" d="M121 369v176q0 254 176 414.5t416 160.5h127v353q0 63 63 63h49q63 0 64 -63v-1410q0 -63 -64 -63h-49q-63 0 -63 63v146l-80 -80q-150 -145 -320 -145q-141 0 -229 95t-90 290zM297 369q0 -225 174 -226q129 0 305 176l64 66v576h-127q-184 0 -300 -113t-116 -303v-176z " />
<glyph unicode="e" horiz-adv-x="1087" d="M121 432v223q0 223 134 352.5t345 129.5q176 0 279.5 -80t103.5 -242q0 -150 -92 -234.5t-258 -84.5h-336v-64q0 -289 303 -289q43 0 91 7.5t78 16.5l57 18q28 9 30 10q20 4 29 4q35 0 35 -41v-45q0 -33 -7.5 -46.5t-31.5 -25.5q-12 -6 -50 -18.5t-106 -25.5t-125 -13 q-217 0 -348 110.5t-131 337.5zM297 641h287q127 0 176 43t49 131q0 162 -209 162q-303 0 -303 -322v-14z" />
<glyph unicode="f" horiz-adv-x="704" d="M63 1024v33q4 63 64 63h113v47q0 178 99 273.5t269 95.5h64q63 0 63 -63v-33q0 -63 -63 -64h-64q-106 0 -149 -49t-43 -160v-47h223q66 0 66 -63v-33q0 -63 -66 -63h-223v-898q0 -63 -64 -63h-49q-63 0 -63 63v898h-111q-66 0 -66 63z" />
<glyph unicode="g" horiz-adv-x="1208" d="M121 471v74q0 266 160.5 420.5t398.5 154.5h272q63 0 64 -63v-914q0 -279 -154.5 -403.5t-453.5 -124.5h-127q-66 0 -66 66v30q0 66 66 66h127q231 0 331.5 80t100.5 272v47l-17 -8q-6 -4 -36.5 -19.5t-44 -20.5t-43 -18.5t-51 -19.5t-51.5 -13t-61.5 -10.5t-64.5 -3.5 q-152 0 -251 104.5t-99 303.5zM297 471q0 -248 207 -248q141 0 305 80l31 16v642h-160q-178 0 -280.5 -112t-102.5 -304v-74z" />
<glyph unicode="h" horiz-adv-x="1255" d="M193 63v1410q0 63 63 63h47q66 0 66 -63v-562l80 80q145 145 319 146q303 0 303 -385v-689q0 -63 -63 -63h-47q-66 0 -66 63v689q0 225 -174 225q-113 0 -289 -176l-63 -66v-672q0 -63 -66 -63h-47q-63 0 -63 63z" />
<glyph unicode="i" horiz-adv-x="591" d="M35 1024v33q0 63 61 63h240q63 0 63 -63v-994q0 -63 -63 -63h-47q-66 0 -66 63v898h-125q-63 0 -63 63zM223 1407v66q0 63 66 63h47q63 0 63 -63v-66q0 -63 -63 -64h-47q-66 1 -66 64z" />
<glyph unicode="j" horiz-adv-x="608" d="M-119 -289q0 66 68 66h24q147 0 207 77.5t60 241.5v865h-125q-66 0 -66 63v33q0 63 66 63h237q29 0 46.5 -16.5t17.5 -44.5v-930q0 -266 -111.5 -390t-357.5 -124q-66 0 -66 66v30zM240 1407v66q0 63 63 63h49q63 0 64 -63v-66q0 -63 -64 -64h-49q-63 1 -63 64z" />
<glyph unicode="k" horiz-adv-x="1103" d="M193 63v1410q0 63 63 63h47q66 0 66 -63v-785h110l316 369q53 63 100 63h78q47 0 47 -33q0 -16 -14 -30l-381 -441l403 -553q12 -18 12 -30q0 -33 -47 -33h-82q-47 0 -94 63l-338 465h-110v-465q0 -63 -66 -63h-47q-63 0 -63 63z" />
<glyph unicode="l" horiz-adv-x="559" d="M4 1440v33q0 63 62 63h237q66 0 66 -63v-1410q0 -63 -66 -63h-47q-63 0 -63 63v1313h-125q-64 1 -64 64z" />
<glyph unicode="m" horiz-adv-x="1959" d="M193 63v994q0 63 63 63h47q66 0 66 -63v-146l80 80q145 145 319 146q223 0 283 -209h28l68 63q150 145 326 146q303 0 303 -385v-689q0 -63 -64 -63h-49q-63 0 -64 63v689q0 225 -176 225q-111 0 -286 -176l-66 -66v-672q0 -63 -63 -63h-47q-66 0 -66 63v689 q0 225 -174 225q-113 0 -289 -176l-63 -66v-672q0 -63 -66 -63h-47q-63 0 -63 63z" />
<glyph unicode="n" horiz-adv-x="1255" d="M193 63v994q0 63 63 63h47q66 0 66 -63v-146l80 80q145 145 319 146q303 0 303 -385v-689q0 -63 -63 -63h-47q-66 0 -66 63v689q0 225 -174 225q-113 0 -289 -176l-63 -66v-672q0 -63 -66 -63h-47q-63 0 -63 63z" />
<glyph unicode="o" horiz-adv-x="1200" d="M113 575q0 260 123.5 411t363.5 151q248 0 367.5 -148.5t119.5 -413.5q0 -281 -122.5 -436t-364.5 -155q-487 -1 -487 591zM289 575q0 -432 311 -432t311 432q0 199 -69.5 300.5t-241.5 101.5t-241.5 -101.5t-69.5 -300.5z" />
<glyph unicode="p" horiz-adv-x="1208" d="M193 -319v1376q0 63 63 63h47q66 0 66 -63v-146l80 80q145 145 319 146q141 0 230 -95.5t89 -289.5v-177q0 -254 -176 -414.5t-415 -160.5h-127v-319q0 -66 -66 -66h-47q-63 0 -63 66zM369 160h127q182 0 298.5 113.5t116.5 301.5v177q0 225 -176 225q-127 0 -303 -176 l-63 -66v-575z" />
<glyph unicode="q" horiz-adv-x="1208" d="M121 369v176q0 254 176 414.5t416 160.5h239q63 0 64 -63v-1376q0 -66 -64 -66h-49q-63 0 -63 66v528l-80 -80q-150 -145 -320 -145q-141 0 -229 95t-90 290zM297 369q0 -225 174 -226q129 0 305 176l64 66v576h-127q-184 0 -300 -113t-116 -303v-176z" />
<glyph unicode="r" horiz-adv-x="815" d="M193 63v994q0 63 63 63h47q66 0 66 -63v-185l16 25q145 223 328 223h8q63 0 63 -63v-66q0 -63 -63 -63h-16q-125 0 -209 -80l-127 -127v-658q0 -63 -66 -63h-47q-63 0 -63 63z" />
<glyph unicode="s" horiz-adv-x="1056" d="M143 815q0 150 117 236t315 86q90 0 248 -23q31 -4 40 -16.5t9 -42.5v-58q0 -45 -53 -45q-4 0 -84 12.5t-160 12.5q-256 0 -256 -162q0 -66 33 -89.5t111 -41.5q10 -2 16 -4l137 -33q150 -35 231 -106.5t81 -221.5q0 -174 -127 -254.5t-322 -80.5q-178 0 -278 28 q-31 8 -40 19.5t-9 40.5v55q0 47 51 47q12 0 20 -2q129 -29 256 -29q272 0 273 176q0 121 -177 160l-167 41q-265 62 -265 295z" />
<glyph unicode="t" horiz-adv-x="831" d="M66 1024v33q0 63 63 63h111v193q0 63 63 63h49q63 0 64 -63v-193h256q63 0 63 -63v-33q0 -63 -63 -63h-256v-592q0 -98 50 -153.5t142 -55.5h97q63 0 63 -64v-33q0 -63 -63 -63h-97q-170 0 -269 95t-99 274v592h-113q-61 0 -61 63z" />
<glyph unicode="u" horiz-adv-x="1255" d="M184 369v688q0 63 64 63h49q63 0 63 -63v-688q0 -225 177 -226q111 0 286 176l66 64v674q0 63 63 63h47q66 0 66 -63v-994q0 -63 -66 -63h-47q-63 0 -63 63v146l-80 -82q-147 -143 -322 -143q-303 0 -303 385z" />
<glyph unicode="v" horiz-adv-x="1071" d="M113 831v226q0 63 63 63h47q66 0 66 -63v-226q0 -223 73.5 -413.5t174.5 -288.5q100 100 173.5 289.5t73.5 412.5v226q0 63 64 63h47q66 0 66 -63v-226q0 -256 -114 -496.5t-222 -334.5h-193q-104 90 -211.5 331.5t-107.5 499.5z" />
<glyph unicode="w" horiz-adv-x="1552" d="M113 831v226q0 63 63 63h47q66 0 66 -63v-226q0 -223 59.5 -413.5t138.5 -288.5q80 100 140.5 289.5t60.5 412.5v226q0 63 64 63h49q63 0 63 -63v-226q0 -223 60.5 -412.5t140.5 -289.5q80 100 139.5 289.5t59.5 412.5v226q0 63 63 63h49q63 0 64 -63v-226 q0 -264 -87 -498.5t-186 -332.5h-190q-49 53 -116.5 177t-84.5 208q-16 -84 -83.5 -208t-117.5 -177h-190q-98 98 -185 332.5t-87 498.5z" />
<glyph unicode="x" horiz-adv-x="1024" d="M72 35q0 10 12 28l336 496l-322 498q-12 16 -12 28q0 35 47 35h78q45 0 88 -63l223 -344l234 344q43 63 88 63h61q49 0 49 -35q0 -16 -10 -28l-330 -486l330 -508q10 -14 10 -28q0 -35 -49 -35h-74q-47 0 -90 63l-231 357l-242 -357q-43 -63 -90 -63h-57q-49 0 -49 35z " />
<glyph unicode="y" horiz-adv-x="1255" d="M184 449v608q0 63 64 63h49q63 0 63 -63v-608q0 -225 172 -226q115 0 291 176l66 66v592q0 63 63 63h47q66 0 66 -63v-914q0 -279 -154.5 -403.5t-453.5 -124.5h-129q-63 0 -64 66v30q0 66 64 66h129q229 0 330.5 81t101.5 271v160l-80 -80q-145 -145 -326 -146 q-299 1 -299 386z" />
<glyph unicode="z" horiz-adv-x="1024" d="M113 63v33q0 43 30 80q156 164 330 388t270 397h-532q-68 0 -68 63v33q0 63 66 63h672q63 0 63 -63v-33q0 -51 -14 -80q-72 -158 -271.5 -416t-322.5 -368h559q66 0 66 -64v-33q0 -63 -66 -63h-719q-59 0 -63 63z" />
<glyph unicode="{" horiz-adv-x="960" d="M129 616v48q0 31 33 34q147 16 217 72.5t70 157.5v256q0 186 76.5 269t275.5 83h47q47 0 47 -47v-33q0 -29 -10.5 -39t-36.5 -10h-47q-106 0 -141 -42t-35 -165v-256q0 -139 -71 -207.5t-194 -95.5q123 -29 194 -97.5t71 -207.5v-256q0 -123 34.5 -166t141.5 -43h47 q47 0 47 -47v-33q0 -29 -10.5 -38t-36.5 -9h-47q-199 0 -275.5 83t-76.5 269v256q0 201 -287 230q-33 3 -33 34z" />
<glyph unicode="|" horiz-adv-x="559" d="M201 -319v1916q0 66 63 66h33q63 0 63 -64v-1918q0 -66 -63 -66h-33q-63 0 -63 66z" />
<glyph unicode="}" horiz-adv-x="960" d="M63 -176q0 47 50 47h47q106 0 141 43t35 166v256q0 139 70.5 207.5t193.5 97.5q-123 27 -193.5 95.5t-70.5 207.5v256q0 121 -35 164t-141 43h-47q-27 0 -38.5 10t-11.5 39v33q0 47 50 47h47q199 0 275.5 -83t76.5 -269v-256q0 -100 69.5 -156.5t217.5 -73.5 q31 -4 30 -34v-48q0 -31 -30 -34q-287 -29 -287 -230v-256q0 -186 -77 -269t-275 -83h-47q-27 0 -38.5 9t-11.5 38v33z" />
<glyph unicode="~" d="M193 614v45q0 47 63 105q72 68 176 67q76 0 223.5 -67.5t200.5 -67.5q106 0 168 66q25 27 41 26q23 0 22 -43v-38q0 -49 -63 -105q-76 -66 -176 -65q-76 0 -223.5 67.5t-200.5 67.5q-100 0 -168 -74q-25 -27 -41 -27q-22 0 -22 43z" />
<glyph unicode="&#xa1;" horiz-adv-x="559" d="M193 1407v66q0 63 63 63h47q66 0 66 -63v-66q0 -63 -66 -64h-47q-63 1 -63 64zM195 63l20 977q0 47 49 47h33q47 0 47 -47l23 -977q0 -63 -66 -63h-43q-63 0 -63 63z" />
<glyph unicode="&#xa2;" d="M113 672v192q0 297 160.5 472t447.5 208v168q0 63 63 64h31q66 0 66 -64v-160q131 -6 256 -43q63 -20 63 -75v-39q0 -57 -45 -58q-2 0 -18 4q-158 43 -322 43q-231 0 -371.5 -127t-140.5 -393v-192q0 -250 126 -385t355 -135h97q111 0 256 47q16 4 20 4q43 0 43 -53v-39 q0 -59 -63 -80q-129 -45 -242 -47v-177q0 -63 -64 -63h-30q-66 0 -66 63v179q-311 14 -466.5 198.5t-155.5 487.5z" />
<glyph unicode="&#xa3;" d="M127 63v41q0 63 66 64h30q162 111 162 377v182h-129q-63 0 -63 66v38q0 63 63 64h129v145q0 225 141.5 360.5t370.5 135.5h160q63 0 63 -63v-41q0 -63 -63 -64h-160q-158 0 -240 -83t-82 -245v-145h386q63 0 63 -64v-38q0 -66 -63 -66h-386v-182q0 -279 -159 -377h641 q63 0 63 -64v-41q0 -63 -63 -63h-864q-66 0 -66 63z" />
<glyph unicode="&#xa4;" horiz-adv-x="1024" d="M57 1071l93 94l139 -155q98 84 235 84h2q143 0 236 -82l145 153l92 -94l-161 -145q72 -96 71 -242q0 -156 -71 -250l153 -151l-90 -90l-141 155q-92 -86 -240 -86q-145 0 -233 82l-137 -151l-89 90l148 143q-76 102 -76 248q0 150 80 252zM279 676q0 -137 74.5 -211 t166.5 -74q98 0 171 73t73 218q0 115 -64.5 199t-177.5 84h-2q-109 0 -175 -83t-66 -206z" />
<glyph unicode="&#xa5;" d="M74 1501q0 35 51 35h82q47 0 88 -63l360 -609l349 609q37 63 86 63h65q51 0 51 -35q0 -8 -10 -28l-461 -768v-152h352q63 0 64 -66v-38q0 -66 -64 -66h-352v-320q0 -63 -63 -63h-64q-63 0 -63 63v320h-352q-66 0 -66 66v38q0 66 66 66h352v152l-461 768q-10 20 -10 28z " />
<glyph unicode="&#xa6;" horiz-adv-x="559" d="M201 -319v702q0 66 63 66h33q63 0 63 -66v-702q0 -66 -63 -66h-33q-63 0 -63 66zM201 895v702q0 66 63 66h33q63 0 63 -64v-704q0 -63 -63 -64h-33q-63 1 -63 64z" />
<glyph unicode="&#xa7;" horiz-adv-x="1024" d="M63 -281q0 66 64 66h344q217 0 217 168q0 137 -143 231l-361 238q-63 41 -63 90v72q0 49 33 49q14 0 30 -10l457 -295q240 -154 240 -369q0 -158 -119 -251t-297 -93h-338q-63 0 -64 66v38zM209 1192q0 158 117.5 251t298.5 93h336q63 0 63 -63v-41q0 -63 -63 -64h-345 q-217 0 -217 -168q0 -137 146 -231l358 -240q66 -39 66 -90v-72q0 -47 -35 -47q-16 0 -31 10l-454 293q-240 154 -240 369z" />
<glyph unicode="&#xa8;" horiz-adv-x="671" d="M0 1343v64q0 66 63 66h50q63 0 63 -66v-64q0 -63 -63 -63h-50q-63 0 -63 63zM496 1343v64q0 66 63 66h49q63 0 64 -66v-64q0 -63 -64 -63h-49q-63 0 -63 63z" />
<glyph unicode="&#xa9;" horiz-adv-x="1759" d="M96 784.5q0 333.5 222.5 542.5t562.5 209q338 0 561 -210t223 -541.5t-223 -541.5t-561 -210q-340 0 -562.5 209t-222.5 542.5zM223 784.5q0 -280.5 180.5 -461t477.5 -180.5q295 0 475 180.5t180 461t-180 459.5t-475 179q-297 0 -477.5 -179t-180.5 -459.5zM479 784 q0 145 71 241.5t175 135.5t236 39q63 0 161 -24q31 -8 31 -37v-31q0 -31 -18 -31q-8 0 -13 2q-98 25 -161 25q-141 0 -230.5 -80t-89.5 -239.5t89 -239.5t231 -80q90 0 161 20q4 2 13 2q18 0 18 -28v-31q0 -31 -31 -39q-86 -20 -161 -20q-207 0 -344.5 101t-137.5 314z" />
<glyph unicode="&#xaa;" horiz-adv-x="1007" d="M133 958v134q0 199 151.5 321.5t356.5 122.5h207q55 0 55 -47v-764q0 -51 -55 -51h-39q-57 0 -57 51v109l-68 -60q-131 -113 -276 -112q-121 0 -198 73t-77 223zM285 958q0 -174 151 -174q98 0 262 136l54 53v440h-111q-156 0 -256 -87t-100 -234v-134z" />
<glyph unicode="&#xab;" horiz-adv-x="1200" d="M127 670v39q0 43 66 98l319 272q18 16 37 17q27 0 26 -43v-78q0 -47 -63 -98l-223 -189l223 -186q63 -51 63 -99v-77q0 -45 -28 -45q-16 0 -35 16l-319 272q-66 60 -66 101zM639 670v39q0 43 66 98l319 272q18 16 37 17q27 0 26 -43v-78q0 -47 -63 -98l-223 -189 l223 -186q63 -51 63 -99v-77q0 -45 -28 -45q-16 0 -35 16l-319 272q-66 60 -66 101z" />
<glyph unicode="&#xac;" d="M193 735v33q0 63 63 63h768q63 0 63 -63v-399q0 -66 -63 -66h-33q-63 0 -63 66v303h-672q-63 0 -63 63z" />
<glyph unicode="&#xad;" horiz-adv-x="831" d="M127 735v33q0 63 66 63h446q66 0 66 -63v-33q0 -63 -66 -63h-444q-68 0 -68 63z" />
<glyph unicode="&#xae;" horiz-adv-x="1759" d="M96 784.5q0 333.5 222.5 542.5t562.5 209q338 0 561 -210t223 -541.5t-223 -541.5t-561 -210q-340 0 -562.5 209t-222.5 542.5zM223 784.5q0 -280.5 180.5 -461t477.5 -180.5q295 0 475 180.5t180 461t-180 459.5t-475 179q-297 0 -477.5 -179t-180.5 -459.5zM575 416 v735q0 49 50 49h223q336 0 336 -256q0 -86 -44 -147.5t-124 -83.5l172 -297q8 -14 8 -25q0 -23 -39 -22h-78q-39 0 -65 47l-133 239h-146v-239q0 -47 -47 -47h-63q-50 0 -50 47zM735 752h113q76 0 126 50t50 142q0 80 -49 120t-127 40h-113v-352z" />
<glyph unicode="&#xaf;" horiz-adv-x="512" d="M0 1327v35q0 47 47 47h418q47 0 47 -47v-35q0 -47 -47 -47h-418q-47 0 -47 47z" />
<glyph unicode="&#x2c9;" horiz-adv-x="512" d="M0 1327v35q0 47 47 47h418q47 0 47 -47v-35q0 -47 -47 -47h-418q-47 0 -47 47z" />
<glyph unicode="&#xb0;" horiz-adv-x="960" d="M141 1100q0 227 84 336.5t262.5 109.5t262.5 -109.5t84 -336.5q0 -225 -84 -335t-262.5 -110t-262.5 110t-84 335zM299 1100q0 -172 42 -246t146 -74q106 0 148.5 72t42.5 248t-42 249.5t-148.5 73.5t-147.5 -72.5t-41 -250.5z" />
<glyph unicode="&#xb1;" d="M193 -63q0 63 63 63h768q63 0 63 -63v-33q0 -63 -63 -64h-768q-63 0 -63 64v33zM193 735v33q0 63 63 63h303v306q0 63 66 63h30q66 0 66 -63v-306h303q63 0 63 -63v-33q0 -63 -63 -63h-303v-303q0 -66 -66 -66h-30q-66 0 -66 66v303h-303q-63 0 -63 63z" />
<glyph unicode="&#xb2;" horiz-adv-x="843" d="M98 715v76q0 184 205 282l113 55q82 39 114.5 70t32.5 90q0 72 -43 98.5t-127 26.5h-217q-55 0 -55 51v23q0 49 55 49h217q326 0 326 -248q0 -88 -58.5 -150.5t-168.5 -111.5l-113 -51q-76 -35 -101.5 -79t-25.5 -108h420q55 0 55 -53v-20q0 -51 -55 -51h-518 q-25 0 -40.5 14t-15.5 37z" />
<glyph unicode="&#xb3;" horiz-adv-x="843" d="M109 1460v27q0 49 55 49h229q326 0 326 -203q0 -66 -22.5 -105.5t-88.5 -80.5q131 -66 131 -213q0 -129 -99 -199.5t-257 -70.5h-217q-57 0 -57 51v20q0 53 55 53h219q92 0 145.5 37t53.5 109q0 131 -189 131h-123q-57 0 -57 49v23q0 49 55 49h187q109 55 108 127 q0 57 -43 76.5t-137 19.5h-217q-57 0 -57 51z" />
<glyph unicode="&#xb4;" horiz-adv-x="389" d="M0 1294q0 2 8 19l156 223q45 63 86 63h100q39 0 39 -30q0 -16 -12 -33l-225 -223q-29 -33 -62 -33h-65q-25 0 -25 14z" />
<glyph unicode="&#xb5;" horiz-adv-x="1255" d="M184 -319v1376q0 63 64 63h49q63 0 63 -63v-703q0 -211 177 -211q111 0 286 176l66 64v674q0 63 63 63h47q66 0 66 -63v-801q0 -119 25 -193q4 -16 4 -20q0 -43 -52 -43h-49q-57 0 -80 63q-20 57 -24 144l-80 -78q-74 -72 -147.5 -108.5t-174.5 -36.5q-70 0 -127 22v-325 q0 -66 -63 -66h-49q-64 0 -64 66z" />
<glyph unicode="&#x3bc;" horiz-adv-x="1255" d="M184 -319v1376q0 63 64 63h49q63 0 63 -63v-703q0 -211 177 -211q111 0 286 176l66 64v674q0 63 63 63h47q66 0 66 -63v-801q0 -119 25 -193q4 -16 4 -20q0 -43 -52 -43h-49q-57 0 -80 63q-20 57 -24 144l-80 -78q-74 -72 -147.5 -108.5t-174.5 -36.5q-70 0 -127 22v-325 q0 -66 -63 -66h-49q-64 0 -64 66z" />
<glyph unicode="&#xb6;" horiz-adv-x="1488" d="M63 960.5q0 276.5 163 426t415 149.5h240q63 0 63 -63v-1792q0 -66 -63 -66h-50q-63 0 -63 66v702h-127q-252 0 -415 150.5t-163 427zM1120 -319v1789q0 66 64 66h49q63 0 63 -63v-1792q0 -66 -63 -66h-49q-64 0 -64 66z" />
<glyph unicode="&#xb7;" horiz-adv-x="559" d="M184 705v63q0 63 64 63h63q66 0 66 -63v-63q0 -66 -66 -66h-63q-64 0 -64 66z" />
<glyph unicode="&#x2219;" horiz-adv-x="559" d="M184 705v63q0 63 64 63h63q66 0 66 -63v-63q0 -66 -66 -66h-63q-64 0 -64 66z" />
<glyph unicode="&#xb8;" horiz-adv-x="440" d="M0 -319q0 47 47 47h146q111 0 110 71q0 35 -31.5 72t-70.5 57v25h110q55 -25 92 -73t37 -95q0 -86 -63.5 -128t-161.5 -42h-168q-47 0 -47 49v17z" />
<glyph unicode="&#xb9;" horiz-adv-x="843" d="M111 1348v30q0 41 49 58l264 92q23 8 59 8h11q61 0 61 -49v-772q0 -51 -61 -51h-37q-57 0 -58 51v671l-225 -77q-16 -4 -22 -4q-41 0 -41 43z" />
<glyph unicode="&#xba;" horiz-adv-x="1024" d="M92 1118q0 199 106.5 310.5t313.5 111.5q420 0 420 -422q0 -217 -105.5 -332.5t-314.5 -115.5q-420 -1 -420 448zM244 1118q0 -156 60.5 -240.5t207.5 -84.5t207.5 85t60.5 240q0 152 -59 225.5t-209 73.5t-209 -73.5t-59 -225.5z" />
<glyph unicode="&#xbb;" horiz-adv-x="1200" d="M113 326v77q0 47 63 99l223 186l-223 189q-63 51 -63 98v78q0 43 26 43q18 0 37 -17l320 -272q63 -53 63 -98v-39q0 -43 -63 -101l-320 -272q-18 -16 -35 -16q-28 0 -28 45zM625 326v77q0 47 63 99l223 186l-223 189q-63 51 -63 98v78q0 43 26 43q18 0 37 -17l320 -272 q63 -53 63 -98v-39q0 -43 -63 -101l-320 -272q-18 -16 -35 -16q-28 0 -28 45z" />
<glyph unicode="&#xbc;" horiz-adv-x="1921" d="M127 1348v30q0 41 49 58l264 92q23 8 60 8h10q59 0 59 -49v-772q0 -51 -59 -51h-39q-55 0 -55 51v671l-226 -77q-16 -4 -22 -4q-41 0 -41 43zM526 27q0 10 6 20l732 1442q25 47 63 47h29q39 0 39 -27q0 -10 -6 -20l-734 -1442q-25 -47 -63 -47h-29q-37 0 -37 27z M1087 242v10q0 39 15 53q139 174 225 520q14 47 64 47h41q55 0 55 -45q0 -12 -17 -67q-61 -215 -206 -449h278v195q0 51 57 51h41q57 0 58 -51v-195h67q57 0 58 -51v-18q0 -47 -58 -47h-67v-146q0 -49 -58 -49h-41q-57 0 -57 49v146h-395q-60 0 -60 47z" />
<glyph unicode="&#xbd;" horiz-adv-x="1921" d="M127 1348v30q0 41 49 58l264 92q23 8 60 8h10q59 0 59 -49v-772q0 -51 -59 -51h-39q-55 0 -55 51v671l-226 -77q-16 -4 -22 -4q-41 0 -41 43zM526 27q0 10 6 20l732 1442q25 47 63 47h29q39 0 39 -27q0 -10 -6 -20l-734 -1442q-25 -47 -63 -47h-29q-37 0 -37 27zM1135 49 v78q0 184 204 283l113 55q82 39 114.5 69.5t32.5 90.5q0 72 -43 98.5t-126 26.5h-218q-57 0 -57 51v20q0 51 57 51h218q324 0 323 -247q0 -160 -225 -263l-115 -53q-74 -35 -99.5 -79t-25.5 -105h420q55 0 55 -53v-23q0 -49 -55 -49h-518q-55 0 -55 49z" />
<glyph unicode="&#xbe;" horiz-adv-x="1921" d="M111 1460v27q0 49 55 49h229q326 0 326 -203q0 -66 -22.5 -105.5t-88.5 -80.5q131 -66 131 -213q0 -129 -99 -199.5t-259 -70.5h-215q-57 0 -57 51v20q0 53 55 53h217q201 0 201 146q0 131 -189 131h-123q-59 0 -59 49v23q0 49 57 49h187q109 55 108 127q0 57 -43 76.5 t-139 19.5h-215q-57 0 -57 51zM526 27q0 10 6 20l732 1442q25 47 63 47h29q39 0 39 -27q0 -10 -6 -20l-734 -1442q-25 -47 -63 -47h-29q-37 0 -37 27zM1087 242v10q0 39 15 53q139 174 225 520q14 47 64 47h41q55 0 55 -45q0 -12 -17 -67q-61 -215 -206 -449h278v195 q0 51 57 51h41q57 0 58 -51v-195h67q57 0 58 -51v-18q0 -47 -58 -47h-67v-146q0 -49 -58 -49h-41q-57 0 -57 49v146h-395q-60 0 -60 47z" />
<glyph unicode="&#xbf;" horiz-adv-x="888" d="M63 352q0 158 183 375l203 242v118q0 63 63 64h47q66 0 66 -64v-79q0 -49 -29 -80l-188 -223q-168 -205 -168 -353q0 -193 239 -192h215q63 0 64 -64v-33q0 -63 -64 -63h-215q-215 0 -315.5 86t-100.5 266zM449 1407v66q0 63 63 63h47q66 0 66 -63v-66q0 -63 -66 -64h-47 q-63 1 -63 64z" />
<glyph unicode="&#xc0;" horiz-adv-x="1376" d="M57 47q0 10 2 16q55 227 164 592q66 225 173.5 501t162.5 380h256q55 -102 162.5 -377.5t175.5 -503.5q129 -451 164 -592q2 -6 2 -16q0 -47 -59 -47h-72q-51 0 -68 63q-35 150 -80 314h-706q-45 -164 -80 -314q-16 -63 -68 -63h-69q-60 0 -60 47zM383 545h610 q-2 4 -14 46l-18 64q-133 455 -273 721q-139 -266 -272 -721q-4 -10 -33 -110zM469 1985q0 31 41 30h98q45 0 86 -63l158 -223q0 -4 3 -10.5t3 -8.5q0 -14 -22 -14h-68q-33 0 -61 33l-224 223q-14 15 -14 33z" />
<glyph unicode="&#xc1;" horiz-adv-x="1376" d="M57 47q0 10 2 16q55 227 164 592q66 225 173.5 501t162.5 380h256q55 -102 162.5 -377.5t175.5 -503.5q129 -451 164 -592q2 -6 2 -16q0 -47 -59 -47h-72q-51 0 -68 63q-35 150 -80 314h-706q-45 -164 -80 -314q-16 -63 -68 -63h-69q-60 0 -60 47zM383 545h610 q-2 4 -14 46l-18 64q-133 455 -273 721q-139 -266 -272 -721q-4 -10 -33 -110zM524 1710q0 2 8 19l156 223q45 63 86 63h100q39 0 39 -30q0 -18 -12 -33l-225 -223q-29 -33 -62 -33h-65q-25 0 -25 14z" />
<glyph unicode="&#xc2;" horiz-adv-x="1376" d="M57 47q0 10 2 16q55 227 164 592q66 225 173.5 501t162.5 380h256q55 -102 162.5 -377.5t175.5 -503.5q129 -451 164 -592q2 -6 2 -16q0 -47 -59 -47h-72q-51 0 -68 63q-35 150 -80 314h-706q-45 -164 -80 -314q-16 -63 -68 -63h-69q-60 0 -60 47zM348 1724q0 12 19 35 l172 193q53 63 98 63h104q47 0 101 -63l168 -193q18 -23 18 -35q0 -29 -45 -28h-29q-39 0 -102 63l-162 168l-162 -168q-63 -63 -102 -63h-33q-45 -1 -45 28zM383 545h610q-2 4 -14 46l-18 64q-133 455 -273 721q-139 -266 -272 -721q-4 -10 -33 -110z" />
<glyph unicode="&#xc3;" horiz-adv-x="1376" d="M57 47q0 10 2 16q55 227 164 592q66 225 173.5 501t162.5 380h256q55 -102 162.5 -377.5t175.5 -503.5q129 -451 164 -592q2 -6 2 -16q0 -47 -59 -47h-72q-51 0 -68 63q-35 150 -80 314h-706q-45 -164 -80 -314q-16 -63 -68 -63h-69q-60 0 -60 47zM336 1769v33 q0 39 63 109q66 74 138 74q59 0 165.5 -80t137.5 -80q70 0 135 88q27 39 45 39q20 0 20 -41v-25q0 -49 -65 -121q-66 -70 -135 -69q-57 0 -164 79.5t-139 79.5q-70 0 -138 -90q-25 -35 -43 -34q-20 -1 -20 38zM383 545h610q-2 4 -14 46l-18 64q-133 455 -273 721 q-139 -266 -272 -721q-4 -10 -33 -110z" />
<glyph unicode="&#xc4;" horiz-adv-x="1376" d="M57 47q0 10 2 16q55 227 164 592q66 225 173.5 501t162.5 380h256q55 -102 162.5 -377.5t175.5 -503.5q129 -451 164 -592q2 -6 2 -16q0 -47 -59 -47h-72q-51 0 -68 63q-35 150 -80 314h-706q-45 -164 -80 -314q-16 -63 -68 -63h-69q-60 0 -60 47zM352 1759v64 q0 66 64 65h49q63 0 63 -65v-64q0 -63 -63 -63h-49q-64 0 -64 63zM383 545h610q-2 4 -14 46l-18 64q-133 455 -273 721q-139 -266 -272 -721q-4 -10 -33 -110zM848 1759v64q0 66 63 65h50q63 0 63 -65v-64q0 -63 -63 -63h-50q-63 0 -63 63z" />
<glyph unicode="&#xc5;" horiz-adv-x="1376" d="M57 47q0 10 2 16q55 227 164 592q66 225 173.5 501t162.5 380h256q55 -102 162.5 -377.5t175.5 -503.5q129 -451 164 -592q2 -6 2 -16q0 -47 -59 -47h-72q-51 0 -68 63q-35 150 -80 314h-706q-45 -164 -80 -314q-16 -63 -68 -63h-69q-60 0 -60 47zM383 545h610 q-2 4 -14 46l-18 64q-133 455 -273 721q-139 -266 -272 -721q-4 -10 -33 -110zM457 1905q0 90 58 148t173 58t174.5 -59t59.5 -147q0 -90 -59.5 -149.5t-174.5 -59.5t-173 59.5t-58 149.5zM553 1904.5q0 -53.5 34 -91t101.5 -37.5t102 37.5t34.5 91t-34.5 90.5t-102 37 t-101.5 -37t-34 -90.5z" />
<glyph unicode="&#xc6;" horiz-adv-x="1808" d="M57 47q0 10 2 16q55 227 164 592q68 227 175.5 503t160.5 378h1057q63 0 63 -63v-41q0 -63 -63 -64h-606v-473h542q63 0 64 -64v-38q0 -66 -64 -66h-542v-328q0 -231 207 -231h399q63 0 63 -64v-41q0 -63 -63 -63h-383q-399 0 -418 377h-481q-45 -164 -80 -314 q-16 -63 -68 -63h-69q-60 0 -60 47zM383 545h432v831h-127q-139 -266 -272 -721q-4 -10 -33 -110z" />
<glyph unicode="&#xc7;" horiz-adv-x="1312" d="M113 672v192q0 332 196.5 510t538.5 178q205 0 352 -71v-281q0 -63 -63 -63h-50q-63 0 -63 63v160q-94 25 -209 24q-231 0 -371.5 -127t-140.5 -393v-192q0 -250 126 -385t355 -135h97q115 0 256 47q18 6 28 6q35 0 35 -41v-51q0 -25 -2 -36t-11 -21.5t-28 -16.5 q-141 -55 -278 -55h-97q-336 0 -503.5 187.5t-167.5 500.5zM549 -319q0 47 47 47h145q111 0 111 71q0 35 -32 72t-70 57v25h110q55 -25 92 -73t37 -95q0 -86 -63.5 -128t-161.5 -42h-168q-47 0 -47 49v17z" />
<glyph unicode="&#xc8;" horiz-adv-x="1183" d="M193 416v1057q0 63 63 63h735q66 0 66 -63v-41q0 -63 -66 -64h-608v-473h545q63 0 63 -64v-38q0 -66 -63 -66h-545v-328q0 -117 55.5 -174t153.5 -57h399q66 0 66 -64v-41q0 -63 -66 -63h-383q-415 0 -415 416zM381 1985q0 31 41 30h98q45 0 86 -63l158 -223 q0 -4 3 -10.5t3 -8.5q0 -14 -22 -14h-68q-33 0 -62 33l-223 223q-14 15 -14 33z" />
<glyph unicode="&#xc9;" horiz-adv-x="1183" d="M193 416v1057q0 63 63 63h735q66 0 66 -63v-41q0 -63 -66 -64h-608v-473h545q63 0 63 -64v-38q0 -66 -63 -66h-545v-328q0 -117 55.5 -174t153.5 -57h399q66 0 66 -64v-41q0 -63 -66 -63h-383q-415 0 -415 416zM444 1710q0 2 9 19l155 223q45 63 86 63h101q39 0 39 -30 q0 -18 -13 -33l-225 -223q-29 -33 -61 -33h-66q-25 0 -25 14z" />
<glyph unicode="&#xca;" horiz-adv-x="1183" d="M193 416v1057q0 63 63 63h735q66 0 66 -63v-41q0 -63 -66 -64h-608v-473h545q63 0 63 -64v-38q0 -66 -63 -66h-545v-328q0 -117 55.5 -174t153.5 -57h399q66 0 66 -64v-41q0 -63 -66 -63h-383q-415 0 -415 416zM268 1724q0 12 19 35l172 193q53 63 98 63h105 q47 0 100 -63l168 -193q18 -23 18 -35q0 -29 -45 -28h-29q-39 0 -102 63l-162 168l-161 -168q-63 -63 -103 -63h-33q-45 -1 -45 28z" />
<glyph unicode="&#xcb;" horiz-adv-x="1183" d="M193 416v1057q0 63 63 63h735q66 0 66 -63v-41q0 -63 -66 -64h-608v-473h545q63 0 63 -64v-38q0 -66 -63 -66h-545v-328q0 -117 55.5 -174t153.5 -57h399q66 0 66 -64v-41q0 -63 -66 -63h-383q-415 0 -415 416zM272 1759v64q0 66 64 65h49q63 0 64 -65v-64q0 -63 -64 -63 h-49q-64 0 -64 63zM768 1759v64q0 66 63 65h50q63 0 63 -65v-64q0 -63 -63 -63h-50q-63 0 -63 63z" />
<glyph unicode="&#xcc;" horiz-adv-x="575" d="M84 1985q0 31 41 30h98q45 0 86 -63l158 -223q0 -4 3 -10.5t3 -8.5q0 -14 -22 -14h-68q-33 0 -61 33l-224 223q-14 15 -14 33zM193 63v1410q0 63 63 63h63q63 0 64 -63v-1410q0 -63 -64 -63h-63q-63 0 -63 63z" />
<glyph unicode="&#xcd;" horiz-adv-x="575" d="M117 1710q0 2 8 19l156 223q45 63 86 63h100q39 0 39 -30q0 -18 -12 -33l-226 -223q-29 -33 -61 -33h-66q-24 0 -24 14zM193 63v1410q0 63 63 63h63q63 0 64 -63v-1410q0 -63 -64 -63h-63q-63 0 -63 63z" />
<glyph unicode="&#xce;" horiz-adv-x="575" d="M-51 1724q0 12 18 35l172 193q53 63 99 63h104q47 0 100 -63l168 -193q18 -23 19 -35q0 -29 -45 -28h-29q-39 0 -102 63l-162 168l-162 -168q-63 -63 -102 -63h-33q-45 -1 -45 28zM193 63v1410q0 63 63 63h63q63 0 64 -63v-1410q0 -63 -64 -63h-63q-63 0 -63 63z" />
<glyph unicode="&#xcf;" horiz-adv-x="575" d="M-47 1759v64q0 66 63 65h50q63 0 63 -65v-64q0 -63 -63 -63h-50q-63 0 -63 63zM193 63v1410q0 63 63 63h63q63 0 64 -63v-1410q0 -63 -64 -63h-63q-63 0 -63 63zM449 1759v64q0 66 63 65h49q63 0 64 -65v-64q0 -63 -64 -63h-49q-63 0 -63 63z" />
<glyph unicode="&#xd0;" horiz-adv-x="1456" d="M63 793v38q0 63 64 64h66v578q0 63 63 63h391q346 0 513 -159.5t167 -479.5v-225q0 -315 -156.5 -493.5t-490.5 -178.5h-424q-63 0 -63 63v664h-66q-64 0 -64 66zM383 168h297q242 0 349.5 124t107.5 380v225q0 248 -122 359.5t-368 111.5h-264v-473h195q63 0 63 -64v-38 q0 -66 -63 -66h-195v-559z" />
<glyph unicode="&#xd1;" horiz-adv-x="1536" d="M193 63v1410q0 63 63 63h25q39 0 69 -41l801 -1094v1072q0 63 66 63h63q63 0 63 -63v-1410q0 -63 -63 -63h-25q-39 0 -69 41l-801 1096l-2 8v-1082q0 -63 -64 -63h-63q-63 0 -63 63zM416 1769v33q0 39 63 109q66 74 137 74q59 0 166 -80t138 -80q70 0 135 88q27 39 45 39 q20 0 20 -41v-25q0 -49 -65 -121q-66 -70 -135 -69q-55 0 -164 79.5t-140 79.5q-70 0 -137 -90q-25 -35 -43 -34q-20 -1 -20 38z" />
<glyph unicode="&#xd2;" horiz-adv-x="1503" d="M113 705v126q0 340 164.5 530.5t474.5 190.5q311 0 476 -186t165 -535v-126q0 -340 -166 -530.5t-475 -190.5q-311 0 -475 185.5t-164 535.5zM303 705q0 -285 111.5 -419t337 -134t337 134t111.5 419v126q0 285 -111.5 419t-337 134t-337 -134t-111.5 -419v-126z M541 1985q0 31 41 30h98q45 0 86 -63l158 -223q0 -4 3 -10.5t3 -8.5q0 -14 -23 -14h-67q-33 0 -62 33l-223 223q-14 15 -14 33z" />
<glyph unicode="&#xd3;" horiz-adv-x="1503" d="M113 705v126q0 340 164.5 530.5t474.5 190.5q311 0 476 -186t165 -535v-126q0 -340 -166 -530.5t-475 -190.5q-311 0 -475 185.5t-164 535.5zM303 705q0 -285 111.5 -419t337 -134t337 134t111.5 419v126q0 285 -111.5 419t-337 134t-337 -134t-111.5 -419v-126z M580 1710q0 2 8 19l155 223q45 63 86 63h101q39 0 39 -30q0 -18 -13 -33l-225 -223q-29 -33 -61 -33h-66q-24 0 -24 14z" />
<glyph unicode="&#xd4;" horiz-adv-x="1503" d="M113 705v126q0 340 164.5 530.5t474.5 190.5q311 0 476 -186t165 -535v-126q0 -340 -166 -530.5t-475 -190.5q-311 0 -475 185.5t-164 535.5zM303 705q0 -285 111.5 -419t337 -134t337 134t111.5 419v126q0 285 -111.5 419t-337 134t-337 -134t-111.5 -419v-126z M412 1724q0 12 18 35l172 193q53 63 98 63h105q47 0 100 -63l168 -193q18 -23 19 -35q0 -29 -45 -28h-29q-39 0 -103 63l-161 168l-162 -168q-63 -63 -103 -63h-32q-45 -1 -45 28z" />
<glyph unicode="&#xd5;" horiz-adv-x="1503" d="M113 705v126q0 340 164.5 530.5t474.5 190.5q311 0 476 -186t165 -535v-126q0 -340 -166 -530.5t-475 -190.5q-311 0 -475 185.5t-164 535.5zM303 705q0 -285 111.5 -419t337 -134t337 134t111.5 419v126q0 285 -111.5 419t-337 134t-337 -134t-111.5 -419v-126z M399 1769v33q0 39 64 109q66 74 137 74q59 0 165.5 -80t137.5 -80q70 0 135 88q27 39 45 39q20 0 21 -41v-25q0 -49 -66 -121q-66 -70 -135 -69q-55 0 -163.5 79.5t-139.5 79.5q-70 0 -137 -90q-25 -35 -43 -34q-21 -1 -21 38z" />
<glyph unicode="&#xd6;" horiz-adv-x="1503" d="M113 705v126q0 340 164.5 530.5t474.5 190.5q311 0 476 -186t165 -535v-126q0 -340 -166 -530.5t-475 -190.5q-311 0 -475 185.5t-164 535.5zM303 705q0 -285 111.5 -419t337 -134t337 134t111.5 419v126q0 285 -111.5 419t-337 134t-337 -134t-111.5 -419v-126z M416 1759v64q0 66 63 65h49q63 0 64 -65v-64q0 -63 -64 -63h-49q-63 0 -63 63zM911 1759v64q0 66 64 65h49q63 0 63 -65v-64q0 -63 -63 -63h-49q-64 0 -64 63z" />
<glyph unicode="&#xd7;" d="M291 492q0 23 20 47l213 213l-213 215q-20 25 -20 45q0 23 20 47l23 20q23 23 47 23q23 0 45 -23l213 -213l215 213q23 23 45 23q25 0 47 -23l23 -20q20 -25 20 -47q0 -20 -20 -45l-215 -215l215 -213q20 -25 20 -47q0 -20 -20 -46l-23 -22q-23 -23 -47 -23q-23 0 -45 23 l-215 213l-213 -213q-23 -23 -45 -23q-25 0 -47 23l-23 22q-20 26 -20 46z" />
<glyph unicode="&#xd8;" horiz-adv-x="1503" d="M113 705v126q0 340 164.5 530.5t474.5 190.5q266 0 430 -141l63 82q39 43 70 43h28q37 0 37 -29q0 -10 -6 -16l-121 -158q139 -186 140 -502v-126q0 -340 -166 -530.5t-475 -190.5q-272 0 -430 141l-64 -82q-39 -43 -68 -43h-32q-35 0 -35 29q0 8 4 16l121 158 q-135 183 -135 502zM303 705q0 -215 66 -347l702 910q-109 117 -319 116q-225 0 -337 -134t-112 -419v-126zM430 266q113 -115 322 -114q225 0 336.5 134t111.5 419v126q0 217 -65 349z" />
<glyph unicode="&#xd9;" horiz-adv-x="1472" d="M176 528v945q0 63 64 63h63q66 0 66 -63v-945q0 -195 100 -285.5t266 -90.5q168 0 268.5 91t100.5 285v945q0 63 63 63h66q63 0 63 -63v-945q0 -260 -152.5 -402t-408.5 -142q-264 0 -411.5 142t-147.5 402zM516 1985q0 31 41 30h98q45 0 86 -63l158 -223q0 -4 3 -10.5 t3 -8.5q0 -14 -22 -14h-68q-33 0 -61 33l-224 223q-14 15 -14 33z" />
<glyph unicode="&#xda;" horiz-adv-x="1472" d="M176 528v945q0 63 64 63h63q66 0 66 -63v-945q0 -195 100 -285.5t266 -90.5q168 0 268.5 91t100.5 285v945q0 63 63 63h66q63 0 63 -63v-945q0 -260 -152.5 -402t-408.5 -142q-264 0 -411.5 142t-147.5 402zM563 1710q0 2 8 19l156 223q45 63 86 63h100q39 0 39 -30 q0 -18 -12 -33l-225 -223q-29 -33 -62 -33h-65q-25 0 -25 14z" />
<glyph unicode="&#xdb;" horiz-adv-x="1472" d="M176 528v945q0 63 64 63h63q66 0 66 -63v-945q0 -195 100 -285.5t266 -90.5q168 0 268.5 91t100.5 285v945q0 63 63 63h66q63 0 63 -63v-945q0 -260 -152.5 -402t-408.5 -142q-264 0 -411.5 142t-147.5 402zM395 1724q0 12 19 35l172 193q53 63 98 63h104q47 0 101 -63 l168 -193q18 -23 18 -35q0 -29 -45 -28h-29q-39 0 -102 63l-162 168l-162 -168q-63 -63 -102 -63h-33q-45 -1 -45 28z" />
<glyph unicode="&#xdc;" horiz-adv-x="1472" d="M176 528v945q0 63 64 63h63q66 0 66 -63v-945q0 -195 100 -285.5t266 -90.5q168 0 268.5 91t100.5 285v945q0 63 63 63h66q63 0 63 -63v-945q0 -260 -152.5 -402t-408.5 -142q-264 0 -411.5 142t-147.5 402zM399 1759v64q0 66 64 65h49q63 0 63 -65v-64q0 -63 -63 -63 h-49q-64 0 -64 63zM895 1759v64q0 66 63 65h50q63 0 63 -65v-64q0 -63 -63 -63h-50q-63 0 -63 63z" />
<glyph unicode="&#xdd;" horiz-adv-x="1232" d="M57 1499q0 37 52 37h86q43 0 79 -63l359 -672l356 672q37 63 82 63h72q47 0 47 -37q0 -12 -8 -26l-461 -840v-570q0 -63 -66 -63h-63q-63 0 -64 63v553l-462 857q-9 14 -9 26zM461 1710q0 2 8 19l156 223q45 63 86 63h100q39 0 39 -30q0 -18 -12 -33l-226 -223 q-29 -33 -61 -33h-66q-24 0 -24 14z" />
<glyph unicode="&#xde;" horiz-adv-x="1247" d="M193 63v1410q0 63 63 63h63q63 0 64 -63v-193h305q465 0 465 -496q0 -246 -126 -387t-372 -141h-272v-193q0 -63 -64 -63h-63q-63 0 -63 63zM383 424h272q178 0 242 92t64 268q0 174 -62.5 251t-226.5 77h-289v-688z" />
<glyph unicode="&#xdf;" horiz-adv-x="1415" d="M63 1024v33q0 63 64 63h113v39q0 197 130 287t335 90q416 0 415 -272q0 -59 -23.5 -110.5t-48 -78t-71.5 -67.5q-4 -2 -25 -20l-29 -25q-9 -8 -26.5 -26.5t-26 -32t-15.5 -34t-7 -39.5q0 -37 17.5 -65.5t36 -41.5t59.5 -36l71 -41q12 -8 56.5 -31.5t58.5 -32t47 -31 t44 -40.5l29 -46q17 -28 23 -62.5t6 -75.5q0 -156 -104.5 -250t-296.5 -94q-135 0 -215 18q-31 8 -39 18.5t-8 40.5v58q0 45 49 45q14 0 23 -2q76 -18 176 -19q113 0 176 46.5t63 138.5q0 43 -18.5 72.5t-41 43t-67.5 35.5l-112 58q-104 51 -156.5 112.5t-52.5 165.5 q0 23 5 45.5t19 44.5l25 38q10 15 34 38l31 31q8 8 38 32.5t32 26.5q88 78 88 168q0 45 -22.5 74.5t-63.5 42t-73.5 16.5t-79.5 4q-86 0 -144.5 -14t-101.5 -66.5t-43 -142.5v-1090q0 -63 -64 -63h-49q-63 0 -63 63v898h-113q-64 0 -64 63z" />
<glyph unicode="&#xe0;" horiz-adv-x="1208" d="M121 369v176q0 254 176 414.5t416 160.5h239q63 0 64 -63v-994q0 -63 -64 -63h-49q-63 0 -63 63v146l-80 -80q-150 -145 -320 -145q-141 0 -230 95t-89 290zM297 369q0 -225 174 -226q129 0 305 176l64 66v576h-127q-184 0 -300 -113t-116 -303v-176zM432 1569 q0 31 41 30h98q45 0 86 -63l158 -223q0 -4 3 -10.5t3 -8.5q0 -14 -22 -14h-68q-33 0 -61 33l-224 223q-14 15 -14 33z" />
<glyph unicode="&#xe1;" horiz-adv-x="1208" d="M121 369v176q0 254 176 414.5t416 160.5h239q63 0 64 -63v-994q0 -63 -64 -63h-49q-63 0 -63 63v146l-80 -80q-150 -145 -320 -145q-141 0 -230 95t-89 290zM297 369q0 -225 174 -226q129 0 305 176l64 66v576h-127q-184 0 -300 -113t-116 -303v-176zM496 1294q0 2 8 19 l155 223q45 63 86 63h101q39 0 39 -30q0 -16 -13 -33l-225 -223q-29 -33 -61 -33h-66q-24 0 -24 14z" />
<glyph unicode="&#xe2;" horiz-adv-x="1208" d="M121 369v176q0 254 176 414.5t416 160.5h239q63 0 64 -63v-994q0 -63 -64 -63h-49q-63 0 -63 63v146l-80 -80q-150 -145 -320 -145q-141 0 -230 95t-89 290zM297 369q0 -225 174 -226q129 0 305 176l64 66v576h-127q-184 0 -300 -113t-116 -303v-176zM297 1309 q0 14 18 34l172 193q53 63 99 63h104q47 0 101 -63l167 -193q18 -20 19 -34q0 -29 -45 -29h-29q-39 0 -102 63l-162 168l-162 -168q-63 -63 -102 -63h-33q-45 0 -45 29z" />
<glyph unicode="&#xe3;" horiz-adv-x="1208" d="M121 369v176q0 254 176 414.5t416 160.5h239q63 0 64 -63v-994q0 -63 -64 -63h-49q-63 0 -63 63v146l-80 -80q-150 -145 -320 -145q-141 0 -230 95t-89 290zM276 1354v32q0 39 64 109q66 74 137 74q59 0 166 -80t137 -80q70 0 135 88q27 39 46 39q20 0 20 -41v-25 q0 -49 -66 -120q-66 -70 -135 -70q-55 0 -163.5 80t-139.5 80q-70 0 -137 -90q-25 -35 -43 -35q-21 0 -21 39zM297 369q0 -225 174 -226q129 0 305 176l64 66v576h-127q-184 0 -300 -113t-116 -303v-176z" />
<glyph unicode="&#xe4;" horiz-adv-x="1208" d="M121 369v176q0 254 176 414.5t416 160.5h239q63 0 64 -63v-994q0 -63 -64 -63h-49q-63 0 -63 63v146l-80 -80q-150 -145 -320 -145q-141 0 -230 95t-89 290zM293 1343v64q0 66 63 66h50q63 0 63 -66v-64q0 -63 -63 -63h-50q-63 0 -63 63zM297 369q0 -225 174 -226 q129 0 305 176l64 66v576h-127q-184 0 -300 -113t-116 -303v-176zM788 1343v64q0 66 64 66h49q63 0 64 -66v-64q0 -63 -64 -63h-49q-64 0 -64 63z" />
<glyph unicode="&#xe5;" horiz-adv-x="1208" d="M121 369v176q0 254 176 414.5t416 160.5h239q63 0 64 -63v-994q0 -63 -64 -63h-49q-63 0 -63 63v146l-80 -80q-150 -145 -320 -145q-141 0 -230 95t-89 290zM297 369q0 -225 174 -226q129 0 305 176l64 66v576h-127q-184 0 -300 -113t-116 -303v-176zM387 1489 q0 88 58.5 147.5t173 59.5t174 -59.5t59.5 -147.5q0 -90 -59.5 -149.5t-174 -59.5t-173 59.5t-58.5 149.5zM483 1489q0 -53 34 -91t101.5 -38t102.5 38t35 91t-35 90t-102.5 37t-101.5 -37t-34 -90z" />
<glyph unicode="&#xe6;" horiz-adv-x="1808" d="M117 369v176q0 254 176 414.5t416 160.5h608q176 0 279.5 -78.5t103.5 -240.5q0 -152 -92 -237t-260 -85h-336v-47q0 -150 82 -219.5t223 -69.5q43 0 91 7.5t78 16.5l57 18q28 9 30 10q16 4 26 4q37 0 37 -41v-45q0 -33 -7 -46.5t-34 -25.5q-12 -6 -50 -18.5 t-104.5 -25.5t-123.5 -13q-352 0 -451 254l-110 -109q-150 -145 -320 -145q-141 0 -230 95t-89 290zM293 369q0 -225 176 -226q127 0 303 176l64 66v254q0 197 106 322h-233q-182 0 -299 -114t-117 -302v-176zM1012 627h288q127 0 175.5 42t48.5 132q0 160 -207 160 q-305 0 -305 -322v-12z" />
<glyph unicode="&#xe7;" horiz-adv-x="1024" d="M121 465v190q0 223 143.5 352.5t335.5 129.5q188 0 320 -80v-226q0 -63 -64 -63h-33q-63 0 -63 63v113q-66 33 -160 33q-131 0 -217 -79t-86 -243v-190q0 -156 79 -239t224 -83q129 0 240 50q16 6 28 6q35 0 35 -43v-45q0 -33 -7 -46.5t-32 -25.5q-111 -55 -264 -55 q-223 0 -351 122.5t-128 358.5zM340 -319q0 47 47 47h145q111 0 111 71q0 35 -31.5 72t-70.5 57v25h110q55 -25 92 -73t37 -95q0 -86 -63.5 -128t-161.5 -42h-168q-47 0 -47 49v17z" />
<glyph unicode="&#xe8;" horiz-adv-x="1087" d="M121 432v223q0 223 134 352.5t345 129.5q176 0 279.5 -80t103.5 -242q0 -150 -92 -234.5t-258 -84.5h-336v-64q0 -289 303 -289q43 0 91 7.5t78 16.5l57 18q28 9 30 10q20 4 29 4q35 0 35 -41v-45q0 -33 -7.5 -46.5t-31.5 -25.5q-12 -6 -50 -18.5t-106 -25.5t-125 -13 q-217 0 -348 110.5t-131 337.5zM297 641h287q127 0 176 43t49 131q0 162 -209 162q-303 0 -303 -322v-14zM348 1569q0 31 41 30h98q45 0 86 -63l158 -223q0 -4 3 -10.5t3 -8.5q0 -14 -22 -14h-68q-33 0 -61 33l-224 223q-14 15 -14 33z" />
<glyph unicode="&#xe9;" horiz-adv-x="1087" d="M121 432v223q0 223 134 352.5t345 129.5q176 0 279.5 -80t103.5 -242q0 -150 -92 -234.5t-258 -84.5h-336v-64q0 -289 303 -289q43 0 91 7.5t78 16.5l57 18q28 9 30 10q20 4 29 4q35 0 35 -41v-45q0 -33 -7.5 -46.5t-31.5 -25.5q-12 -6 -50 -18.5t-106 -25.5t-125 -13 q-217 0 -348 110.5t-131 337.5zM297 641h287q127 0 176 43t49 131q0 162 -209 162q-303 0 -303 -322v-14zM387 1294q0 2 8 19l156 223q45 63 86 63h100q39 0 39 -30q0 -16 -12 -33l-225 -223q-29 -33 -62 -33h-65q-25 0 -25 14z" />
<glyph unicode="&#xea;" horiz-adv-x="1087" d="M121 432v223q0 223 134 352.5t345 129.5q176 0 279.5 -80t103.5 -242q0 -150 -92 -234.5t-258 -84.5h-336v-64q0 -289 303 -289q43 0 91 7.5t78 16.5l57 18q28 9 30 10q20 4 29 4q35 0 35 -41v-45q0 -33 -7.5 -46.5t-31.5 -25.5q-12 -6 -50 -18.5t-106 -25.5t-125 -13 q-217 0 -348 110.5t-131 337.5zM219 1309q0 14 19 34l172 193q53 63 98 63h104q47 0 101 -63l168 -193q18 -20 18 -34q0 -29 -45 -29h-29q-39 0 -102 63l-162 168l-162 -168q-63 -63 -102 -63h-33q-45 0 -45 29zM297 641h287q127 0 176 43t49 131q0 162 -209 162 q-303 0 -303 -322v-14z" />
<glyph unicode="&#xeb;" horiz-adv-x="1087" d="M121 432v223q0 223 134 352.5t345 129.5q176 0 279.5 -80t103.5 -242q0 -150 -92 -234.5t-258 -84.5h-336v-64q0 -289 303 -289q43 0 91 7.5t78 16.5l57 18q28 9 30 10q20 4 29 4q35 0 35 -41v-45q0 -33 -7.5 -46.5t-31.5 -25.5q-12 -6 -50 -18.5t-106 -25.5t-125 -13 q-217 0 -348 110.5t-131 337.5zM223 1343v64q0 66 64 66h49q63 0 63 -66v-64q0 -63 -63 -63h-49q-64 0 -64 63zM297 641h287q127 0 176 43t49 131q0 162 -209 162q-303 0 -303 -322v-14zM719 1343v64q0 66 63 66h49q63 0 64 -66v-64q0 -63 -64 -63h-49q-63 0 -63 63z" />
<glyph unicode="&#xec;" horiz-adv-x="591" d="M35 1024v33q0 63 63 63h238q63 0 63 -63v-994q0 -63 -63 -63h-47q-66 0 -66 63v898h-125q-63 0 -63 63zM59 1569q0 31 41 30h99q45 0 86 -63l157 -223q0 -4 3.5 -10.5t3.5 -8.5q0 -14 -23 -14h-68q-33 0 -61 33l-223 223q-15 15 -15 33z" />
<glyph unicode="&#xed;" horiz-adv-x="591" d="M35 1024v33q0 63 63 63h238q63 0 63 -63v-994q0 -63 -63 -63h-47q-66 0 -66 63v898h-125q-63 0 -63 63zM131 1294q0 2 8 19l156 223q45 63 86 63h100q39 0 39 -30q0 -16 -12 -33l-225 -223q-29 -33 -62 -33h-65q-25 0 -25 14z" />
<glyph unicode="&#xee;" horiz-adv-x="591" d="M-68 1309q0 14 19 34l172 193q53 63 98 63h105q47 0 100 -63l168 -193q18 -20 18 -34q0 -29 -45 -29h-28q-39 0 -103 63l-162 168l-161 -168q-63 -63 -103 -63h-33q-45 0 -45 29zM35 1024v33q0 63 63 63h238q63 0 63 -63v-994q0 -63 -63 -63h-47q-66 0 -66 63v898h-125 q-63 0 -63 63z" />
<glyph unicode="&#xef;" horiz-adv-x="591" d="M-80 1343v64q0 66 64 66h49q63 0 63 -66v-64q0 -63 -63 -63h-49q-64 0 -64 63zM35 1024v33q0 63 63 63h238q63 0 63 -63v-994q0 -63 -63 -63h-47q-66 0 -66 63v898h-125q-63 0 -63 63zM416 1343v64q0 66 63 66h49q63 0 64 -66v-64q0 -63 -64 -63h-49q-63 0 -63 63z" />
<glyph unicode="&#xf0;" horiz-adv-x="1208" d="M121 369v176q0 254 176 414.5t416 160.5h127v144h-193q-63 0 -63 57v31q0 63 63 63h193v58q0 63 63 63h49q63 0 64 -63v-58h63q66 0 66 -63v-31q0 -57 -66 -57h-63v-1201q0 -63 -64 -63h-49q-63 0 -63 63v146l-80 -80q-150 -145 -320 -145q-141 0 -229 95t-90 290z M297 369q0 -225 174 -226q129 0 305 176l64 66v576h-127q-184 0 -300 -113t-116 -303v-176z" />
<glyph unicode="&#xf1;" horiz-adv-x="1255" d="M193 63v994q0 63 63 63h47q66 0 66 -63v-146l80 80q145 145 319 146q303 0 303 -385v-689q0 -63 -63 -63h-47q-66 0 -66 63v689q0 225 -174 225q-113 0 -289 -176l-63 -66v-672q0 -63 -66 -63h-47q-63 0 -63 63zM276 1354v32q0 39 64 109q66 74 137 74q59 0 166 -80 t137 -80q70 0 135 88q27 39 46 39q20 0 20 -41v-25q0 -49 -66 -120q-66 -70 -135 -70q-55 0 -163.5 80t-139.5 80q-70 0 -137 -90q-25 -35 -43 -35q-21 0 -21 39z" />
<glyph unicode="&#xf2;" horiz-adv-x="1200" d="M113 575q0 260 123.5 411t363.5 151q248 0 367.5 -148.5t119.5 -413.5q0 -281 -122.5 -436t-364.5 -155q-487 -1 -487 591zM289 575q0 -432 311 -432t311 432q0 199 -69.5 300.5t-241.5 101.5t-241.5 -101.5t-69.5 -300.5zM387 1569q0 31 41 30h98q45 0 86 -63l158 -223 q0 -4 3 -10.5t3 -8.5q0 -14 -22 -14h-68q-33 0 -61 33l-224 223q-14 15 -14 33z" />
<glyph unicode="&#xf3;" horiz-adv-x="1200" d="M113 575q0 260 123.5 411t363.5 151q248 0 367.5 -148.5t119.5 -413.5q0 -281 -122.5 -436t-364.5 -155q-487 -1 -487 591zM289 575q0 -432 311 -432t311 432q0 199 -69.5 300.5t-241.5 101.5t-241.5 -101.5t-69.5 -300.5zM428 1294q0 2 8 19l156 223q45 63 86 63h100 q39 0 39 -30q0 -16 -12 -33l-225 -223q-29 -33 -62 -33h-65q-25 0 -25 14z" />
<glyph unicode="&#xf4;" horiz-adv-x="1200" d="M113 575q0 260 123.5 411t363.5 151q248 0 367.5 -148.5t119.5 -413.5q0 -281 -122.5 -436t-364.5 -155q-487 -1 -487 591zM260 1309q0 14 19 34l172 193q53 63 98 63h104q47 0 101 -63l168 -193q18 -20 18 -34q0 -29 -45 -29h-29q-39 0 -102 63l-162 168l-162 -168 q-63 -63 -102 -63h-33q-45 0 -45 29zM289 575q0 -432 311 -432t311 432q0 199 -69.5 300.5t-241.5 101.5t-241.5 -101.5t-69.5 -300.5z" />
<glyph unicode="&#xf5;" horiz-adv-x="1200" d="M113 575q0 260 123.5 411t363.5 151q248 0 367.5 -148.5t119.5 -413.5q0 -281 -122.5 -436t-364.5 -155q-487 -1 -487 591zM248 1354v32q0 39 63 109q66 74 138 74q59 0 165.5 -80t137.5 -80q70 0 135 88q27 39 45 39q20 0 20 -41v-25q0 -49 -65 -120q-66 -70 -135 -70 q-55 0 -164 80t-139 80q-70 0 -138 -90q-25 -35 -43 -35q-20 0 -20 39zM289 575q0 -432 311 -432t311 432q0 199 -69.5 300.5t-241.5 101.5t-241.5 -101.5t-69.5 -300.5z" />
<glyph unicode="&#xf6;" horiz-adv-x="1200" d="M113 575q0 260 123.5 411t363.5 151q248 0 367.5 -148.5t119.5 -413.5q0 -281 -122.5 -436t-364.5 -155q-487 -1 -487 591zM264 1343v64q0 66 64 66h49q63 0 63 -66v-64q0 -63 -63 -63h-49q-64 0 -64 63zM289 575q0 -432 311 -432t311 432q0 199 -69.5 300.5 t-241.5 101.5t-241.5 -101.5t-69.5 -300.5zM760 1343v64q0 66 63 66h49q63 0 64 -66v-64q0 -63 -64 -63h-49q-63 0 -63 63z" />
<glyph unicode="&#xf7;" d="M193 735v33q0 63 63 63h768q63 0 63 -63v-33q0 -63 -63 -63h-768q-63 0 -63 63zM559 449v30q0 66 66 66h30q66 0 66 -66v-30q0 -66 -66 -66h-30q-66 0 -66 66zM559 1024v33q0 63 66 63h30q66 0 66 -63v-33q0 -63 -66 -63h-30q-66 0 -66 63z" />
<glyph unicode="&#xf8;" horiz-adv-x="1200" d="M109 575q0 260 123.5 411t363.5 151q195 0 313 -97l29 35q31 45 68 45h43q27 0 26 -20q0 -14 -8 -25l-86 -110q102 -141 102 -390q0 -281 -122.5 -436t-364.5 -155q-199 0 -313 96l-29 -37q-39 -43 -68 -43h-36q-27 0 -27 29q0 8 4 16l86 111q-104 145 -104 419zM285 575 q0 -170 45 -272l477 606q-78 68 -211 68q-172 0 -241.5 -101.5t-69.5 -300.5zM389 217q78 -74 207 -74q311 0 311 432q0 152 -41 246z" />
<glyph unicode="&#xf9;" horiz-adv-x="1255" d="M184 369v688q0 63 64 63h49q63 0 63 -63v-688q0 -225 177 -226q111 0 286 176l66 64v674q0 63 63 63h47q66 0 66 -63v-994q0 -63 -66 -63h-47q-63 0 -63 63v146l-80 -82q-147 -143 -322 -143q-303 0 -303 385zM416 1569q0 31 41 30h98q45 0 86 -63l158 -223q0 -4 3 -10.5 t3 -8.5q0 -14 -23 -14h-67q-33 0 -62 33l-223 223q-14 15 -14 33z" />
<glyph unicode="&#xfa;" horiz-adv-x="1255" d="M184 369v688q0 63 64 63h49q63 0 63 -63v-688q0 -225 177 -226q111 0 286 176l66 64v674q0 63 63 63h47q66 0 66 -63v-994q0 -63 -66 -63h-47q-63 0 -63 63v146l-80 -82q-147 -143 -322 -143q-303 0 -303 385zM465 1294q0 2 8 19l156 223q45 63 86 63h100q39 0 39 -30 q0 -16 -12 -33l-226 -223q-29 -33 -61 -33h-66q-24 0 -24 14z" />
<glyph unicode="&#xfb;" horiz-adv-x="1255" d="M184 369v688q0 63 64 63h49q63 0 63 -63v-688q0 -225 177 -226q111 0 286 176l66 64v674q0 63 63 63h47q66 0 66 -63v-994q0 -63 -66 -63h-47q-63 0 -63 63v146l-80 -82q-147 -143 -322 -143q-303 0 -303 385zM289 1309q0 14 18 34l172 193q53 63 99 63h104q47 0 100 -63 l168 -193q18 -20 19 -34q0 -29 -45 -29h-29q-39 0 -102 63l-162 168l-162 -168q-63 -63 -102 -63h-33q-45 0 -45 29z" />
<glyph unicode="&#xfc;" horiz-adv-x="1255" d="M184 369v688q0 63 64 63h49q63 0 63 -63v-688q0 -225 177 -226q111 0 286 176l66 64v674q0 63 63 63h47q66 0 66 -63v-994q0 -63 -66 -63h-47q-63 0 -63 63v146l-80 -82q-147 -143 -322 -143q-303 0 -303 385zM293 1343v64q0 66 63 66h50q63 0 63 -66v-64q0 -63 -63 -63 h-50q-63 0 -63 63zM788 1343v64q0 66 64 66h49q63 0 64 -66v-64q0 -63 -64 -63h-49q-64 0 -64 63z" />
<glyph unicode="&#xfd;" horiz-adv-x="1255" d="M184 449v608q0 63 64 63h49q63 0 63 -63v-608q0 -225 172 -226q115 0 291 176l66 66v592q0 63 63 63h47q66 0 66 -63v-914q0 -279 -154.5 -403.5t-453.5 -124.5h-129q-63 0 -64 66v30q0 66 64 66h129q229 0 330.5 81t101.5 271v160l-80 -80q-145 -145 -326 -146 q-299 1 -299 386zM471 1294q0 2 8 19l156 223q45 63 86 63h100q39 0 39 -30q0 -16 -12 -33l-225 -223q-29 -33 -62 -33h-65q-25 0 -25 14z" />
<glyph unicode="&#xfe;" horiz-adv-x="1208" d="M193 -319v1792q0 63 63 63h47q66 0 66 -63v-562l80 80q145 145 319 146q141 0 230 -95.5t89 -289.5v-177q0 -254 -176 -414.5t-415 -160.5h-127v-319q0 -66 -66 -66h-47q-63 0 -63 66zM369 160h127q182 0 298.5 113.5t116.5 301.5v177q0 225 -176 225q-127 0 -303 -176 l-63 -66v-575z" />
<glyph unicode="&#xff;" horiz-adv-x="1255" d="M184 449v608q0 63 64 63h49q63 0 63 -63v-608q0 -225 172 -226q115 0 291 176l66 66v592q0 63 63 63h47q66 0 66 -63v-914q0 -279 -154.5 -403.5t-453.5 -124.5h-129q-63 0 -64 66v30q0 66 64 66h129q229 0 330.5 81t101.5 271v160l-80 -80q-145 -145 -326 -146 q-299 1 -299 386zM293 1343v64q0 66 63 66h50q63 0 63 -66v-64q0 -63 -63 -63h-50q-63 0 -63 63zM788 1343v64q0 66 64 66h49q63 0 64 -66v-64q0 -63 -64 -63h-49q-64 0 -64 63z" />
<glyph unicode="&#x152;" horiz-adv-x="2015" d="M113 721v94q0 340 164.5 530.5t474.5 190.5h1073q63 0 63 -63v-41q0 -63 -63 -64h-608v-473h542q66 0 66 -64v-38q0 -66 -66 -66h-542v-559h608q63 0 63 -64v-41q0 -63 -63 -63h-1073q-311 0 -475 185.5t-164 535.5zM303 721q0 -285 111.5 -419t337.5 -134h272v1200h-272 q-225 0 -337 -134t-112 -419v-94z" />
<glyph unicode="&#x153;" horiz-adv-x="1880" d="M109 575q0 260 123.5 411t363.5 151q274 0 397 -189q133 188 396 189q176 0 279.5 -80t103.5 -242q0 -150 -92.5 -234.5t-260.5 -84.5h-336v-64q0 -150 82 -219.5t224 -69.5q43 0 91 7.5t78 16.5l57 18q28 9 30 10q20 4 26 4q37 0 37 -41v-45q0 -33 -7 -46.5t-34 -25.5 q-10 -6 -49 -18.5t-105.5 -25.5t-123.5 -13q-291 0 -410 178q-127 -178 -383 -178q-487 -1 -487 591zM285 575q0 -432 311 -432t311 432v19q-4 188 -74.5 285.5t-236.5 97.5q-172 0 -241.5 -101.5t-69.5 -300.5zM1083 641h289q125 0 174 43t49 131q0 162 -206 162 q-305 0 -306 -322v-14z" />
<glyph unicode="&#x178;" horiz-adv-x="1232" d="M57 1499q0 37 52 37h86q43 0 79 -63l359 -672l356 672q37 63 82 63h72q47 0 47 -37q0 -12 -8 -26l-461 -840v-570q0 -63 -66 -63h-63q-63 0 -64 63v553l-462 857q-9 14 -9 26zM281 1759v64q0 66 63 65h49q63 0 64 -65v-64q0 -63 -64 -63h-49q-63 0 -63 63zM776 1759v64 q0 66 64 65h49q63 0 63 -65v-64q0 -63 -63 -63h-49q-64 0 -64 63z" />
<glyph unicode="&#x2c6;" horiz-adv-x="679" d="M0 1309q0 14 18 34l172 193q53 63 99 63h104q47 0 101 -63l168 -193q18 -20 18 -34q0 -29 -45 -29h-29q-39 0 -102 63l-162 168l-162 -168q-63 -63 -102 -63h-33q-45 0 -45 29z" />
<glyph unicode="&#x2dc;" horiz-adv-x="704" d="M0 1354v32q0 39 63 109q66 74 138 74q59 0 165.5 -80t137.5 -80q70 0 135 88q27 39 45 39q20 0 21 -41v-25q0 -49 -66 -120q-66 -70 -135 -70q-57 0 -164 80t-139 80q-70 0 -138 -90q-25 -35 -43 -35q-20 0 -20 39z" />
<glyph unicode="&#x2013;" horiz-adv-x="1024" d="M63 735v33q0 63 64 63h768q66 0 66 -63v-33q0 -63 -66 -63h-766q-66 0 -66 63z" />
<glyph unicode="&#x2014;" horiz-adv-x="2048" d="M63 735v33q0 63 64 63h1792q66 0 66 -63v-33q0 -63 -66 -63h-1790q-66 0 -66 63z" />
<glyph unicode="&#x2018;" horiz-adv-x="559" d="M133 1151q0 37 12 59l156 285q20 41 51 41h45q37 0 37 -31q0 -8 -2 -12l-90 -342q-16 -63 -76 -64h-69q-64 1 -64 64z" />
<glyph unicode="&#x2019;" horiz-adv-x="559" d="M127 1118v12l90 343q16 63 78 63h70q61 0 61 -63q0 -37 -12 -60l-156 -285q-20 -41 -49 -41h-47q-35 0 -35 31z" />
<glyph unicode="&#x201a;" horiz-adv-x="559" d="M115 -225q0 8 2 12l90 340q12 66 76 66h69q61 0 62 -66q0 -35 -13 -57l-155 -285q-20 -41 -49 -41h-47q-35 0 -35 31z" />
<glyph unicode="&#x201c;" horiz-adv-x="944" d="M143 1151q0 37 13 59l155 285q20 41 51 41h46q37 0 36 -31q0 -8 -2 -12l-90 -342q-16 -63 -76 -64h-69q-64 1 -64 64zM528 1151q0 37 13 59l155 285q20 41 49 41h48q35 0 34 -31q0 -8 -2 -12l-90 -342q-16 -63 -76 -64h-69q-62 1 -62 64z" />
<glyph unicode="&#x201d;" horiz-adv-x="944" d="M127 1118v12l90 343q16 63 78 63h70q61 0 61 -63q0 -37 -12 -60l-156 -285q-20 -41 -49 -41h-47q-35 0 -35 31zM510 1118q0 8 2 12l90 343q16 63 76 63h70q63 0 63 -63q0 -37 -12 -60l-158 -285q-16 -41 -49 -41h-45q-37 0 -37 31z" />
<glyph unicode="&#x201e;" horiz-adv-x="944" d="M117 -225q0 8 2 12l90 340q12 66 76 66h69q61 0 62 -66q0 -35 -13 -57l-155 -285q-20 -41 -49 -41h-47q-35 0 -35 31zM500 -225q0 8 2 12l90 340q16 66 76 66h69q63 0 64 -66q0 -35 -13 -57l-155 -285q-20 -41 -51 -41h-45q-37 0 -37 31z" />
<glyph unicode="&#x2022;" horiz-adv-x="1024" d="M129 641q0 182 113.5 282.5t269.5 100.5t270.5 -100.5t114.5 -282.5t-114.5 -283.5t-270.5 -101.5t-269.5 101.5t-113.5 283.5z" />
<glyph unicode="&#x2026;" horiz-adv-x="1703" d="M184 63v64q0 66 64 66h63q66 0 66 -66v-64q0 -63 -66 -63h-63q-64 0 -64 63zM752 63v64q0 66 63 66h66q63 0 63 -66v-64q0 -63 -63 -63h-66q-63 0 -63 63zM1327 63v64q0 66 66 66h63q63 0 64 -66v-64q0 -63 -64 -63h-63q-66 0 -66 63z" />
<glyph unicode="&#x2039;" horiz-adv-x="688" d="M127 670v39q0 43 66 98l319 272q18 16 37 17q27 0 26 -43v-78q0 -47 -63 -98l-223 -189l223 -186q63 -51 63 -99v-77q0 -45 -28 -45q-16 0 -35 16l-319 272q-66 60 -66 101z" />
<glyph unicode="&#x203a;" horiz-adv-x="688" d="M113 326v77q0 47 63 99l223 186l-223 189q-63 51 -63 98v78q0 43 26 43q18 0 37 -17l320 -272q63 -53 63 -98v-39q0 -43 -63 -101l-320 -272q-18 -16 -35 -16q-28 0 -28 45z" />
<glyph unicode="&#x20ac;" d="M63 584v41q0 63 64 63h129v160h-129q-63 0 -64 63v41q0 63 64 64h129v8q0 238 159.5 383t385.5 145h47q125 0 242 -39q63 -18 63 -77v-39q0 -55 -41 -56q-6 0 -22 5q-121 39 -242 38h-47q-147 0 -249.5 -90t-102.5 -270v-8h534q66 0 66 -64v-41q0 -63 -66 -63h-534v-160 h534q66 0 66 -63v-41q0 -63 -66 -64h-534v-8q0 -170 104 -265t248 -95h63q115 0 226 45q12 6 24 6q39 0 39 -56v-38q0 -57 -63 -80q-115 -45 -226 -45h-63q-233 0 -389 133t-156 395v8h-129q-64 1 -64 64z" />
<glyph unicode="&#x2122;" horiz-adv-x="1552" d="M47 1464v25q0 47 49 47h449q47 0 47 -47v-25q0 -49 -47 -49h-154v-647q0 -47 -47 -47h-47q-49 0 -49 47v647h-152q-49 0 -49 49zM688 768v721q0 47 47 47h41q27 0 35 -18l240 -342l219 344q10 16 35 16h38q49 0 50 -47v-721q0 -47 -50 -47h-47q-49 0 -49 47v465 l-160 -234q-16 -23 -38 -22h-17q-27 0 -43 22l-158 218v-449q0 -47 -47 -47h-49q-47 0 -47 47z" />
<glyph unicode="&#xe000;" horiz-adv-x="1120" d="M0 1120h1120v-1120h-1120v1120z" />
<glyph unicode="&#xfb01;" horiz-adv-x="1296" d="M63 1024v33q0 29 17.5 46t46.5 17h113v47q0 178 99 273.5t269 95.5h64q63 0 63 -63v-33q0 -63 -63 -64h-64q-106 0 -149 -49t-43 -160v-47h624q63 0 64 -63v-994q0 -63 -64 -63h-49q-63 0 -63 63v898h-512v-898q0 -63 -64 -63h-49q-63 0 -63 63v898h-111q-66 0 -66 63z M928 1407v66q0 63 63 63h49q63 0 64 -63v-66q0 -63 -64 -64h-49q-63 1 -63 64z" />
<glyph unicode="&#xfb02;" horiz-adv-x="1296" d="M63 1024v33q0 29 17.5 46t46.5 17h113v47q0 178 99 273.5t269 95.5h432q63 0 64 -63v-1410q0 -63 -64 -63h-49q-63 0 -63 63v1313h-320q-106 0 -149 -49t-43 -160v-47h223q66 0 66 -63v-33q0 -63 -66 -63h-223v-898q0 -63 -64 -63h-49q-63 0 -63 63v898h-111 q-66 0 -66 63z" />
<glyph unicode="&#xfb03;" horiz-adv-x="2000" d="M63 1024v33q4 63 64 63h113v47q0 178 99 273.5t269 95.5h64q63 0 63 -63v-33q0 -63 -63 -64h-64q-106 0 -149 -49t-43 -160v-47h223q66 0 66 -63v-33q0 -63 -66 -63h-223v-898q0 -63 -64 -63h-49q-63 0 -63 63v898h-111q-66 0 -66 63zM768 1024v33q4 63 63 63h113v47 q0 178 99.5 273.5t269.5 95.5h63q63 0 64 -63v-33q0 -63 -64 -64h-63q-106 0 -149.5 -49t-43.5 -160v-47h223q66 0 66 -63v-33q0 -63 -66 -63h-223v-898q0 -63 -63 -63h-49q-63 0 -64 63v898h-110q-66 0 -66 63zM1444 1024v33q0 63 61 63h240q63 0 63 -63v-994 q0 -63 -63 -63h-47q-66 0 -66 63v898h-125q-63 0 -63 63zM1632 1407v66q0 63 66 63h47q63 0 63 -63v-66q0 -63 -63 -64h-47q-66 1 -66 64z" />
<glyph unicode="&#xfb04;" horiz-adv-x="1968" d="M63 1024v33q4 63 64 63h113v47q0 178 99 273.5t269 95.5h64q63 0 63 -63v-33q0 -63 -63 -64h-64q-106 0 -149 -49t-43 -160v-47h223q66 0 66 -63v-33q0 -63 -66 -63h-223v-898q0 -63 -64 -63h-49q-63 0 -63 63v898h-111q-66 0 -66 63zM768 1024v33q4 63 63 63h113v47 q0 178 99.5 273.5t269.5 95.5h63q63 0 64 -63v-33q0 -63 -64 -64h-63q-106 0 -149.5 -49t-43.5 -160v-47h223q66 0 66 -63v-33q0 -63 -66 -63h-223v-898q0 -63 -63 -63h-49q-63 0 -64 63v898h-110q-66 0 -66 63zM1413 1440v33q0 63 62 63h237q66 0 66 -63v-1410 q0 -63 -66 -63h-47q-63 0 -63 63v1313h-125q-64 1 -64 64z" />
<glyph horiz-adv-x="409" />
</font>
</defs>
</svg>
